<ttFont>
    <TTGlyph name=".notdef" xMin="90" yMin="0" xMax="1350" yMax="1291">
      <contour>
        <pt x="936" y="28" on="1"/>
        <pt x="1314" y="1263" on="1"/>
        <pt x="502" y="1263" on="1"/>
        <pt x="125" y="28" on="1"/>
      </contour>
      <contour>
        <pt x="485" y="1291" on="1"/>
        <pt x="1350" y="1291" on="1"/>
        <pt x="955" y="0" on="1"/>
        <pt x="90" y="0" on="1"/>
      </contour>
    </TTGlyph>
    <TTGlyph name="A" xMin="-215" yMin="-38" xMax="1513" yMax="1398">
      <contour>
        <pt x="641" y="638" on="1"/>
        <pt x="641" y="632" on="0"/>
        <pt x="646" y="625" on="0"/>
        <pt x="655" y="625" on="1"/>
        <pt x="752" y="625" on="1"/>
        <pt x="809" y="625" on="0"/>
        <pt x="917" y="626" on="0"/>
        <pt x="980" y="631" on="1"/>
        <pt x="988" y="633" on="0"/>
        <pt x="1010" y="670" on="0"/>
        <pt x="1023" y="699" on="1"/>
        <pt x="1061" y="788" on="0"/>
        <pt x="1116" y="913" on="0"/>
        <pt x="1162" y="1021" on="0"/>
        <pt x="1206" y="1130" on="0"/>
        <pt x="1233" y="1202" on="1"/>
        <pt x="1234" y="1207" on="0"/>
        <pt x="1236" y="1215" on="0"/>
        <pt x="1236" y="1220" on="1"/>
        <pt x="1236" y="1225" on="0"/>
        <pt x="1233" y="1228" on="1"/>
        <pt x="1230" y="1228" on="0"/>
        <pt x="1219" y="1222" on="0"/>
        <pt x="1208" y="1213" on="0"/>
        <pt x="1198" y="1205" on="0"/>
        <pt x="1195" y="1202" on="1"/>
        <pt x="655" y="668" on="1"/>
        <pt x="650" y="664" on="0"/>
        <pt x="641" y="646" on="0"/>
      </contour>
      <contour>
        <pt x="-215" y="-17" on="1"/>
        <pt x="-215" y="-15" on="0"/>
        <pt x="-209" y="1" on="0"/>
        <pt x="-201" y="3" on="1"/>
        <pt x="-161" y="10" on="0"/>
        <pt x="-110" y="36" on="0"/>
        <pt x="-89" y="47" on="1"/>
        <pt x="-39" y="71" on="0"/>
        <pt x="49" y="141" on="0"/>
        <pt x="129" y="221" on="0"/>
        <pt x="204" y="306" on="0"/>
        <pt x="241" y="346" on="1"/>
        <pt x="290" y="396" on="0"/>
        <pt x="446" y="547" on="0"/>
        <pt x="648" y="741" on="0"/>
        <pt x="889" y="971" on="0"/>
        <pt x="1023" y="1100" on="1"/>
        <pt x="1090" y="1160" on="0"/>
        <pt x="1224" y="1277" on="0"/>
        <pt x="1290" y="1337" on="1"/>
        <pt x="1298" y="1342" on="0"/>
        <pt x="1315" y="1346" on="0"/>
        <pt x="1323" y="1346" on="1"/>
        <pt x="1334" y="1346" on="0"/>
        <pt x="1356" y="1342" on="0"/>
        <pt x="1368" y="1342" on="1"/>
        <pt x="1381" y="1342" on="0"/>
        <pt x="1392" y="1348" on="1"/>
        <pt x="1397" y="1351" on="0"/>
        <pt x="1423" y="1364" on="0"/>
        <pt x="1451" y="1378" on="0"/>
        <pt x="1475" y="1391" on="0"/>
        <pt x="1480" y="1394" on="1"/>
        <pt x="1482" y="1394" on="0"/>
        <pt x="1492" y="1398" on="0"/>
        <pt x="1494" y="1398" on="1"/>
        <pt x="1507" y="1398" on="0"/>
        <pt x="1513" y="1383" on="0"/>
        <pt x="1513" y="1372" on="1"/>
        <pt x="1513" y="1362" on="1"/>
        <pt x="1499" y="1327" on="0"/>
        <pt x="1456" y="1262" on="0"/>
        <pt x="1442" y="1228" on="1"/>
        <pt x="1437" y="1208" on="0"/>
        <pt x="1421" y="1165" on="0"/>
        <pt x="1388" y="1085" on="0"/>
        <pt x="1332" y="954" on="0"/>
        <pt x="1244" y="739" on="0"/>
        <pt x="1117" y="427" on="0"/>
        <pt x="1029" y="206" on="1"/>
        <pt x="1020" y="186" on="0"/>
        <pt x="999" y="149" on="0"/>
        <pt x="981" y="112" on="0"/>
        <pt x="970" y="72" on="0"/>
        <pt x="970" y="50" on="1"/>
        <pt x="1157" y="50" on="1"/>
        <pt x="1163" y="50" on="0"/>
        <pt x="1170" y="26" on="0"/>
        <pt x="1170" y="21" on="1"/>
        <pt x="1170" y="8" on="0"/>
        <pt x="1157" y="2" on="1"/>
        <pt x="1106" y="3" on="0"/>
        <pt x="1006" y="7" on="0"/>
        <pt x="956" y="7" on="1"/>
        <pt x="868" y="7" on="0"/>
        <pt x="697" y="-12" on="0"/>
        <pt x="606" y="-12" on="1"/>
        <pt x="604" y="-12" on="0"/>
        <pt x="589" y="-12" on="0"/>
        <pt x="572" y="-12" on="0"/>
        <pt x="556" y="-11" on="0"/>
        <pt x="553" y="-10" on="1"/>
        <pt x="551" y="-10" on="0"/>
        <pt x="542" y="3" on="0"/>
        <pt x="542" y="12" on="1"/>
        <pt x="542" y="19" on="0"/>
        <pt x="557" y="29" on="0"/>
        <pt x="561" y="31" on="1"/>
        <pt x="569" y="32" on="0"/>
        <pt x="610" y="35" on="0"/>
        <pt x="656" y="37" on="0"/>
        <pt x="698" y="39" on="0"/>
        <pt x="707" y="40" on="1"/>
        <pt x="743" y="40" on="1"/>
        <pt x="750" y="43" on="0"/>
        <pt x="765" y="63" on="0"/>
        <pt x="781" y="93" on="0"/>
        <pt x="797" y="128" on="0"/>
        <pt x="805" y="145" on="1"/>
        <pt x="808" y="153" on="0"/>
        <pt x="825" y="194" on="0"/>
        <pt x="848" y="251" on="0"/>
        <pt x="875" y="320" on="0"/>
        <pt x="904" y="394" on="0"/>
        <pt x="933" y="468" on="0"/>
        <pt x="946" y="502" on="1"/>
        <pt x="950" y="513" on="0"/>
        <pt x="957" y="538" on="0"/>
        <pt x="961" y="548" on="1"/>
        <pt x="961" y="555" on="1"/>
        <pt x="961" y="558" on="0"/>
        <pt x="957" y="564" on="0"/>
        <pt x="954" y="569" on="1"/>
        <pt x="949" y="572" on="0"/>
        <pt x="934" y="574" on="0"/>
        <pt x="916" y="574" on="1"/>
        <pt x="834" y="574" on="0"/>
        <pt x="666" y="562" on="0"/>
        <pt x="584" y="562" on="1"/>
        <pt x="568" y="562" on="0"/>
        <pt x="539" y="558" on="0"/>
        <pt x="529" y="548" on="1"/>
        <pt x="526" y="545" on="0"/>
        <pt x="509" y="530" on="0"/>
        <pt x="491" y="512" on="0"/>
        <pt x="474" y="495" on="0"/>
        <pt x="470" y="491" on="1"/>
        <pt x="428" y="444" on="0"/>
        <pt x="341" y="353" on="0"/>
        <pt x="257" y="260" on="0"/>
        <pt x="177" y="162" on="0"/>
        <pt x="141" y="109" on="1"/>
        <pt x="136" y="101" on="0"/>
        <pt x="134" y="87" on="0"/>
        <pt x="134" y="76" on="1"/>
        <pt x="134" y="59" on="0"/>
        <pt x="167" y="38" on="0"/>
        <pt x="217" y="26" on="0"/>
        <pt x="274" y="20" on="0"/>
        <pt x="324" y="14" on="0"/>
        <pt x="357" y="7" on="0"/>
        <pt x="357" y="0" on="1"/>
        <pt x="357" y="-8" on="0"/>
        <pt x="353" y="-20" on="0"/>
        <pt x="344" y="-22" on="1"/>
        <pt x="285" y="-22" on="1"/>
        <pt x="216" y="-22" on="0"/>
        <pt x="77" y="-29" on="0"/>
        <pt x="8" y="-31" on="1"/>
        <pt x="-43" y="-34" on="0"/>
        <pt x="-141" y="-38" on="0"/>
        <pt x="-191" y="-38" on="1"/>
        <pt x="-202" y="-38" on="0"/>
        <pt x="-215" y="-22" on="0"/>
      </contour>
    </TTGlyph>
    <TTGlyph name="A.swash" xMin="52" yMin="-16" xMax="2743" yMax="1434">
      <contour>
        <pt x="1836" y="578" on="1"/>
        <pt x="1836" y="571" on="0"/>
        <pt x="1843" y="564" on="0"/>
        <pt x="1857" y="564" on="1"/>
        <pt x="2170" y="564" on="1"/>
        <pt x="2192" y="564" on="0"/>
        <pt x="2204" y="572" on="0"/>
        <pt x="2206" y="580" on="1"/>
        <pt x="2239" y="657" on="0"/>
        <pt x="2302" y="803" on="0"/>
        <pt x="2364" y="947" on="0"/>
        <pt x="2426" y="1094" on="0"/>
        <pt x="2459" y="1171" on="1"/>
        <pt x="2457" y="1173" on="0"/>
        <pt x="2452" y="1173" on="0"/>
        <pt x="2450" y="1173" on="1"/>
        <pt x="2434" y="1173" on="0"/>
        <pt x="2392" y="1142" on="0"/>
        <pt x="2367" y="1119" on="1"/>
        <pt x="2316" y="1070" on="0"/>
        <pt x="2184" y="939" on="0"/>
        <pt x="2044" y="799" on="0"/>
        <pt x="1909" y="662" on="0"/>
        <pt x="1857" y="607" on="1"/>
        <pt x="1852" y="601" on="0"/>
        <pt x="1836" y="582" on="0"/>
      </contour>
      <contour>
        <pt x="2743" y="1405" on="1"/>
        <pt x="2743" y="1385" on="0"/>
        <pt x="2724" y="1339" on="0"/>
        <pt x="2697" y="1289" on="0"/>
        <pt x="2668" y="1239" on="0"/>
        <pt x="2658" y="1216" on="1"/>
        <pt x="2620" y="1124" on="0"/>
        <pt x="2551" y="956" on="0"/>
        <pt x="2484" y="793" on="0"/>
        <pt x="2416" y="628" on="0"/>
        <pt x="2343" y="450" on="0"/>
        <pt x="2262" y="254" on="0"/>
        <pt x="2215" y="142" on="1"/>
        <pt x="2206" y="119" on="0"/>
        <pt x="2194" y="79" on="0"/>
        <pt x="2194" y="66" on="1"/>
        <pt x="2194" y="62" on="0"/>
        <pt x="2200" y="50" on="0"/>
        <pt x="2213" y="50" on="1"/>
        <pt x="2231" y="50" on="0"/>
        <pt x="2279" y="50" on="0"/>
        <pt x="2324" y="49" on="0"/>
        <pt x="2361" y="47" on="0"/>
        <pt x="2369" y="45" on="1"/>
        <pt x="2380" y="43" on="0"/>
        <pt x="2397" y="29" on="0"/>
        <pt x="2397" y="21" on="1"/>
        <pt x="2397" y="13" on="0"/>
        <pt x="2384" y="0" on="0"/>
        <pt x="2376" y="0" on="1"/>
        <pt x="1919" y="0" on="1"/>
        <pt x="1898" y="0" on="0"/>
        <pt x="1841" y="-5" on="0"/>
        <pt x="1815" y="-5" on="1"/>
        <pt x="1774" y="-5" on="1"/>
        <pt x="1763" y="-3" on="0"/>
        <pt x="1756" y="13" on="0"/>
        <pt x="1756" y="22" on="1"/>
        <pt x="1756" y="33" on="0"/>
        <pt x="1772" y="50" on="0"/>
        <pt x="1782" y="50" on="1"/>
        <pt x="1950" y="50" on="1"/>
        <pt x="1970" y="50" on="0"/>
        <pt x="1987" y="74" on="0"/>
        <pt x="1995" y="83" on="1"/>
        <pt x="2000" y="90" on="0"/>
        <pt x="2008" y="110" on="0"/>
        <pt x="2012" y="118" on="1"/>
        <pt x="2144" y="439" on="1"/>
        <pt x="2145" y="440" on="0"/>
        <pt x="2145" y="442" on="0"/>
        <pt x="2146" y="443" on="1"/>
        <pt x="2152" y="456" on="0"/>
        <pt x="2160" y="475" on="0"/>
        <pt x="2160" y="483" on="1"/>
        <pt x="2160" y="488" on="0"/>
        <pt x="2155" y="503" on="0"/>
        <pt x="2144" y="503" on="1"/>
        <pt x="1763" y="503" on="1"/>
        <pt x="1753" y="495" on="0"/>
        <pt x="1712" y="452" on="0"/>
        <pt x="1689" y="427" on="1"/>
        <pt x="1659" y="397" on="0"/>
        <pt x="1599" y="336" on="0"/>
        <pt x="1539" y="280" on="0"/>
        <pt x="1481" y="231" on="0"/>
        <pt x="1455" y="213" on="1"/>
        <pt x="1378" y="158" on="0"/>
        <pt x="1227" y="74" on="0"/>
        <pt x="1063" y="15" on="0"/>
        <pt x="880" y="-15" on="0"/>
        <pt x="772" y="-16" on="1"/>
        <pt x="709" y="-16" on="0"/>
        <pt x="580" y="5" on="0"/>
        <pt x="456" y="42" on="0"/>
        <pt x="343" y="94" on="0"/>
        <pt x="296" y="125" on="1"/>
        <pt x="245" y="159" on="0"/>
        <pt x="156" y="241" on="0"/>
        <pt x="90" y="337" on="0"/>
        <pt x="52" y="446" on="0"/>
        <pt x="52" y="507" on="1"/>
        <pt x="52" y="568" on="0"/>
        <pt x="83" y="674" on="0"/>
        <pt x="139" y="752" on="0"/>
        <pt x="218" y="796" on="0"/>
        <pt x="265" y="796" on="1"/>
        <pt x="283" y="796" on="0"/>
        <pt x="330" y="770" on="0"/>
        <pt x="374" y="732" on="0"/>
        <pt x="404" y="689" on="0"/>
        <pt x="404" y="671" on="1"/>
        <pt x="404" y="645" on="0"/>
        <pt x="389" y="607" on="0"/>
        <pt x="385" y="602" on="1"/>
        <pt x="357" y="572" on="0"/>
        <pt x="297" y="533" on="0"/>
        <pt x="255" y="533" on="1"/>
        <pt x="235" y="533" on="0"/>
        <pt x="200" y="547" on="0"/>
        <pt x="171" y="564" on="0"/>
        <pt x="148" y="578" on="0"/>
        <pt x="141" y="578" on="1"/>
        <pt x="131" y="578" on="0"/>
        <pt x="118" y="552" on="0"/>
        <pt x="111" y="517" on="0"/>
        <pt x="108" y="483" on="0"/>
        <pt x="108" y="474" on="1"/>
        <pt x="108" y="455" on="0"/>
        <pt x="116" y="406" on="0"/>
        <pt x="130" y="357" on="0"/>
        <pt x="150" y="311" on="0"/>
        <pt x="163" y="296" on="1"/>
        <pt x="200" y="245" on="0"/>
        <pt x="314" y="176" on="0"/>
        <pt x="448" y="133" on="0"/>
        <pt x="592" y="114" on="0"/>
        <pt x="661" y="114" on="1"/>
        <pt x="773" y="114" on="0"/>
        <pt x="996" y="154" on="0"/>
        <pt x="1116" y="197" on="1"/>
        <pt x="1197" y="227" on="0"/>
        <pt x="1339" y="303" on="0"/>
        <pt x="1471" y="390" on="0"/>
        <pt x="1596" y="487" on="0"/>
        <pt x="1658" y="538" on="1"/>
        <pt x="1688" y="563" on="0"/>
        <pt x="1784" y="645" on="0"/>
        <pt x="1897" y="745" on="0"/>
        <pt x="2020" y="858" on="0"/>
        <pt x="2077" y="913" on="1"/>
        <pt x="2144" y="979" on="0"/>
        <pt x="2286" y="1104" on="0"/>
        <pt x="2364" y="1164" on="1"/>
        <pt x="2402" y="1193" on="0"/>
        <pt x="2462" y="1236" on="0"/>
        <pt x="2514" y="1272" on="0"/>
        <pt x="2562" y="1306" on="0"/>
        <pt x="2616" y="1346" on="0"/>
        <pt x="2680" y="1398" on="0"/>
        <pt x="2722" y="1434" on="1"/>
        <pt x="2728" y="1434" on="0"/>
        <pt x="2737" y="1426" on="0"/>
        <pt x="2741" y="1416" on="0"/>
        <pt x="2743" y="1407" on="0"/>
      </contour>
    </TTGlyph>
    <TTGlyph name="AE" xMin="-161" yMin="-3" xMax="2112" yMax="1330">
      <contour>
        <pt x="676" y="564" on="1"/>
        <pt x="668" y="555" on="0"/>
        <pt x="664" y="541" on="0"/>
        <pt x="664" y="535" on="1"/>
        <pt x="664" y="531" on="0"/>
        <pt x="700" y="525" on="0"/>
        <pt x="755" y="521" on="0"/>
        <pt x="820" y="518" on="0"/>
        <pt x="878" y="516" on="0"/>
        <pt x="919" y="515" on="0"/>
        <pt x="923" y="514" on="1"/>
        <pt x="939" y="510" on="0"/>
        <pt x="953" y="505" on="0"/>
        <pt x="965" y="498" on="1"/>
        <pt x="983" y="498" on="0"/>
        <pt x="994" y="512" on="1"/>
        <pt x="1029" y="596" on="0"/>
        <pt x="1091" y="742" on="0"/>
        <pt x="1148" y="877" on="0"/>
        <pt x="1203" y="1003" on="0"/>
        <pt x="1230" y="1066" on="1"/>
        <pt x="1230" y="1073" on="1"/>
        <pt x="1221" y="1073" on="0"/>
        <pt x="1198" y="1064" on="0"/>
        <pt x="1192" y="1059" on="1"/>
        <pt x="1124" y="1001" on="0"/>
        <pt x="999" y="884" on="0"/>
        <pt x="875" y="761" on="0"/>
        <pt x="747" y="633" on="0"/>
      </contour>
      <contour>
        <pt x="602" y="17" on="1"/>
        <pt x="602" y="22" on="0"/>
        <pt x="603" y="24" on="1"/>
        <pt x="602" y="28" on="0"/>
        <pt x="602" y="33" on="1"/>
        <pt x="602" y="42" on="0"/>
        <pt x="611" y="66" on="0"/>
        <pt x="624" y="66" on="1"/>
        <pt x="636" y="66" on="0"/>
        <pt x="670" y="53" on="0"/>
        <pt x="704" y="48" on="1"/>
        <pt x="733" y="50" on="0"/>
        <pt x="787" y="61" on="0"/>
        <pt x="808" y="81" on="1"/>
        <pt x="831" y="124" on="0"/>
        <pt x="874" y="233" on="0"/>
        <pt x="897" y="287" on="1"/>
        <pt x="904" y="303" on="0"/>
        <pt x="917" y="328" on="0"/>
        <pt x="923" y="341" on="1"/>
        <pt x="934" y="367" on="0"/>
        <pt x="954" y="416" on="0"/>
        <pt x="965" y="439" on="1"/>
        <pt x="965" y="443" on="1"/>
        <pt x="965" y="458" on="0"/>
        <pt x="953" y="464" on="1"/>
        <pt x="940" y="469" on="0"/>
        <pt x="901" y="474" on="0"/>
        <pt x="885" y="474" on="1"/>
        <pt x="878" y="474" on="0"/>
        <pt x="853" y="472" on="0"/>
        <pt x="824" y="471" on="0"/>
        <pt x="795" y="469" on="0"/>
        <pt x="785" y="469" on="1"/>
        <pt x="740" y="469" on="0"/>
        <pt x="654" y="479" on="0"/>
        <pt x="617" y="479" on="1"/>
        <pt x="615" y="479" on="0"/>
        <pt x="595" y="478" on="0"/>
        <pt x="590" y="476" on="1"/>
        <pt x="585" y="474" on="0"/>
        <pt x="573" y="462" on="0"/>
        <pt x="562" y="452" on="1"/>
        <pt x="517" y="407" on="0"/>
        <pt x="432" y="323" on="0"/>
        <pt x="349" y="240" on="0"/>
        <pt x="266" y="154" on="0"/>
        <pt x="223" y="107" on="1"/>
        <pt x="218" y="102" on="0"/>
        <pt x="204" y="86" on="0"/>
        <pt x="204" y="81" on="1"/>
        <pt x="204" y="75" on="0"/>
        <pt x="217" y="66" on="0"/>
        <pt x="225" y="66" on="1"/>
        <pt x="231" y="66" on="0"/>
        <pt x="273" y="69" on="0"/>
        <pt x="331" y="73" on="0"/>
        <pt x="397" y="78" on="0"/>
        <pt x="458" y="83" on="0"/>
        <pt x="506" y="86" on="0"/>
        <pt x="517" y="86" on="1"/>
        <pt x="530" y="86" on="0"/>
        <pt x="543" y="79" on="0"/>
        <pt x="543" y="66" on="1"/>
        <pt x="543" y="52" on="0"/>
        <pt x="540" y="23" on="0"/>
        <pt x="536" y="12" on="1"/>
        <pt x="534" y="8" on="0"/>
        <pt x="510" y="5" on="0"/>
        <pt x="503" y="5" on="1"/>
        <pt x="486" y="5" on="0"/>
        <pt x="418" y="7" on="0"/>
        <pt x="385" y="7" on="1"/>
        <pt x="-66" y="7" on="1"/>
        <pt x="-80" y="7" on="0"/>
        <pt x="-100" y="2" on="0"/>
        <pt x="-111" y="2" on="1"/>
        <pt x="-124" y="2" on="0"/>
        <pt x="-148" y="5" on="0"/>
        <pt x="-153" y="10" on="1"/>
        <pt x="-158" y="15" on="0"/>
        <pt x="-161" y="41" on="0"/>
        <pt x="-161" y="45" on="1"/>
        <pt x="-161" y="49" on="0"/>
        <pt x="-160" y="65" on="0"/>
        <pt x="-156" y="81" on="0"/>
        <pt x="-149" y="93" on="0"/>
        <pt x="-142" y="93" on="1"/>
        <pt x="-125" y="93" on="0"/>
        <pt x="-87" y="87" on="0"/>
        <pt x="-49" y="79" on="0"/>
        <pt x="-16" y="73" on="0"/>
        <pt x="-4" y="73" on="1"/>
        <pt x="35" y="73" on="0"/>
        <pt x="97" y="101" on="0"/>
        <pt x="119" y="126" on="1"/>
        <pt x="135" y="144" on="0"/>
        <pt x="171" y="186" on="0"/>
        <pt x="207" y="225" on="0"/>
        <pt x="240" y="260" on="0"/>
        <pt x="252" y="272" on="1"/>
        <pt x="273" y="292" on="0"/>
        <pt x="374" y="383" on="0"/>
        <pt x="510" y="505" on="0"/>
        <pt x="670" y="647" on="0"/>
        <pt x="831" y="790" on="0"/>
        <pt x="983" y="923" on="0"/>
        <pt x="1101" y="1027" on="0"/>
        <pt x="1175" y="1091" on="0"/>
        <pt x="1179" y="1093" on="1"/>
        <pt x="1198" y="1105" on="0"/>
        <pt x="1243" y="1133" on="0"/>
        <pt x="1266" y="1150" on="1"/>
        <pt x="1279" y="1176" on="0"/>
        <pt x="1304" y="1223" on="0"/>
        <pt x="1314" y="1249" on="1"/>
        <pt x="1314" y="1259" on="0"/>
        <pt x="1274" y="1272" on="0"/>
        <pt x="1222" y="1281" on="0"/>
        <pt x="1173" y="1285" on="0"/>
        <pt x="1164" y="1285" on="1"/>
        <pt x="1158" y="1285" on="0"/>
        <pt x="1133" y="1286" on="0"/>
        <pt x="1107" y="1290" on="0"/>
        <pt x="1088" y="1298" on="0"/>
        <pt x="1088" y="1306" on="1"/>
        <pt x="1088" y="1313" on="0"/>
        <pt x="1101" y="1321" on="0"/>
        <pt x="1119" y="1324" on="0"/>
        <pt x="1136" y="1325" on="0"/>
        <pt x="1140" y="1325" on="1"/>
        <pt x="1148" y="1325" on="0"/>
        <pt x="1214" y="1322" on="0"/>
        <pt x="1294" y="1319" on="0"/>
        <pt x="1369" y="1317" on="0"/>
        <pt x="1387" y="1317" on="1"/>
        <pt x="1430" y="1317" on="0"/>
        <pt x="1522" y="1321" on="0"/>
        <pt x="1612" y="1326" on="0"/>
        <pt x="1699" y="1330" on="0"/>
        <pt x="1738" y="1330" on="1"/>
        <pt x="1779" y="1330" on="0"/>
        <pt x="1871" y="1329" on="0"/>
        <pt x="1961" y="1328" on="0"/>
        <pt x="2043" y="1327" on="0"/>
        <pt x="2074" y="1327" on="1"/>
        <pt x="2112" y="1327" on="0"/>
        <pt x="2112" y="1322" on="1"/>
        <pt x="2112" y="1296" on="0"/>
        <pt x="2097" y="1258" on="0"/>
        <pt x="2088" y="1233" on="1"/>
        <pt x="2074" y="1184" on="0"/>
        <pt x="2050" y="1087" on="0"/>
        <pt x="2036" y="1036" on="1"/>
        <pt x="2034" y="1027" on="0"/>
        <pt x="2028" y="1010" on="0"/>
        <pt x="2024" y="1010" on="1"/>
        <pt x="2022" y="1010" on="0"/>
        <pt x="2019" y="1022" on="0"/>
        <pt x="2015" y="1040" on="0"/>
        <pt x="2012" y="1061" on="0"/>
        <pt x="2010" y="1071" on="1"/>
        <pt x="2006" y="1095" on="0"/>
        <pt x="2002" y="1137" on="0"/>
        <pt x="1995" y="1176" on="0"/>
        <pt x="1980" y="1213" on="0"/>
        <pt x="1965" y="1233" on="1"/>
        <pt x="1954" y="1250" on="0"/>
        <pt x="1929" y="1267" on="0"/>
        <pt x="1911" y="1273" on="1"/>
        <pt x="1884" y="1282" on="0"/>
        <pt x="1817" y="1292" on="0"/>
        <pt x="1744" y="1296" on="0"/>
        <pt x="1670" y="1297" on="0"/>
        <pt x="1636" y="1297" on="1"/>
        <pt x="1610" y="1297" on="0"/>
        <pt x="1551" y="1296" on="0"/>
        <pt x="1529" y="1291" on="1"/>
        <pt x="1522" y="1284" on="0"/>
        <pt x="1508" y="1265" on="0"/>
        <pt x="1501" y="1256" on="1"/>
        <pt x="1495" y="1242" on="0"/>
        <pt x="1476" y="1204" on="0"/>
        <pt x="1467" y="1189" on="1"/>
        <pt x="1423" y="1074" on="0"/>
        <pt x="1325" y="855" on="0"/>
        <pt x="1280" y="739" on="1"/>
        <pt x="1275" y="725" on="0"/>
        <pt x="1275" y="713" on="1"/>
        <pt x="1275" y="709" on="0"/>
        <pt x="1282" y="699" on="0"/>
        <pt x="1288" y="699" on="1"/>
        <pt x="1293" y="699" on="0"/>
        <pt x="1364" y="701" on="0"/>
        <pt x="1460" y="702" on="0"/>
        <pt x="1564" y="704" on="0"/>
        <pt x="1602" y="704" on="1"/>
        <pt x="1642" y="720" on="0"/>
        <pt x="1698" y="758" on="0"/>
        <pt x="1721" y="792" on="1"/>
        <pt x="1731" y="806" on="0"/>
        <pt x="1758" y="862" on="0"/>
        <pt x="1788" y="918" on="0"/>
        <pt x="1815" y="960" on="0"/>
        <pt x="1825" y="960" on="1"/>
        <pt x="1834" y="960" on="0"/>
        <pt x="1840" y="954" on="0"/>
        <pt x="1840" y="945" on="1"/>
        <pt x="1839" y="939" on="0"/>
        <pt x="1830" y="914" on="0"/>
        <pt x="1819" y="886" on="0"/>
        <pt x="1809" y="861" on="0"/>
        <pt x="1806" y="855" on="1"/>
        <pt x="1802" y="848" on="0"/>
        <pt x="1790" y="817" on="0"/>
        <pt x="1777" y="781" on="0"/>
        <pt x="1764" y="746" on="0"/>
        <pt x="1759" y="734" on="1"/>
        <pt x="1738" y="677" on="0"/>
        <pt x="1693" y="576" on="0"/>
        <pt x="1671" y="517" on="1"/>
        <pt x="1664" y="497" on="0"/>
        <pt x="1647" y="442" on="0"/>
        <pt x="1630" y="392" on="0"/>
        <pt x="1612" y="356" on="0"/>
        <pt x="1603" y="356" on="1"/>
        <pt x="1588" y="356" on="0"/>
        <pt x="1588" y="372" on="1"/>
        <pt x="1588" y="380" on="0"/>
        <pt x="1597" y="419" on="0"/>
        <pt x="1609" y="469" on="0"/>
        <pt x="1620" y="525" on="0"/>
        <pt x="1622" y="550" on="1"/>
        <pt x="1622" y="581" on="0"/>
        <pt x="1615" y="630" on="0"/>
        <pt x="1596" y="635" on="1"/>
        <pt x="1573" y="641" on="0"/>
        <pt x="1507" y="650" on="0"/>
        <pt x="1436" y="654" on="0"/>
        <pt x="1368" y="656" on="0"/>
        <pt x="1344" y="656" on="1"/>
        <pt x="1314" y="656" on="0"/>
        <pt x="1271" y="655" on="0"/>
        <pt x="1257" y="652" on="1"/>
        <pt x="1252" y="650" on="0"/>
        <pt x="1236" y="640" on="0"/>
        <pt x="1231" y="635" on="1"/>
        <pt x="1223" y="619" on="0"/>
        <pt x="1208" y="583" on="0"/>
        <pt x="1197" y="554" on="1"/>
        <pt x="1169" y="483" on="0"/>
        <pt x="1097" y="310" on="0"/>
        <pt x="1062" y="225" on="1"/>
        <pt x="1057" y="213" on="0"/>
        <pt x="1039" y="180" on="0"/>
        <pt x="1020" y="140" on="0"/>
        <pt x="1005" y="94" on="0"/>
        <pt x="1005" y="69" on="1"/>
        <pt x="1005" y="48" on="0"/>
        <pt x="1017" y="48" on="1"/>
        <pt x="1271" y="48" on="1"/>
        <pt x="1283" y="48" on="0"/>
        <pt x="1345" y="49" on="0"/>
        <pt x="1415" y="52" on="0"/>
        <pt x="1479" y="56" on="0"/>
        <pt x="1494" y="59" on="1"/>
        <pt x="1527" y="64" on="0"/>
        <pt x="1572" y="76" on="0"/>
        <pt x="1606" y="92" on="0"/>
        <pt x="1633" y="112" on="0"/>
        <pt x="1648" y="126" on="1"/>
        <pt x="1694" y="164" on="0"/>
        <pt x="1777" y="265" on="0"/>
        <pt x="1816" y="313" on="1"/>
        <pt x="1831" y="329" on="0"/>
        <pt x="1839" y="329" on="1"/>
        <pt x="1847" y="329" on="0"/>
        <pt x="1847" y="310" on="1"/>
        <pt x="1847" y="301" on="0"/>
        <pt x="1833" y="257" on="0"/>
        <pt x="1814" y="202" on="0"/>
        <pt x="1793" y="142" on="0"/>
        <pt x="1785" y="118" on="1"/>
        <pt x="1781" y="106" on="0"/>
        <pt x="1775" y="70" on="0"/>
        <pt x="1763" y="37" on="0"/>
        <pt x="1743" y="14" on="0"/>
        <pt x="1726" y="14" on="1"/>
        <pt x="1671" y="14" on="0"/>
        <pt x="1557" y="11" on="0"/>
        <pt x="1447" y="6" on="0"/>
        <pt x="1347" y="3" on="0"/>
        <pt x="1307" y="3" on="1"/>
        <pt x="1301" y="3" on="0"/>
        <pt x="1286" y="2" on="0"/>
        <pt x="1258" y="1" on="0"/>
        <pt x="1211" y="0" on="0"/>
        <pt x="1173" y="0" on="1"/>
        <pt x="726" y="0" on="1"/>
        <pt x="718" y="0" on="0"/>
        <pt x="693" y="-1" on="0"/>
        <pt x="666" y="-2" on="0"/>
        <pt x="638" y="-3" on="0"/>
        <pt x="626" y="-3" on="1"/>
        <pt x="615" y="-3" on="0"/>
        <pt x="602" y="4" on="0"/>
      </contour>
    </TTGlyph>
    <TTGlyph name="AE.swash" xMin="45" yMin="-24" xMax="2953" yMax="1443">
      <contour>
        <pt x="1756" y="739" on="1"/>
        <pt x="1756" y="723" on="0"/>
        <pt x="1772" y="716" on="0"/>
        <pt x="1795" y="716" on="1"/>
        <pt x="2051" y="716" on="1"/>
        <pt x="2070" y="716" on="0"/>
        <pt x="2088" y="743" on="0"/>
        <pt x="2093" y="761" on="1"/>
        <pt x="2095" y="767" on="0"/>
        <pt x="2112" y="817" on="0"/>
        <pt x="2139" y="892" on="0"/>
        <pt x="2172" y="985" on="0"/>
        <pt x="2206" y="1083" on="0"/>
        <pt x="2239" y="1178" on="0"/>
        <pt x="2266" y="1257" on="0"/>
        <pt x="2285" y="1313" on="0"/>
        <pt x="2288" y="1322" on="1"/>
        <pt x="2288" y="1327" on="0"/>
        <pt x="2278" y="1330" on="0"/>
        <pt x="2273" y="1330" on="1"/>
        <pt x="2269" y="1330" on="0"/>
        <pt x="2255" y="1324" on="0"/>
        <pt x="2239" y="1315" on="0"/>
        <pt x="2224" y="1304" on="0"/>
        <pt x="2219" y="1299" on="1"/>
        <pt x="2211" y="1291" on="0"/>
        <pt x="2163" y="1237" on="0"/>
        <pt x="2095" y="1157" on="0"/>
        <pt x="2014" y="1060" on="0"/>
        <pt x="1931" y="961" on="0"/>
        <pt x="1853" y="866" on="0"/>
        <pt x="1792" y="791" on="0"/>
        <pt x="1756" y="743" on="0"/>
      </contour>
      <contour>
        <pt x="301" y="785" on="1"/>
        <pt x="331" y="785" on="0"/>
        <pt x="386" y="764" on="0"/>
        <pt x="427" y="727" on="0"/>
        <pt x="451" y="676" on="0"/>
        <pt x="451" y="645" on="1"/>
        <pt x="451" y="617" on="0"/>
        <pt x="428" y="572" on="0"/>
        <pt x="391" y="539" on="0"/>
        <pt x="342" y="521" on="0"/>
        <pt x="316" y="521" on="1"/>
        <pt x="293" y="521" on="0"/>
        <pt x="261" y="554" on="0"/>
        <pt x="237" y="595" on="0"/>
        <pt x="217" y="628" on="0"/>
        <pt x="204" y="628" on="1"/>
        <pt x="184" y="628" on="0"/>
        <pt x="151" y="602" on="0"/>
        <pt x="127" y="556" on="0"/>
        <pt x="114" y="494" on="0"/>
        <pt x="114" y="458" on="1"/>
        <pt x="114" y="429" on="0"/>
        <pt x="126" y="372" on="0"/>
        <pt x="147" y="320" on="0"/>
        <pt x="174" y="277" on="0"/>
        <pt x="188" y="263" on="1"/>
        <pt x="220" y="230" on="0"/>
        <pt x="299" y="171" on="0"/>
        <pt x="397" y="126" on="0"/>
        <pt x="516" y="100" on="0"/>
        <pt x="588" y="100" on="1"/>
        <pt x="661" y="100" on="0"/>
        <pt x="823" y="141" on="0"/>
        <pt x="985" y="207" on="0"/>
        <pt x="1138" y="289" on="0"/>
        <pt x="1202" y="330" on="1"/>
        <pt x="1219" y="341" on="0"/>
        <pt x="1276" y="387" on="0"/>
        <pt x="1345" y="447" on="0"/>
        <pt x="1420" y="514" on="0"/>
        <pt x="1489" y="577" on="0"/>
        <pt x="1545" y="630" on="0"/>
        <pt x="1562" y="647" on="1"/>
        <pt x="1597" y="682" on="0"/>
        <pt x="1668" y="761" on="0"/>
        <pt x="1702" y="799" on="1"/>
        <pt x="1742" y="846" on="0"/>
        <pt x="1812" y="929" on="0"/>
        <pt x="1852" y="976" on="1"/>
        <pt x="1890" y="1019" on="0"/>
        <pt x="1972" y="1108" on="0"/>
        <pt x="2017" y="1154" on="1"/>
        <pt x="2049" y="1188" on="0"/>
        <pt x="2123" y="1260" on="0"/>
        <pt x="2198" y="1325" on="0"/>
        <pt x="2270" y="1378" on="0"/>
        <pt x="2299" y="1393" on="1"/>
        <pt x="2314" y="1399" on="0"/>
        <pt x="2339" y="1410" on="0"/>
        <pt x="2365" y="1419" on="0"/>
        <pt x="2397" y="1426" on="0"/>
        <pt x="2418" y="1429" on="1"/>
        <pt x="2472" y="1437" on="0"/>
        <pt x="2558" y="1443" on="0"/>
        <pt x="2600" y="1443" on="1"/>
        <pt x="2627" y="1443" on="0"/>
        <pt x="2690" y="1442" on="0"/>
        <pt x="2752" y="1437" on="0"/>
        <pt x="2808" y="1428" on="0"/>
        <pt x="2828" y="1420" on="1"/>
        <pt x="2851" y="1411" on="0"/>
        <pt x="2896" y="1380" on="0"/>
        <pt x="2931" y="1340" on="0"/>
        <pt x="2953" y="1293" on="0"/>
        <pt x="2953" y="1268" on="1"/>
        <pt x="2953" y="1247" on="0"/>
        <pt x="2941" y="1202" on="0"/>
        <pt x="2917" y="1165" on="0"/>
        <pt x="2879" y="1142" on="0"/>
        <pt x="2852" y="1142" on="1"/>
        <pt x="2812" y="1142" on="0"/>
        <pt x="2752" y="1185" on="0"/>
        <pt x="2752" y="1228" on="1"/>
        <pt x="2752" y="1241" on="0"/>
        <pt x="2762" y="1262" on="0"/>
        <pt x="2773" y="1282" on="0"/>
        <pt x="2783" y="1301" on="0"/>
        <pt x="2783" y="1313" on="1"/>
        <pt x="2783" y="1322" on="0"/>
        <pt x="2769" y="1350" on="0"/>
        <pt x="2749" y="1378" on="0"/>
        <pt x="2724" y="1398" on="0"/>
        <pt x="2714" y="1400" on="1"/>
        <pt x="2697" y="1402" on="0"/>
        <pt x="2669" y="1405" on="0"/>
        <pt x="2652" y="1405" on="1"/>
        <pt x="2601" y="1405" on="0"/>
        <pt x="2526" y="1393" on="0"/>
        <pt x="2508" y="1365" on="1"/>
        <pt x="2476" y="1317" on="0"/>
        <pt x="2423" y="1204" on="0"/>
        <pt x="2403" y="1145" on="1"/>
        <pt x="2281" y="791" on="1"/>
        <pt x="2279" y="783" on="0"/>
        <pt x="2275" y="767" on="0"/>
        <pt x="2275" y="756" on="1"/>
        <pt x="2275" y="746" on="0"/>
        <pt x="2278" y="734" on="1"/>
        <pt x="2294" y="726" on="0"/>
        <pt x="2346" y="721" on="0"/>
        <pt x="2366" y="721" on="1"/>
        <pt x="2423" y="721" on="0"/>
        <pt x="2525" y="731" on="0"/>
        <pt x="2584" y="742" on="1"/>
        <pt x="2601" y="745" on="0"/>
        <pt x="2643" y="755" on="0"/>
        <pt x="2659" y="766" on="1"/>
        <pt x="2678" y="779" on="0"/>
        <pt x="2714" y="828" on="0"/>
        <pt x="2745" y="883" on="0"/>
        <pt x="2770" y="936" on="0"/>
        <pt x="2778" y="953" on="1"/>
        <pt x="2788" y="979" on="0"/>
        <pt x="2799" y="979" on="1"/>
        <pt x="2812" y="979" on="0"/>
        <pt x="2830" y="967" on="0"/>
        <pt x="2830" y="953" on="1"/>
        <pt x="2830" y="947" on="0"/>
        <pt x="2825" y="927" on="0"/>
        <pt x="2817" y="906" on="0"/>
        <pt x="2810" y="886" on="0"/>
        <pt x="2807" y="879" on="1"/>
        <pt x="2793" y="844" on="0"/>
        <pt x="2767" y="778" on="0"/>
        <pt x="2742" y="713" on="0"/>
        <pt x="2719" y="647" on="0"/>
        <pt x="2709" y="611" on="1"/>
        <pt x="2691" y="551" on="0"/>
        <pt x="2662" y="429" on="0"/>
        <pt x="2641" y="370" on="1"/>
        <pt x="2637" y="359" on="0"/>
        <pt x="2620" y="351" on="0"/>
        <pt x="2612" y="351" on="1"/>
        <pt x="2601" y="351" on="0"/>
        <pt x="2582" y="359" on="0"/>
        <pt x="2582" y="370" on="1"/>
        <pt x="2582" y="386" on="0"/>
        <pt x="2592" y="424" on="0"/>
        <pt x="2605" y="464" on="0"/>
        <pt x="2615" y="507" on="0"/>
        <pt x="2615" y="529" on="1"/>
        <pt x="2615" y="570" on="0"/>
        <pt x="2602" y="618" on="0"/>
        <pt x="2593" y="637" on="1"/>
        <pt x="2586" y="649" on="0"/>
        <pt x="2547" y="663" on="0"/>
        <pt x="2491" y="670" on="0"/>
        <pt x="2423" y="671" on="0"/>
        <pt x="2387" y="671" on="1"/>
        <pt x="2271" y="671" on="1"/>
        <pt x="2255" y="671" on="0"/>
        <pt x="2238" y="645" on="0"/>
        <pt x="2231" y="628" on="1"/>
        <pt x="2212" y="574" on="0"/>
        <pt x="2178" y="470" on="0"/>
        <pt x="2145" y="367" on="0"/>
        <pt x="2111" y="260" on="0"/>
        <pt x="2093" y="202" on="1"/>
        <pt x="2088" y="187" on="0"/>
        <pt x="2072" y="153" on="0"/>
        <pt x="2055" y="118" on="0"/>
        <pt x="2043" y="82" on="0"/>
        <pt x="2043" y="66" on="1"/>
        <pt x="2043" y="58" on="0"/>
        <pt x="2050" y="45" on="0"/>
        <pt x="2057" y="45" on="1"/>
        <pt x="2094" y="45" on="0"/>
        <pt x="2191" y="47" on="0"/>
        <pt x="2294" y="48" on="0"/>
        <pt x="2395" y="50" on="0"/>
        <pt x="2437" y="50" on="1"/>
        <pt x="2471" y="50" on="0"/>
        <pt x="2544" y="61" on="0"/>
        <pt x="2617" y="85" on="0"/>
        <pt x="2686" y="121" on="0"/>
        <pt x="2716" y="145" on="1"/>
        <pt x="2750" y="174" on="0"/>
        <pt x="2814" y="247" on="0"/>
        <pt x="2837" y="287" on="1"/>
        <pt x="2857" y="325" on="0"/>
        <pt x="2894" y="374" on="0"/>
        <pt x="2920" y="374" on="1"/>
        <pt x="2920" y="339" on="0"/>
        <pt x="2904" y="267" on="0"/>
        <pt x="2882" y="197" on="0"/>
        <pt x="2857" y="128" on="0"/>
        <pt x="2847" y="95" on="1"/>
        <pt x="2838" y="70" on="0"/>
        <pt x="2828" y="20" on="0"/>
        <pt x="2807" y="0" on="1"/>
        <pt x="2710" y="-8" on="0"/>
        <pt x="2522" y="-10" on="0"/>
        <pt x="2427" y="-10" on="1"/>
        <pt x="2291" y="-10" on="0"/>
        <pt x="2096" y="-12" on="0"/>
        <pt x="1955" y="-15" on="0"/>
        <pt x="1859" y="-19" on="0"/>
        <pt x="1788" y="-22" on="0"/>
        <pt x="1730" y="-24" on="0"/>
        <pt x="1698" y="-24" on="1"/>
        <pt x="1615" y="-24" on="1"/>
        <pt x="1602" y="-24" on="0"/>
        <pt x="1593" y="-9" on="0"/>
        <pt x="1593" y="-5" on="1"/>
        <pt x="1593" y="3" on="0"/>
        <pt x="1604" y="20" on="0"/>
        <pt x="1615" y="22" on="1"/>
        <pt x="1641" y="27" on="0"/>
        <pt x="1722" y="35" on="0"/>
        <pt x="1761" y="42" on="1"/>
        <pt x="1781" y="44" on="0"/>
        <pt x="1822" y="55" on="0"/>
        <pt x="1835" y="69" on="1"/>
        <pt x="1848" y="82" on="0"/>
        <pt x="1867" y="126" on="0"/>
        <pt x="1875" y="151" on="1"/>
        <pt x="1897" y="213" on="0"/>
        <pt x="1937" y="324" on="0"/>
        <pt x="1975" y="431" on="0"/>
        <pt x="2011" y="538" on="0"/>
        <pt x="2031" y="597" on="1"/>
        <pt x="2033" y="605" on="0"/>
        <pt x="2038" y="620" on="0"/>
        <pt x="2038" y="626" on="1"/>
        <pt x="2038" y="637" on="0"/>
        <pt x="2024" y="647" on="1"/>
        <pt x="2021" y="649" on="0"/>
        <pt x="2006" y="652" on="0"/>
        <pt x="1986" y="652" on="1"/>
        <pt x="1692" y="652" on="1"/>
        <pt x="1691" y="652" on="0"/>
        <pt x="1671" y="625" on="0"/>
        <pt x="1640" y="583" on="0"/>
        <pt x="1604" y="534" on="0"/>
        <pt x="1572" y="491" on="0"/>
        <pt x="1550" y="460" on="0"/>
        <pt x="1548" y="458" on="1"/>
        <pt x="1497" y="405" on="0"/>
        <pt x="1390" y="289" on="0"/>
        <pt x="1339" y="244" on="1"/>
        <pt x="1304" y="214" on="0"/>
        <pt x="1237" y="159" on="0"/>
        <pt x="1166" y="109" on="0"/>
        <pt x="1087" y="66" on="0"/>
        <pt x="1041" y="47" on="1"/>
        <pt x="1002" y="30" on="0"/>
        <pt x="915" y="4" on="0"/>
        <pt x="826" y="-14" on="0"/>
        <pt x="739" y="-24" on="0"/>
        <pt x="699" y="-24" on="1"/>
        <pt x="631" y="-24" on="0"/>
        <pt x="487" y="9" on="0"/>
        <pt x="345" y="74" on="0"/>
        <pt x="209" y="167" on="0"/>
        <pt x="150" y="227" on="1"/>
        <pt x="114" y="264" on="0"/>
        <pt x="72" y="341" on="0"/>
        <pt x="51" y="422" on="0"/>
        <pt x="45" y="506" on="0"/>
        <pt x="45" y="550" on="1"/>
        <pt x="45" y="565" on="0"/>
        <pt x="60" y="611" on="0"/>
        <pt x="81" y="658" on="0"/>
        <pt x="106" y="698" on="0"/>
        <pt x="115" y="708" on="1"/>
        <pt x="137" y="730" on="0"/>
        <pt x="187" y="760" on="0"/>
        <pt x="237" y="778" on="0"/>
        <pt x="283" y="785" on="0"/>
      </contour>
    </TTGlyph>
    <TTGlyph name="Aacute" xMin="-215" yMin="-38" xMax="1879" yMax="1829">
      <component glyphName="A" x="0" y="0" flags="0x204"/>
      <component glyphName="Acute" x="1113" y="-39" flags="0x4"/>
    </TTGlyph>
    <TTGlyph name="Aacute.swash" xMin="52" yMin="-16" xMax="3109" yMax="1809">
      <component glyphName="A.swash" x="0" y="0" flags="0x204"/>
      <component glyphName="Acute" x="2343" y="-59" flags="0x4"/>
    </TTGlyph>
    <TTGlyph name="Abreve" xMin="-215" yMin="-38" xMax="1789" yMax="1868">
      <component glyphName="A" x="0" y="0" flags="0x204"/>
      <component glyphName="Breve" x="695" y="0" flags="0x4"/>
    </TTGlyph>
    <TTGlyph name="Abreve.swash" xMin="52" yMin="-16" xMax="3003" yMax="1809">
      <component glyphName="A.swash" x="0" y="0" flags="0x204"/>
      <component glyphName="Breve" x="1909" y="-59" flags="0x4"/>
    </TTGlyph>
    <TTGlyph name="Acircumflex" xMin="-215" yMin="-38" xMax="1639" yMax="1868">
      <component glyphName="A" x="0" y="0" flags="0x204"/>
      <component glyphName="Circumflex" x="608" y="0" flags="0x4"/>
    </TTGlyph>
    <TTGlyph name="Acircumflex.swash" xMin="52" yMin="-16" xMax="2863" yMax="1809">
      <component glyphName="A.swash" x="0" y="0" flags="0x204"/>
      <component glyphName="Circumflex" x="1832" y="-59" flags="0x4"/>
    </TTGlyph>
    <TTGlyph name="Acute" xMin="299" yMin="1554" xMax="766" yMax="1868">
      <contour>
        <pt x="760" y="1772" on="1"/>
        <pt x="752" y="1752" on="0"/>
        <pt x="704" y="1711" on="0"/>
        <pt x="666" y="1697" on="1"/>
        <pt x="627" y="1682" on="0"/>
        <pt x="545" y="1648" on="0"/>
        <pt x="464" y="1612" on="0"/>
        <pt x="389" y="1577" on="0"/>
        <pt x="358" y="1562" on="1"/>
        <pt x="351" y="1559" on="0"/>
        <pt x="336" y="1554" on="0"/>
        <pt x="330" y="1554" on="1"/>
        <pt x="326" y="1554" on="1"/>
        <pt x="318" y="1555" on="0"/>
        <pt x="299" y="1573" on="0"/>
        <pt x="301" y="1583" on="1"/>
        <pt x="302" y="1585" on="0"/>
        <pt x="304" y="1592" on="0"/>
        <pt x="306" y="1594" on="1"/>
        <pt x="340" y="1628" on="0"/>
        <pt x="491" y="1748" on="0"/>
        <pt x="610" y="1844" on="1"/>
        <pt x="638" y="1868" on="0"/>
        <pt x="678" y="1868" on="1"/>
        <pt x="683" y="1868" on="0"/>
        <pt x="693" y="1867" on="0"/>
        <pt x="698" y="1866" on="1"/>
        <pt x="707" y="1865" on="0"/>
        <pt x="718" y="1861" on="1"/>
        <pt x="744" y="1852" on="0"/>
        <pt x="766" y="1824" on="0"/>
        <pt x="766" y="1806" on="1"/>
        <pt x="766" y="1798" on="0"/>
        <pt x="765" y="1793" on="1"/>
        <pt x="764" y="1788" on="0"/>
        <pt x="762" y="1777" on="0"/>
      </contour>
    </TTGlyph>
    <TTGlyph name="Adieresis" xMin="-215" yMin="-38" xMax="1736" yMax="1862">
      <component glyphName="A" x="0" y="0" flags="0x204"/>
      <component glyphName="dieresis" x="668" y="467" flags="0x4"/>
    </TTGlyph>
    <TTGlyph name="Adieresis.swash" xMin="52" yMin="-16" xMax="2950" yMax="1862">
      <component glyphName="A.swash" x="0" y="0" flags="0x204"/>
      <component glyphName="dieresis" x="1882" y="467" flags="0x4"/>
    </TTGlyph>
    <TTGlyph name="Agrave" xMin="-215" yMin="-38" xMax="1513" yMax="1829">
      <component glyphName="A" x="0" y="0" flags="0x204"/>
      <component glyphName="Grave" x="1003" y="-39" flags="0x4"/>
    </TTGlyph>
    <TTGlyph name="Agrave.swash" xMin="52" yMin="-16" xMax="2743" yMax="1809">
      <component glyphName="A.swash" x="0" y="0" flags="0x204"/>
      <component glyphName="Grave" x="2217" y="-59" flags="0x4"/>
    </TTGlyph>
    <TTGlyph name="Amacron" xMin="-215" yMin="-38" xMax="1703" yMax="1688">
      <component glyphName="A" x="0" y="0" flags="0x204"/>
      <component glyphName="Macron" x="597" y="-59" flags="0x4"/>
    </TTGlyph>
    <TTGlyph name="Amacron.swash" xMin="52" yMin="-16" xMax="2917" yMax="1688">
      <component glyphName="A.swash" x="0" y="0" flags="0x204"/>
      <component glyphName="Macron" x="1811" y="-59" flags="0x4"/>
    </TTGlyph>
    <TTGlyph name="Aogonek" xMin="-215" yMin="-522" xMax="1513" yMax="1398">
      <contour>
        <pt x="938" y="-434" on="1"/>
        <pt x="935" y="-445" on="0"/>
        <pt x="904" y="-476" on="0"/>
        <pt x="858" y="-503" on="0"/>
        <pt x="801" y="-522" on="0"/>
        <pt x="772" y="-522" on="1"/>
        <pt x="742" y="-522" on="0"/>
        <pt x="663" y="-514" on="0"/>
        <pt x="591" y="-487" on="0"/>
        <pt x="541" y="-433" on="0"/>
        <pt x="541" y="-387" on="1"/>
        <pt x="541" y="-360" on="0"/>
        <pt x="551" y="-327" on="1"/>
        <pt x="570" y="-266" on="0"/>
        <pt x="644" y="-168" on="0"/>
        <pt x="734" y="-89" on="0"/>
        <pt x="826" y="-30" on="0"/>
        <pt x="863" y="-8" on="1"/>
        <pt x="868" y="-5" on="0"/>
        <pt x="879" y="2" on="0"/>
        <pt x="885" y="5" on="1"/>
        <pt x="816" y="1" on="0"/>
        <pt x="678" y="-12" on="0"/>
        <pt x="606" y="-12" on="1"/>
        <pt x="604" y="-12" on="0"/>
        <pt x="589" y="-12" on="0"/>
        <pt x="572" y="-12" on="0"/>
        <pt x="556" y="-11" on="0"/>
        <pt x="553" y="-10" on="1"/>
        <pt x="551" y="-10" on="0"/>
        <pt x="542" y="3" on="0"/>
        <pt x="542" y="12" on="1"/>
        <pt x="542" y="19" on="0"/>
        <pt x="557" y="29" on="0"/>
        <pt x="561" y="31" on="1"/>
        <pt x="569" y="32" on="0"/>
        <pt x="610" y="35" on="0"/>
        <pt x="656" y="37" on="0"/>
        <pt x="698" y="39" on="0"/>
        <pt x="707" y="40" on="1"/>
        <pt x="743" y="40" on="1"/>
        <pt x="750" y="43" on="0"/>
        <pt x="765" y="63" on="0"/>
        <pt x="781" y="93" on="0"/>
        <pt x="797" y="128" on="0"/>
        <pt x="805" y="145" on="1"/>
        <pt x="808" y="153" on="0"/>
        <pt x="825" y="194" on="0"/>
        <pt x="848" y="251" on="0"/>
        <pt x="875" y="320" on="0"/>
        <pt x="904" y="394" on="0"/>
        <pt x="933" y="468" on="0"/>
        <pt x="946" y="502" on="1"/>
        <pt x="950" y="513" on="0"/>
        <pt x="957" y="538" on="0"/>
        <pt x="961" y="548" on="1"/>
        <pt x="961" y="555" on="1"/>
        <pt x="961" y="558" on="0"/>
        <pt x="957" y="564" on="0"/>
        <pt x="954" y="569" on="1"/>
        <pt x="949" y="572" on="0"/>
        <pt x="934" y="574" on="0"/>
        <pt x="916" y="574" on="1"/>
        <pt x="834" y="574" on="0"/>
        <pt x="666" y="562" on="0"/>
        <pt x="584" y="562" on="1"/>
        <pt x="568" y="562" on="0"/>
        <pt x="539" y="558" on="0"/>
        <pt x="529" y="548" on="1"/>
        <pt x="526" y="545" on="0"/>
        <pt x="509" y="530" on="0"/>
        <pt x="491" y="512" on="0"/>
        <pt x="474" y="495" on="0"/>
        <pt x="470" y="491" on="1"/>
        <pt x="428" y="444" on="0"/>
        <pt x="341" y="353" on="0"/>
        <pt x="257" y="260" on="0"/>
        <pt x="177" y="162" on="0"/>
        <pt x="141" y="109" on="1"/>
        <pt x="136" y="101" on="0"/>
        <pt x="134" y="87" on="0"/>
        <pt x="134" y="76" on="1"/>
        <pt x="134" y="59" on="0"/>
        <pt x="167" y="38" on="0"/>
        <pt x="217" y="26" on="0"/>
        <pt x="274" y="20" on="0"/>
        <pt x="324" y="14" on="0"/>
        <pt x="357" y="7" on="0"/>
        <pt x="357" y="0" on="1"/>
        <pt x="357" y="-8" on="0"/>
        <pt x="353" y="-20" on="0"/>
        <pt x="344" y="-22" on="1"/>
        <pt x="285" y="-22" on="1"/>
        <pt x="216" y="-22" on="0"/>
        <pt x="77" y="-29" on="0"/>
        <pt x="8" y="-31" on="1"/>
        <pt x="-43" y="-34" on="0"/>
        <pt x="-141" y="-38" on="0"/>
        <pt x="-191" y="-38" on="1"/>
        <pt x="-202" y="-38" on="0"/>
        <pt x="-215" y="-22" on="0"/>
        <pt x="-215" y="-17" on="1"/>
        <pt x="-215" y="-15" on="0"/>
        <pt x="-209" y="1" on="0"/>
        <pt x="-201" y="3" on="1"/>
        <pt x="-161" y="10" on="0"/>
        <pt x="-110" y="36" on="0"/>
        <pt x="-89" y="47" on="1"/>
        <pt x="-39" y="71" on="0"/>
        <pt x="49" y="141" on="0"/>
        <pt x="129" y="221" on="0"/>
        <pt x="204" y="306" on="0"/>
        <pt x="241" y="346" on="1"/>
        <pt x="290" y="396" on="0"/>
        <pt x="446" y="547" on="0"/>
        <pt x="648" y="741" on="0"/>
        <pt x="889" y="971" on="0"/>
        <pt x="1023" y="1100" on="1"/>
        <pt x="1090" y="1160" on="0"/>
        <pt x="1224" y="1277" on="0"/>
        <pt x="1290" y="1337" on="1"/>
        <pt x="1298" y="1342" on="0"/>
        <pt x="1315" y="1346" on="0"/>
        <pt x="1323" y="1346" on="1"/>
        <pt x="1334" y="1346" on="0"/>
        <pt x="1356" y="1342" on="0"/>
        <pt x="1368" y="1342" on="1"/>
        <pt x="1381" y="1342" on="0"/>
        <pt x="1392" y="1348" on="1"/>
        <pt x="1397" y="1351" on="0"/>
        <pt x="1423" y="1364" on="0"/>
        <pt x="1451" y="1378" on="0"/>
        <pt x="1475" y="1391" on="0"/>
        <pt x="1480" y="1394" on="1"/>
        <pt x="1482" y="1394" on="0"/>
        <pt x="1492" y="1398" on="0"/>
        <pt x="1494" y="1398" on="1"/>
        <pt x="1507" y="1398" on="0"/>
        <pt x="1513" y="1383" on="0"/>
        <pt x="1513" y="1372" on="1"/>
        <pt x="1513" y="1362" on="1"/>
        <pt x="1499" y="1327" on="0"/>
        <pt x="1456" y="1262" on="0"/>
        <pt x="1442" y="1228" on="1"/>
        <pt x="1437" y="1208" on="0"/>
        <pt x="1421" y="1165" on="0"/>
        <pt x="1388" y="1085" on="0"/>
        <pt x="1332" y="954" on="0"/>
        <pt x="1244" y="739" on="0"/>
        <pt x="1117" y="427" on="0"/>
        <pt x="1029" y="206" on="1"/>
        <pt x="1020" y="186" on="0"/>
        <pt x="999" y="149" on="0"/>
        <pt x="981" y="112" on="0"/>
        <pt x="970" y="72" on="0"/>
        <pt x="970" y="50" on="1"/>
        <pt x="1157" y="50" on="1"/>
        <pt x="1163" y="50" on="0"/>
        <pt x="1170" y="26" on="0"/>
        <pt x="1170" y="21" on="1"/>
        <pt x="1170" y="8" on="0"/>
        <pt x="1157" y="2" on="1"/>
        <pt x="1111" y="3" on="0"/>
        <pt x="1022" y="6" on="0"/>
        <pt x="977" y="7" on="1"/>
        <pt x="930" y="-28" on="0"/>
        <pt x="852" y="-90" on="0"/>
        <pt x="791" y="-156" on="0"/>
        <pt x="746" y="-231" on="0"/>
        <pt x="731" y="-278" on="1"/>
        <pt x="726" y="-294" on="0"/>
        <pt x="721" y="-324" on="0"/>
        <pt x="721" y="-338" on="1"/>
        <pt x="721" y="-379" on="0"/>
        <pt x="766" y="-432" on="0"/>
        <pt x="816" y="-432" on="1"/>
        <pt x="837" y="-432" on="0"/>
        <pt x="872" y="-423" on="0"/>
        <pt x="899" y="-411" on="0"/>
        <pt x="920" y="-402" on="0"/>
        <pt x="926" y="-402" on="1"/>
        <pt x="940" y="-402" on="0"/>
        <pt x="940" y="-418" on="1"/>
        <pt x="940" y="-424" on="0"/>
      </contour>
      <contour>
        <pt x="641" y="638" on="1"/>
        <pt x="641" y="632" on="0"/>
        <pt x="646" y="625" on="0"/>
        <pt x="655" y="625" on="1"/>
        <pt x="752" y="625" on="1"/>
        <pt x="809" y="625" on="0"/>
        <pt x="917" y="626" on="0"/>
        <pt x="980" y="631" on="1"/>
        <pt x="988" y="633" on="0"/>
        <pt x="1010" y="670" on="0"/>
        <pt x="1023" y="699" on="1"/>
        <pt x="1061" y="788" on="0"/>
        <pt x="1116" y="913" on="0"/>
        <pt x="1162" y="1021" on="0"/>
        <pt x="1206" y="1130" on="0"/>
        <pt x="1233" y="1202" on="1"/>
        <pt x="1234" y="1207" on="0"/>
        <pt x="1236" y="1215" on="0"/>
        <pt x="1236" y="1220" on="1"/>
        <pt x="1236" y="1225" on="0"/>
        <pt x="1233" y="1228" on="1"/>
        <pt x="1230" y="1228" on="0"/>
        <pt x="1219" y="1222" on="0"/>
        <pt x="1208" y="1213" on="0"/>
        <pt x="1198" y="1205" on="0"/>
        <pt x="1195" y="1202" on="1"/>
        <pt x="655" y="668" on="1"/>
        <pt x="650" y="664" on="0"/>
        <pt x="641" y="646" on="0"/>
      </contour>
    </TTGlyph>
    <TTGlyph name="Aogonek.swash" xMin="52" yMin="-522" xMax="2743" yMax="1434">
      <contour>
        <pt x="2151" y="-434" on="1"/>
        <pt x="2148" y="-445" on="0"/>
        <pt x="2117" y="-476" on="0"/>
        <pt x="2071" y="-503" on="0"/>
        <pt x="2014" y="-522" on="0"/>
        <pt x="1985" y="-522" on="1"/>
        <pt x="1955" y="-522" on="0"/>
        <pt x="1876" y="-514" on="0"/>
        <pt x="1804" y="-487" on="0"/>
        <pt x="1754" y="-433" on="0"/>
        <pt x="1754" y="-387" on="1"/>
        <pt x="1754" y="-360" on="0"/>
        <pt x="1764" y="-327" on="1"/>
        <pt x="1783" y="-266" on="0"/>
        <pt x="1857" y="-168" on="0"/>
        <pt x="1947" y="-89" on="0"/>
        <pt x="2039" y="-30" on="0"/>
        <pt x="2076" y="-8" on="1"/>
        <pt x="2082" y="-4" on="0"/>
        <pt x="2089" y="0" on="1"/>
        <pt x="1919" y="0" on="1"/>
        <pt x="1898" y="0" on="0"/>
        <pt x="1841" y="-5" on="0"/>
        <pt x="1815" y="-5" on="1"/>
        <pt x="1774" y="-5" on="1"/>
        <pt x="1763" y="-3" on="0"/>
        <pt x="1756" y="13" on="0"/>
        <pt x="1756" y="22" on="1"/>
        <pt x="1756" y="33" on="0"/>
        <pt x="1772" y="50" on="0"/>
        <pt x="1782" y="50" on="1"/>
        <pt x="1950" y="50" on="1"/>
        <pt x="1970" y="50" on="0"/>
        <pt x="1987" y="74" on="0"/>
        <pt x="1995" y="83" on="1"/>
        <pt x="2000" y="90" on="0"/>
        <pt x="2008" y="110" on="0"/>
        <pt x="2012" y="118" on="1"/>
        <pt x="2144" y="439" on="1"/>
        <pt x="2145" y="440" on="0"/>
        <pt x="2145" y="442" on="0"/>
        <pt x="2146" y="443" on="1"/>
        <pt x="2152" y="456" on="0"/>
        <pt x="2160" y="475" on="0"/>
        <pt x="2160" y="483" on="1"/>
        <pt x="2160" y="488" on="0"/>
        <pt x="2155" y="503" on="0"/>
        <pt x="2144" y="503" on="1"/>
        <pt x="1763" y="503" on="1"/>
        <pt x="1753" y="495" on="0"/>
        <pt x="1712" y="452" on="0"/>
        <pt x="1689" y="427" on="1"/>
        <pt x="1659" y="397" on="0"/>
        <pt x="1599" y="336" on="0"/>
        <pt x="1539" y="280" on="0"/>
        <pt x="1481" y="231" on="0"/>
        <pt x="1455" y="213" on="1"/>
        <pt x="1378" y="158" on="0"/>
        <pt x="1227" y="74" on="0"/>
        <pt x="1063" y="15" on="0"/>
        <pt x="880" y="-15" on="0"/>
        <pt x="772" y="-16" on="1"/>
        <pt x="709" y="-16" on="0"/>
        <pt x="580" y="5" on="0"/>
        <pt x="456" y="42" on="0"/>
        <pt x="343" y="94" on="0"/>
        <pt x="296" y="125" on="1"/>
        <pt x="245" y="159" on="0"/>
        <pt x="156" y="241" on="0"/>
        <pt x="90" y="337" on="0"/>
        <pt x="52" y="446" on="0"/>
        <pt x="52" y="507" on="1"/>
        <pt x="52" y="568" on="0"/>
        <pt x="83" y="674" on="0"/>
        <pt x="139" y="752" on="0"/>
        <pt x="218" y="796" on="0"/>
        <pt x="265" y="796" on="1"/>
        <pt x="283" y="796" on="0"/>
        <pt x="330" y="770" on="0"/>
        <pt x="374" y="732" on="0"/>
        <pt x="404" y="689" on="0"/>
        <pt x="404" y="671" on="1"/>
        <pt x="404" y="645" on="0"/>
        <pt x="389" y="607" on="0"/>
        <pt x="385" y="602" on="1"/>
        <pt x="357" y="572" on="0"/>
        <pt x="297" y="533" on="0"/>
        <pt x="255" y="533" on="1"/>
        <pt x="235" y="533" on="0"/>
        <pt x="200" y="547" on="0"/>
        <pt x="171" y="564" on="0"/>
        <pt x="148" y="578" on="0"/>
        <pt x="141" y="578" on="1"/>
        <pt x="131" y="578" on="0"/>
        <pt x="118" y="552" on="0"/>
        <pt x="111" y="517" on="0"/>
        <pt x="108" y="483" on="0"/>
        <pt x="108" y="474" on="1"/>
        <pt x="108" y="455" on="0"/>
        <pt x="116" y="406" on="0"/>
        <pt x="130" y="357" on="0"/>
        <pt x="150" y="311" on="0"/>
        <pt x="163" y="296" on="1"/>
        <pt x="200" y="245" on="0"/>
        <pt x="314" y="176" on="0"/>
        <pt x="448" y="133" on="0"/>
        <pt x="592" y="114" on="0"/>
        <pt x="661" y="114" on="1"/>
        <pt x="773" y="114" on="0"/>
        <pt x="996" y="154" on="0"/>
        <pt x="1116" y="197" on="1"/>
        <pt x="1197" y="227" on="0"/>
        <pt x="1339" y="303" on="0"/>
        <pt x="1471" y="390" on="0"/>
        <pt x="1596" y="487" on="0"/>
        <pt x="1658" y="538" on="1"/>
        <pt x="1688" y="563" on="0"/>
        <pt x="1784" y="645" on="0"/>
        <pt x="1897" y="745" on="0"/>
        <pt x="2020" y="858" on="0"/>
        <pt x="2077" y="913" on="1"/>
        <pt x="2144" y="979" on="0"/>
        <pt x="2286" y="1104" on="0"/>
        <pt x="2364" y="1164" on="1"/>
        <pt x="2402" y="1193" on="0"/>
        <pt x="2462" y="1236" on="0"/>
        <pt x="2514" y="1272" on="0"/>
        <pt x="2562" y="1306" on="0"/>
        <pt x="2616" y="1346" on="0"/>
        <pt x="2680" y="1398" on="0"/>
        <pt x="2722" y="1434" on="1"/>
        <pt x="2728" y="1434" on="0"/>
        <pt x="2737" y="1426" on="0"/>
        <pt x="2741" y="1416" on="0"/>
        <pt x="2743" y="1407" on="0"/>
        <pt x="2743" y="1405" on="1"/>
        <pt x="2743" y="1385" on="0"/>
        <pt x="2724" y="1339" on="0"/>
        <pt x="2697" y="1289" on="0"/>
        <pt x="2668" y="1239" on="0"/>
        <pt x="2658" y="1216" on="1"/>
        <pt x="2620" y="1124" on="0"/>
        <pt x="2551" y="956" on="0"/>
        <pt x="2484" y="793" on="0"/>
        <pt x="2416" y="628" on="0"/>
        <pt x="2343" y="450" on="0"/>
        <pt x="2262" y="254" on="0"/>
        <pt x="2215" y="142" on="1"/>
        <pt x="2206" y="119" on="0"/>
        <pt x="2194" y="79" on="0"/>
        <pt x="2194" y="66" on="1"/>
        <pt x="2194" y="62" on="0"/>
        <pt x="2200" y="50" on="0"/>
        <pt x="2213" y="50" on="1"/>
        <pt x="2231" y="50" on="0"/>
        <pt x="2279" y="50" on="0"/>
        <pt x="2324" y="49" on="0"/>
        <pt x="2361" y="47" on="0"/>
        <pt x="2369" y="45" on="1"/>
        <pt x="2380" y="43" on="0"/>
        <pt x="2397" y="29" on="0"/>
        <pt x="2397" y="21" on="1"/>
        <pt x="2397" y="13" on="0"/>
        <pt x="2384" y="0" on="0"/>
        <pt x="2376" y="0" on="1"/>
        <pt x="2180" y="0" on="1"/>
        <pt x="2135" y="-33" on="0"/>
        <pt x="2061" y="-94" on="0"/>
        <pt x="2002" y="-158" on="0"/>
        <pt x="1958" y="-232" on="0"/>
        <pt x="1944" y="-278" on="1"/>
        <pt x="1939" y="-294" on="0"/>
        <pt x="1934" y="-324" on="0"/>
        <pt x="1934" y="-338" on="1"/>
        <pt x="1934" y="-379" on="0"/>
        <pt x="1979" y="-432" on="0"/>
        <pt x="2029" y="-432" on="1"/>
        <pt x="2050" y="-432" on="0"/>
        <pt x="2085" y="-423" on="0"/>
        <pt x="2112" y="-411" on="0"/>
        <pt x="2133" y="-402" on="0"/>
        <pt x="2139" y="-402" on="1"/>
        <pt x="2153" y="-402" on="0"/>
        <pt x="2153" y="-418" on="1"/>
        <pt x="2153" y="-424" on="0"/>
      </contour>
      <contour>
        <pt x="1836" y="578" on="1"/>
        <pt x="1836" y="571" on="0"/>
        <pt x="1843" y="564" on="0"/>
        <pt x="1857" y="564" on="1"/>
        <pt x="2170" y="564" on="1"/>
        <pt x="2192" y="564" on="0"/>
        <pt x="2204" y="572" on="0"/>
        <pt x="2206" y="580" on="1"/>
        <pt x="2239" y="657" on="0"/>
        <pt x="2302" y="803" on="0"/>
        <pt x="2364" y="947" on="0"/>
        <pt x="2426" y="1094" on="0"/>
        <pt x="2459" y="1171" on="1"/>
        <pt x="2457" y="1173" on="0"/>
        <pt x="2452" y="1173" on="0"/>
        <pt x="2450" y="1173" on="1"/>
        <pt x="2434" y="1173" on="0"/>
        <pt x="2392" y="1142" on="0"/>
        <pt x="2367" y="1119" on="1"/>
        <pt x="2316" y="1070" on="0"/>
        <pt x="2184" y="939" on="0"/>
        <pt x="2044" y="799" on="0"/>
        <pt x="1909" y="662" on="0"/>
        <pt x="1857" y="607" on="1"/>
        <pt x="1852" y="601" on="0"/>
        <pt x="1836" y="582" on="0"/>
      </contour>
    </TTGlyph>
    <TTGlyph name="Aring" xMin="-215" yMin="-38" xMax="1565" yMax="1868">
      <component glyphName="A" x="0" y="0" flags="0x204"/>
      <component glyphName="Ring" x="478" y="0" flags="0x4"/>
    </TTGlyph>
    <TTGlyph name="Aring.swash" xMin="52" yMin="-16" xMax="2799" yMax="1868">
      <component glyphName="A.swash" x="0" y="0" flags="0x204"/>
      <component glyphName="Ring" x="1712" y="0" flags="0x4"/>
    </TTGlyph>
    <TTGlyph name="Atilde" xMin="-215" yMin="-38" xMax="1726" yMax="1768">
      <component glyphName="A" x="0" y="0" flags="0x204"/>
      <component glyphName="Tilde" x="577" y="-59" flags="0x4"/>
    </TTGlyph>
    <TTGlyph name="Atilde.swash" xMin="52" yMin="-16" xMax="2947" yMax="1768">
      <component glyphName="A.swash" x="0" y="0" flags="0x204"/>
      <component glyphName="Tilde" x="1798" y="-59" flags="0x4"/>
    </TTGlyph>
    <TTGlyph name="B" xMin="-93" yMin="0" xMax="1410" yMax="1462">
      <contour>
        <pt x="627" y="763" on="1"/>
        <pt x="642" y="760" on="0"/>
        <pt x="681" y="756" on="0"/>
        <pt x="722" y="754" on="0"/>
        <pt x="760" y="753" on="0"/>
        <pt x="774" y="753" on="1"/>
        <pt x="819" y="753" on="0"/>
        <pt x="914" y="771" on="0"/>
        <pt x="1002" y="802" on="0"/>
        <pt x="1077" y="845" on="0"/>
        <pt x="1102" y="870" on="1"/>
        <pt x="1112" y="880" on="0"/>
        <pt x="1148" y="926" on="0"/>
        <pt x="1183" y="988" on="0"/>
        <pt x="1208" y="1059" on="0"/>
        <pt x="1208" y="1093" on="1"/>
        <pt x="1208" y="1124" on="0"/>
        <pt x="1206" y="1170" on="0"/>
        <pt x="1200" y="1208" on="0"/>
        <pt x="1188" y="1244" on="0"/>
        <pt x="1178" y="1265" on="1"/>
        <pt x="1163" y="1295" on="0"/>
        <pt x="1113" y="1351" on="0"/>
        <pt x="1049" y="1395" on="0"/>
        <pt x="976" y="1422" on="0"/>
        <pt x="940" y="1422" on="1"/>
        <pt x="928" y="1422" on="0"/>
        <pt x="899" y="1418" on="0"/>
        <pt x="871" y="1410" on="0"/>
        <pt x="847" y="1397" on="0"/>
        <pt x="841" y="1387" on="1"/>
        <pt x="816" y="1338" on="0"/>
        <pt x="770" y="1213" on="0"/>
        <pt x="741" y="1131" on="1"/>
        <pt x="723" y="1077" on="0"/>
        <pt x="689" y="1004" on="0"/>
        <pt x="658" y="933" on="0"/>
        <pt x="630" y="849" on="0"/>
        <pt x="618" y="785" on="1"/>
        <pt x="618" y="783" on="0"/>
        <pt x="620" y="765" on="0"/>
      </contour>
      <contour>
        <pt x="369" y="100" on="1"/>
        <pt x="369" y="75" on="0"/>
        <pt x="382" y="63" on="0"/>
        <pt x="407" y="62" on="1"/>
        <pt x="412" y="62" on="0"/>
        <pt x="435" y="61" on="0"/>
        <pt x="461" y="61" on="0"/>
        <pt x="483" y="61" on="0"/>
        <pt x="488" y="61" on="1"/>
        <pt x="552" y="61" on="0"/>
        <pt x="641" y="64" on="0"/>
        <pt x="713" y="76" on="0"/>
        <pt x="778" y="102" on="0"/>
        <pt x="819" y="126" on="1"/>
        <pt x="856" y="147" on="0"/>
        <pt x="912" y="215" on="0"/>
        <pt x="950" y="301" on="0"/>
        <pt x="969" y="400" on="0"/>
        <pt x="969" y="452" on="1"/>
        <pt x="969" y="473" on="0"/>
        <pt x="960" y="518" on="0"/>
        <pt x="944" y="562" on="0"/>
        <pt x="921" y="603" on="0"/>
        <pt x="907" y="619" on="1"/>
        <pt x="878" y="653" on="0"/>
        <pt x="818" y="690" on="0"/>
        <pt x="751" y="710" on="0"/>
        <pt x="676" y="720" on="0"/>
        <pt x="632" y="727" on="1"/>
        <pt x="625" y="728" on="0"/>
        <pt x="619" y="729" on="0"/>
        <pt x="614" y="732" on="1"/>
        <pt x="609" y="729" on="0"/>
        <pt x="595" y="717" on="0"/>
        <pt x="590" y="709" on="1"/>
        <pt x="579" y="692" on="0"/>
        <pt x="561" y="649" on="0"/>
        <pt x="552" y="625" on="1"/>
        <pt x="533" y="569" on="0"/>
        <pt x="502" y="481" on="0"/>
        <pt x="471" y="397" on="0"/>
        <pt x="437" y="307" on="0"/>
        <pt x="416" y="249" on="1"/>
        <pt x="410" y="231" on="0"/>
        <pt x="394" y="195" on="0"/>
        <pt x="379" y="158" on="0"/>
        <pt x="369" y="119" on="0"/>
      </contour>
      <contour>
        <pt x="-93" y="31" on="1"/>
        <pt x="-93" y="35" on="0"/>
        <pt x="-92" y="47" on="0"/>
        <pt x="-89" y="59" on="0"/>
        <pt x="-82" y="67" on="0"/>
        <pt x="-76" y="67" on="1"/>
        <pt x="-58" y="67" on="0"/>
        <pt x="0" y="62" on="0"/>
        <pt x="31" y="62" on="1"/>
        <pt x="65" y="62" on="0"/>
        <pt x="127" y="74" on="0"/>
        <pt x="140" y="99" on="1"/>
        <pt x="161" y="138" on="0"/>
        <pt x="189" y="205" on="0"/>
        <pt x="203" y="246" on="1"/>
        <pt x="235" y="337" on="0"/>
        <pt x="309" y="539" on="0"/>
        <pt x="386" y="747" on="0"/>
        <pt x="463" y="953" on="0"/>
        <pt x="534" y="1145" on="0"/>
        <pt x="597" y="1315" on="0"/>
        <pt x="621" y="1382" on="1"/>
        <pt x="623" y="1386" on="0"/>
        <pt x="623" y="1389" on="1"/>
        <pt x="623" y="1393" on="0"/>
        <pt x="614" y="1400" on="0"/>
        <pt x="600" y="1404" on="0"/>
        <pt x="586" y="1406" on="0"/>
        <pt x="580" y="1406" on="1"/>
        <pt x="560" y="1406" on="0"/>
        <pt x="496" y="1407" on="0"/>
        <pt x="434" y="1408" on="0"/>
        <pt x="387" y="1411" on="0"/>
        <pt x="384" y="1413" on="1"/>
        <pt x="378" y="1418" on="0"/>
        <pt x="376" y="1428" on="0"/>
        <pt x="376" y="1436" on="1"/>
        <pt x="376" y="1446" on="0"/>
        <pt x="388" y="1456" on="0"/>
        <pt x="406" y="1461" on="0"/>
        <pt x="426" y="1462" on="0"/>
        <pt x="433" y="1462" on="1"/>
        <pt x="499" y="1462" on="0"/>
        <pt x="575" y="1460" on="0"/>
        <pt x="630" y="1457" on="0"/>
        <pt x="682" y="1455" on="0"/>
        <pt x="725" y="1455" on="1"/>
        <pt x="784" y="1455" on="0"/>
        <pt x="861" y="1458" on="0"/>
        <pt x="879" y="1458" on="1"/>
        <pt x="895" y="1458" on="0"/>
        <pt x="934" y="1457" on="0"/>
        <pt x="971" y="1455" on="0"/>
        <pt x="1002" y="1454" on="0"/>
        <pt x="1009" y="1453" on="1"/>
        <pt x="1092" y="1441" on="0"/>
        <pt x="1238" y="1383" on="0"/>
        <pt x="1347" y="1287" on="0"/>
        <pt x="1410" y="1150" on="0"/>
        <pt x="1410" y="1059" on="1"/>
        <pt x="1410" y="1033" on="0"/>
        <pt x="1395" y="981" on="0"/>
        <pt x="1370" y="930" on="0"/>
        <pt x="1339" y="885" on="0"/>
        <pt x="1324" y="867" on="1"/>
        <pt x="1292" y="826" on="0"/>
        <pt x="1214" y="770" on="0"/>
        <pt x="1158" y="749" on="1"/>
        <pt x="1122" y="735" on="0"/>
        <pt x="1059" y="727" on="0"/>
        <pt x="1010" y="723" on="0"/>
        <pt x="977" y="717" on="0"/>
        <pt x="973" y="706" on="1"/>
        <pt x="977" y="697" on="0"/>
        <pt x="989" y="688" on="0"/>
        <pt x="1008" y="679" on="0"/>
        <pt x="1034" y="667" on="0"/>
        <pt x="1052" y="656" on="1"/>
        <pt x="1097" y="627" on="0"/>
        <pt x="1158" y="569" on="0"/>
        <pt x="1194" y="503" on="0"/>
        <pt x="1210" y="427" on="0"/>
        <pt x="1210" y="382" on="1"/>
        <pt x="1210" y="340" on="0"/>
        <pt x="1197" y="271" on="0"/>
        <pt x="1171" y="210" on="0"/>
        <pt x="1129" y="155" on="0"/>
        <pt x="1101" y="128" on="1"/>
        <pt x="1068" y="98" on="0"/>
        <pt x="982" y="54" on="0"/>
        <pt x="887" y="24" on="0"/>
        <pt x="793" y="8" on="0"/>
        <pt x="753" y="5" on="1"/>
        <pt x="741" y="4" on="0"/>
        <pt x="692" y="2" on="0"/>
        <pt x="640" y="1" on="0"/>
        <pt x="596" y="0" on="0"/>
        <pt x="589" y="0" on="1"/>
        <pt x="-88" y="0" on="1"/>
        <pt x="-92" y="5" on="0"/>
        <pt x="-93" y="22" on="0"/>
      </contour>
    </TTGlyph>
    <TTGlyph name="Breve" xMin="484" yMin="1558" xMax="1094" yMax="1868">
      <contour>
        <pt x="701" y="1558" on="1"/>
        <pt x="654" y="1558" on="0"/>
        <pt x="575" y="1593" on="0"/>
        <pt x="517" y="1654" on="0"/>
        <pt x="484" y="1735" on="0"/>
        <pt x="484" y="1782" on="1"/>
        <pt x="484" y="1793" on="0"/>
        <pt x="486" y="1815" on="0"/>
        <pt x="488" y="1826" on="1"/>
        <pt x="492" y="1845" on="0"/>
        <pt x="516" y="1868" on="0"/>
        <pt x="536" y="1868" on="1"/>
        <pt x="544" y="1868" on="0"/>
        <pt x="545" y="1853" on="1"/>
        <pt x="553" y="1816" on="0"/>
        <pt x="591" y="1757" on="0"/>
        <pt x="645" y="1717" on="0"/>
        <pt x="709" y="1695" on="0"/>
        <pt x="743" y="1695" on="1"/>
        <pt x="786" y="1695" on="0"/>
        <pt x="876" y="1726" on="0"/>
        <pt x="959" y="1773" on="0"/>
        <pt x="1026" y="1828" on="0"/>
        <pt x="1046" y="1853" on="1"/>
        <pt x="1056" y="1867" on="0"/>
        <pt x="1070" y="1867" on="1"/>
        <pt x="1082" y="1867" on="0"/>
        <pt x="1091" y="1854" on="1"/>
        <pt x="1094" y="1851" on="0"/>
        <pt x="1094" y="1846" on="1"/>
        <pt x="1094" y="1844" on="0"/>
        <pt x="1093" y="1843" on="0"/>
        <pt x="1093" y="1841" on="1"/>
        <pt x="1092" y="1839" on="0"/>
        <pt x="1090" y="1834" on="0"/>
        <pt x="1088" y="1830" on="1"/>
        <pt x="1074" y="1802" on="0"/>
        <pt x="1025" y="1740" on="0"/>
        <pt x="963" y="1679" on="0"/>
        <pt x="889" y="1625" on="0"/>
        <pt x="813" y="1583" on="0"/>
        <pt x="736" y="1558" on="0"/>
      </contour>
    </TTGlyph>
    <TTGlyph name="C" xMin="118" yMin="-38" xMax="1571" yMax="1488">
      <contour>
        <pt x="305" y="422" on="1"/>
        <pt x="305" y="387" on="0"/>
        <pt x="308" y="323" on="0"/>
        <pt x="319" y="262" on="0"/>
        <pt x="342" y="203" on="0"/>
        <pt x="362" y="175" on="1"/>
        <pt x="404" y="118" on="0"/>
        <pt x="523" y="66" on="0"/>
        <pt x="592" y="66" on="1"/>
        <pt x="632" y="66" on="0"/>
        <pt x="697" y="76" on="0"/>
        <pt x="756" y="96" on="0"/>
        <pt x="815" y="126" on="0"/>
        <pt x="850" y="147" on="1"/>
        <pt x="875" y="162" on="0"/>
        <pt x="929" y="201" on="0"/>
        <pt x="983" y="245" on="0"/>
        <pt x="1032" y="290" on="0"/>
        <pt x="1052" y="310" on="1"/>
        <pt x="1100" y="355" on="0"/>
        <pt x="1172" y="436" on="0"/>
        <pt x="1208" y="486" on="1"/>
        <pt x="1212" y="491" on="0"/>
        <pt x="1224" y="495" on="0"/>
        <pt x="1232" y="495" on="1"/>
        <pt x="1258" y="495" on="0"/>
        <pt x="1258" y="471" on="1"/>
        <pt x="1258" y="460" on="0"/>
        <pt x="1257" y="452" on="0"/>
        <pt x="1253" y="441" on="1"/>
        <pt x="1239" y="406" on="0"/>
        <pt x="1213" y="341" on="0"/>
        <pt x="1188" y="273" on="0"/>
        <pt x="1163" y="201" on="0"/>
        <pt x="1151" y="159" on="1"/>
        <pt x="1148" y="148" on="0"/>
        <pt x="1146" y="107" on="0"/>
        <pt x="1144" y="93" on="1"/>
        <pt x="1142" y="76" on="0"/>
        <pt x="1128" y="45" on="0"/>
        <pt x="1115" y="45" on="1"/>
        <pt x="1103" y="45" on="0"/>
        <pt x="1097" y="74" on="0"/>
        <pt x="1094" y="109" on="0"/>
        <pt x="1086" y="138" on="0"/>
        <pt x="1073" y="138" on="1"/>
        <pt x="1059" y="138" on="0"/>
        <pt x="1026" y="121" on="0"/>
        <pt x="1013" y="114" on="1"/>
        <pt x="954" y="79" on="0"/>
        <pt x="843" y="23" on="0"/>
        <pt x="726" y="-16" on="0"/>
        <pt x="596" y="-38" on="0"/>
        <pt x="518" y="-38" on="1"/>
        <pt x="467" y="-38" on="0"/>
        <pt x="366" y="2" on="0"/>
        <pt x="274" y="67" on="0"/>
        <pt x="199" y="147" on="0"/>
        <pt x="175" y="187" on="1"/>
        <pt x="160" y="214" on="0"/>
        <pt x="138" y="281" on="0"/>
        <pt x="124" y="354" on="0"/>
        <pt x="118" y="427" on="0"/>
        <pt x="118" y="460" on="1"/>
        <pt x="118" y="680" on="0"/>
        <pt x="333" y="1088" on="0"/>
        <pt x="547" y="1259" on="1"/>
        <pt x="615" y="1313" on="0"/>
        <pt x="756" y="1394" on="0"/>
        <pt x="838" y="1424" on="1"/>
        <pt x="911" y="1451" on="0"/>
        <pt x="1058" y="1488" on="0"/>
        <pt x="1137" y="1488" on="1"/>
        <pt x="1151" y="1488" on="0"/>
        <pt x="1195" y="1482" on="0"/>
        <pt x="1245" y="1471" on="0"/>
        <pt x="1294" y="1458" on="0"/>
        <pt x="1314" y="1451" on="1"/>
        <pt x="1320" y="1449" on="0"/>
        <pt x="1343" y="1436" on="0"/>
        <pt x="1370" y="1420" on="0"/>
        <pt x="1395" y="1404" on="0"/>
        <pt x="1402" y="1400" on="1"/>
        <pt x="1410" y="1393" on="0"/>
        <pt x="1432" y="1374" on="0"/>
        <pt x="1440" y="1374" on="1"/>
        <pt x="1458" y="1374" on="0"/>
        <pt x="1488" y="1398" on="0"/>
        <pt x="1517" y="1426" on="0"/>
        <pt x="1546" y="1450" on="0"/>
        <pt x="1563" y="1450" on="1"/>
        <pt x="1568" y="1450" on="0"/>
        <pt x="1571" y="1434" on="0"/>
        <pt x="1571" y="1427" on="1"/>
        <pt x="1571" y="1413" on="0"/>
        <pt x="1545" y="1371" on="0"/>
        <pt x="1526" y="1327" on="1"/>
        <pt x="1509" y="1284" on="0"/>
        <pt x="1477" y="1187" on="0"/>
        <pt x="1466" y="1144" on="1"/>
        <pt x="1461" y="1129" on="0"/>
        <pt x="1452" y="1077" on="0"/>
        <pt x="1438" y="1028" on="0"/>
        <pt x="1415" y="991" on="0"/>
        <pt x="1397" y="991" on="1"/>
        <pt x="1383" y="991" on="0"/>
        <pt x="1378" y="1001" on="0"/>
        <pt x="1378" y="1012" on="1"/>
        <pt x="1378" y="1019" on="0"/>
        <pt x="1380" y="1041" on="0"/>
        <pt x="1381" y="1064" on="0"/>
        <pt x="1383" y="1085" on="0"/>
        <pt x="1383" y="1090" on="1"/>
        <pt x="1383" y="1120" on="0"/>
        <pt x="1379" y="1189" on="0"/>
        <pt x="1363" y="1255" on="0"/>
        <pt x="1333" y="1314" on="0"/>
        <pt x="1308" y="1336" on="1"/>
        <pt x="1293" y="1349" on="0"/>
        <pt x="1245" y="1374" on="0"/>
        <pt x="1191" y="1394" on="0"/>
        <pt x="1140" y="1405" on="0"/>
        <pt x="1123" y="1405" on="1"/>
        <pt x="1073" y="1405" on="0"/>
        <pt x="986" y="1385" on="0"/>
        <pt x="907" y="1349" on="0"/>
        <pt x="835" y="1298" on="0"/>
        <pt x="800" y="1268" on="1"/>
        <pt x="746" y="1223" on="0"/>
        <pt x="627" y="1106" on="0"/>
        <pt x="582" y="1043" on="1"/>
        <pt x="554" y="1003" on="0"/>
        <pt x="491" y="904" on="0"/>
        <pt x="429" y="795" on="0"/>
        <pt x="373" y="681" on="0"/>
        <pt x="330" y="569" on="0"/>
        <pt x="305" y="466" on="0"/>
      </contour>
    </TTGlyph>
    <TTGlyph name="Cacute" xMin="118" yMin="-38" xMax="1681" yMax="1868">
      <component glyphName="C" x="0" y="0" flags="0x204"/>
      <component glyphName="Acute" x="915" y="0" flags="0x4"/>
    </TTGlyph>
    <TTGlyph name="Caron" xMin="512" yMin="1501" xMax="1066" yMax="1866">
      <contour>
        <pt x="512" y="1857" on="1"/>
        <pt x="512" y="1860" on="0"/>
        <pt x="517" y="1866" on="0"/>
        <pt x="524" y="1866" on="1"/>
        <pt x="532" y="1866" on="0"/>
        <pt x="538" y="1863" on="0"/>
        <pt x="545" y="1856" on="1"/>
        <pt x="568" y="1833" on="0"/>
        <pt x="606" y="1795" on="0"/>
        <pt x="643" y="1757" on="0"/>
        <pt x="683" y="1713" on="0"/>
        <pt x="709" y="1685" on="1"/>
        <pt x="714" y="1679" on="0"/>
        <pt x="724" y="1669" on="0"/>
        <pt x="731" y="1669" on="1"/>
        <pt x="741" y="1669" on="0"/>
        <pt x="756" y="1681" on="1"/>
        <pt x="793" y="1708" on="0"/>
        <pt x="860" y="1754" on="0"/>
        <pt x="926" y="1795" on="0"/>
        <pt x="992" y="1834" on="0"/>
        <pt x="1029" y="1856" on="1"/>
        <pt x="1034" y="1860" on="0"/>
        <pt x="1050" y="1865" on="0"/>
        <pt x="1058" y="1865" on="1"/>
        <pt x="1066" y="1865" on="0"/>
        <pt x="1066" y="1859" on="1"/>
        <pt x="1066" y="1855" on="0"/>
        <pt x="1060" y="1848" on="1"/>
        <pt x="737" y="1543" on="1"/>
        <pt x="731" y="1537" on="0"/>
        <pt x="716" y="1523" on="0"/>
        <pt x="701" y="1510" on="0"/>
        <pt x="686" y="1501" on="0"/>
        <pt x="681" y="1501" on="1"/>
        <pt x="676" y="1501" on="0"/>
        <pt x="666" y="1513" on="0"/>
        <pt x="656" y="1529" on="0"/>
        <pt x="648" y="1547" on="0"/>
        <pt x="645" y="1553" on="1"/>
        <pt x="615" y="1630" on="0"/>
        <pt x="561" y="1750" on="0"/>
        <pt x="516" y="1846" on="1"/>
      </contour>
    </TTGlyph>
    <TTGlyph name="Ccaron" xMin="118" yMin="-38" xMax="1571" yMax="1866">
      <component glyphName="C" x="0" y="0" flags="0x204"/>
      <component glyphName="Caron" x="463" y="0" flags="0x4"/>
    </TTGlyph>
    <TTGlyph name="Ccedilla" xMin="118" yMin="-531" xMax="1571" yMax="1488">
      <contour>
        <pt x="235" y="-505" on="1"/>
        <pt x="238" y="-499" on="0"/>
        <pt x="257" y="-494" on="0"/>
        <pt x="270" y="-491" on="1"/>
        <pt x="282" y="-489" on="0"/>
        <pt x="314" y="-484" on="0"/>
        <pt x="347" y="-476" on="0"/>
        <pt x="380" y="-467" on="0"/>
        <pt x="393" y="-462" on="1"/>
        <pt x="416" y="-453" on="0"/>
        <pt x="462" y="-418" on="0"/>
        <pt x="499" y="-379" on="0"/>
        <pt x="525" y="-341" on="0"/>
        <pt x="528" y="-329" on="1"/>
        <pt x="533" y="-311" on="0"/>
        <pt x="533" y="-295" on="1"/>
        <pt x="533" y="-283" on="0"/>
        <pt x="529" y="-262" on="0"/>
        <pt x="526" y="-254" on="1"/>
        <pt x="512" y="-231" on="0"/>
        <pt x="459" y="-204" on="0"/>
        <pt x="421" y="-204" on="1"/>
        <pt x="404" y="-204" on="0"/>
        <pt x="368" y="-217" on="0"/>
        <pt x="351" y="-223" on="1"/>
        <pt x="329" y="-232" on="0"/>
        <pt x="282" y="-264" on="0"/>
        <pt x="261" y="-273" on="1"/>
        <pt x="260" y="-273" on="0"/>
        <pt x="258" y="-275" on="0"/>
        <pt x="256" y="-275" on="1"/>
        <pt x="252" y="-275" on="0"/>
        <pt x="244" y="-267" on="0"/>
        <pt x="242" y="-265" on="1"/>
        <pt x="247" y="-251" on="0"/>
        <pt x="256" y="-234" on="0"/>
        <pt x="267" y="-223" on="1"/>
        <pt x="273" y="-218" on="0"/>
        <pt x="299" y="-196" on="0"/>
        <pt x="328" y="-172" on="0"/>
        <pt x="353" y="-151" on="0"/>
        <pt x="358" y="-147" on="1"/>
        <pt x="372" y="-136" on="0"/>
        <pt x="417" y="-101" on="0"/>
        <pt x="434" y="-87" on="1"/>
        <pt x="453" y="-71" on="0"/>
        <pt x="480" y="-46" on="0"/>
        <pt x="490" y="-36" on="1"/>
        <pt x="442" y="-31" on="0"/>
        <pt x="349" y="12" on="0"/>
        <pt x="265" y="74" on="0"/>
        <pt x="197" y="149" on="0"/>
        <pt x="175" y="187" on="1"/>
        <pt x="160" y="214" on="0"/>
        <pt x="138" y="281" on="0"/>
        <pt x="124" y="354" on="0"/>
        <pt x="118" y="427" on="0"/>
        <pt x="118" y="460" on="1"/>
        <pt x="118" y="680" on="0"/>
        <pt x="333" y="1088" on="0"/>
        <pt x="547" y="1259" on="1"/>
        <pt x="615" y="1313" on="0"/>
        <pt x="756" y="1394" on="0"/>
        <pt x="838" y="1424" on="1"/>
        <pt x="911" y="1451" on="0"/>
        <pt x="1058" y="1488" on="0"/>
        <pt x="1137" y="1488" on="1"/>
        <pt x="1151" y="1488" on="0"/>
        <pt x="1195" y="1482" on="0"/>
        <pt x="1245" y="1471" on="0"/>
        <pt x="1294" y="1458" on="0"/>
        <pt x="1314" y="1451" on="1"/>
        <pt x="1320" y="1449" on="0"/>
        <pt x="1343" y="1436" on="0"/>
        <pt x="1370" y="1420" on="0"/>
        <pt x="1395" y="1404" on="0"/>
        <pt x="1402" y="1400" on="1"/>
        <pt x="1410" y="1393" on="0"/>
        <pt x="1432" y="1374" on="0"/>
        <pt x="1440" y="1374" on="1"/>
        <pt x="1458" y="1374" on="0"/>
        <pt x="1488" y="1398" on="0"/>
        <pt x="1517" y="1426" on="0"/>
        <pt x="1546" y="1450" on="0"/>
        <pt x="1563" y="1450" on="1"/>
        <pt x="1568" y="1450" on="0"/>
        <pt x="1571" y="1434" on="0"/>
        <pt x="1571" y="1427" on="1"/>
        <pt x="1571" y="1413" on="0"/>
        <pt x="1545" y="1371" on="0"/>
        <pt x="1526" y="1327" on="1"/>
        <pt x="1509" y="1284" on="0"/>
        <pt x="1477" y="1187" on="0"/>
        <pt x="1466" y="1144" on="1"/>
        <pt x="1461" y="1129" on="0"/>
        <pt x="1452" y="1077" on="0"/>
        <pt x="1438" y="1028" on="0"/>
        <pt x="1415" y="991" on="0"/>
        <pt x="1397" y="991" on="1"/>
        <pt x="1383" y="991" on="0"/>
        <pt x="1378" y="1001" on="0"/>
        <pt x="1378" y="1012" on="1"/>
        <pt x="1378" y="1019" on="0"/>
        <pt x="1380" y="1041" on="0"/>
        <pt x="1381" y="1064" on="0"/>
        <pt x="1383" y="1085" on="0"/>
        <pt x="1383" y="1090" on="1"/>
        <pt x="1383" y="1120" on="0"/>
        <pt x="1379" y="1189" on="0"/>
        <pt x="1363" y="1255" on="0"/>
        <pt x="1333" y="1314" on="0"/>
        <pt x="1308" y="1336" on="1"/>
        <pt x="1293" y="1349" on="0"/>
        <pt x="1245" y="1374" on="0"/>
        <pt x="1191" y="1394" on="0"/>
        <pt x="1140" y="1405" on="0"/>
        <pt x="1123" y="1405" on="1"/>
        <pt x="1073" y="1405" on="0"/>
        <pt x="986" y="1385" on="0"/>
        <pt x="907" y="1349" on="0"/>
        <pt x="835" y="1298" on="0"/>
        <pt x="800" y="1268" on="1"/>
        <pt x="746" y="1223" on="0"/>
        <pt x="627" y="1106" on="0"/>
        <pt x="582" y="1043" on="1"/>
        <pt x="554" y="1003" on="0"/>
        <pt x="491" y="904" on="0"/>
        <pt x="429" y="795" on="0"/>
        <pt x="373" y="681" on="0"/>
        <pt x="330" y="569" on="0"/>
        <pt x="305" y="466" on="0"/>
        <pt x="305" y="422" on="1"/>
        <pt x="305" y="387" on="0"/>
        <pt x="308" y="323" on="0"/>
        <pt x="319" y="262" on="0"/>
        <pt x="342" y="203" on="0"/>
        <pt x="362" y="175" on="1"/>
        <pt x="404" y="118" on="0"/>
        <pt x="523" y="66" on="0"/>
        <pt x="592" y="66" on="1"/>
        <pt x="632" y="66" on="0"/>
        <pt x="697" y="76" on="0"/>
        <pt x="756" y="96" on="0"/>
        <pt x="815" y="126" on="0"/>
        <pt x="850" y="147" on="1"/>
        <pt x="875" y="162" on="0"/>
        <pt x="929" y="201" on="0"/>
        <pt x="983" y="245" on="0"/>
        <pt x="1032" y="290" on="0"/>
        <pt x="1052" y="310" on="1"/>
        <pt x="1100" y="355" on="0"/>
        <pt x="1172" y="436" on="0"/>
        <pt x="1208" y="486" on="1"/>
        <pt x="1212" y="491" on="0"/>
        <pt x="1224" y="495" on="0"/>
        <pt x="1232" y="495" on="1"/>
        <pt x="1258" y="495" on="0"/>
        <pt x="1258" y="471" on="1"/>
        <pt x="1258" y="460" on="0"/>
        <pt x="1257" y="452" on="0"/>
        <pt x="1253" y="441" on="1"/>
        <pt x="1239" y="406" on="0"/>
        <pt x="1213" y="341" on="0"/>
        <pt x="1188" y="273" on="0"/>
        <pt x="1163" y="201" on="0"/>
        <pt x="1151" y="159" on="1"/>
        <pt x="1148" y="148" on="0"/>
        <pt x="1146" y="107" on="0"/>
        <pt x="1144" y="93" on="1"/>
        <pt x="1142" y="76" on="0"/>
        <pt x="1128" y="45" on="0"/>
        <pt x="1115" y="45" on="1"/>
        <pt x="1103" y="45" on="0"/>
        <pt x="1097" y="74" on="0"/>
        <pt x="1094" y="109" on="0"/>
        <pt x="1086" y="138" on="0"/>
        <pt x="1073" y="138" on="1"/>
        <pt x="1059" y="138" on="0"/>
        <pt x="1026" y="121" on="0"/>
        <pt x="1013" y="114" on="1"/>
        <pt x="956" y="81" on="0"/>
        <pt x="851" y="27" on="0"/>
        <pt x="740" y="-12" on="0"/>
        <pt x="618" y="-35" on="0"/>
        <pt x="546" y="-37" on="1"/>
        <pt x="541" y="-43" on="0"/>
        <pt x="533" y="-54" on="0"/>
        <pt x="525" y="-66" on="0"/>
        <pt x="515" y="-81" on="0"/>
        <pt x="507" y="-92" on="1"/>
        <pt x="539" y="-97" on="0"/>
        <pt x="595" y="-122" on="0"/>
        <pt x="637" y="-161" on="0"/>
        <pt x="661" y="-214" on="0"/>
        <pt x="661" y="-245" on="1"/>
        <pt x="661" y="-283" on="0"/>
        <pt x="648" y="-322" on="1"/>
        <pt x="642" y="-342" on="0"/>
        <pt x="604" y="-395" on="0"/>
        <pt x="583" y="-415" on="1"/>
        <pt x="560" y="-438" on="0"/>
        <pt x="487" y="-484" on="0"/>
        <pt x="453" y="-498" on="1"/>
        <pt x="438" y="-504" on="0"/>
        <pt x="401" y="-516" on="0"/>
        <pt x="362" y="-525" on="0"/>
        <pt x="323" y="-531" on="0"/>
        <pt x="306" y="-531" on="1"/>
        <pt x="295" y="-530" on="0"/>
        <pt x="271" y="-529" on="0"/>
        <pt x="251" y="-525" on="0"/>
        <pt x="236" y="-515" on="0"/>
      </contour>
    </TTGlyph>
    <TTGlyph name="Circumflex" xMin="477" yMin="1503" xMax="1031" yMax="1868">
      <contour>
        <pt x="1031" y="1512" on="1"/>
        <pt x="1031" y="1509" on="0"/>
        <pt x="1026" y="1503" on="0"/>
        <pt x="1019" y="1503" on="1"/>
        <pt x="1011" y="1503" on="0"/>
        <pt x="1004" y="1506" on="0"/>
        <pt x="998" y="1513" on="1"/>
        <pt x="977" y="1537" on="0"/>
        <pt x="945" y="1574" on="0"/>
        <pt x="914" y="1610" on="0"/>
        <pt x="878" y="1651" on="0"/>
        <pt x="854" y="1680" on="1"/>
        <pt x="849" y="1686" on="0"/>
        <pt x="839" y="1696" on="0"/>
        <pt x="832" y="1696" on="1"/>
        <pt x="827" y="1696" on="0"/>
        <pt x="815" y="1689" on="0"/>
        <pt x="807" y="1684" on="1"/>
        <pt x="766" y="1657" on="0"/>
        <pt x="694" y="1615" on="0"/>
        <pt x="624" y="1576" on="0"/>
        <pt x="553" y="1537" on="0"/>
        <pt x="514" y="1513" on="1"/>
        <pt x="509" y="1510" on="0"/>
        <pt x="493" y="1504" on="0"/>
        <pt x="485" y="1504" on="1"/>
        <pt x="477" y="1504" on="0"/>
        <pt x="477" y="1510" on="1"/>
        <pt x="477" y="1513" on="0"/>
        <pt x="483" y="1521" on="1"/>
        <pt x="806" y="1826" on="1"/>
        <pt x="812" y="1832" on="0"/>
        <pt x="827" y="1846" on="0"/>
        <pt x="842" y="1859" on="0"/>
        <pt x="857" y="1868" on="0"/>
        <pt x="862" y="1868" on="1"/>
        <pt x="867" y="1868" on="0"/>
        <pt x="877" y="1856" on="0"/>
        <pt x="887" y="1840" on="0"/>
        <pt x="895" y="1822" on="0"/>
        <pt x="898" y="1816" on="1"/>
        <pt x="931" y="1736" on="0"/>
        <pt x="989" y="1595" on="0"/>
        <pt x="1027" y="1523" on="1"/>
      </contour>
    </TTGlyph>
    <TTGlyph name="D" xMin="-109" yMin="-26" xMax="1457" yMax="1458">
      <contour>
        <pt x="1258" y="881" on="1"/>
        <pt x="1258" y="898" on="0"/>
        <pt x="1251" y="960" on="0"/>
        <pt x="1241" y="1028" on="0"/>
        <pt x="1227" y="1092" on="0"/>
        <pt x="1220" y="1112" on="1"/>
        <pt x="1211" y="1136" on="0"/>
        <pt x="1183" y="1190" on="0"/>
        <pt x="1149" y="1241" on="0"/>
        <pt x="1111" y="1285" on="0"/>
        <pt x="1093" y="1299" on="1"/>
        <pt x="1051" y="1331" on="0"/>
        <pt x="939" y="1368" on="0"/>
        <pt x="889" y="1368" on="1"/>
        <pt x="865" y="1368" on="0"/>
        <pt x="835" y="1344" on="0"/>
        <pt x="816" y="1308" on="0"/>
        <pt x="804" y="1265" on="0"/>
        <pt x="798" y="1246" on="1"/>
        <pt x="745" y="1103" on="0"/>
        <pt x="644" y="833" on="0"/>
        <pt x="543" y="565" on="0"/>
        <pt x="440" y="291" on="0"/>
        <pt x="386" y="145" on="1"/>
        <pt x="381" y="130" on="0"/>
        <pt x="365" y="86" on="0"/>
        <pt x="365" y="74" on="1"/>
        <pt x="365" y="72" on="0"/>
        <pt x="366" y="63" on="0"/>
        <pt x="369" y="54" on="0"/>
        <pt x="376" y="46" on="0"/>
        <pt x="381" y="45" on="1"/>
        <pt x="385" y="44" on="0"/>
        <pt x="422" y="42" on="0"/>
        <pt x="467" y="41" on="0"/>
        <pt x="508" y="40" on="0"/>
        <pt x="517" y="40" on="1"/>
        <pt x="586" y="40" on="0"/>
        <pt x="722" y="60" on="0"/>
        <pt x="787" y="76" on="1"/>
        <pt x="805" y="80" on="0"/>
        <pt x="847" y="97" on="0"/>
        <pt x="891" y="120" on="0"/>
        <pt x="933" y="148" on="0"/>
        <pt x="950" y="164" on="1"/>
        <pt x="996" y="207" on="0"/>
        <pt x="1080" y="310" on="0"/>
        <pt x="1150" y="420" on="0"/>
        <pt x="1204" y="534" on="0"/>
        <pt x="1220" y="590" on="1"/>
        <pt x="1240" y="659" on="0"/>
        <pt x="1258" y="801" on="0"/>
      </contour>
      <contour>
        <pt x="-109" y="-5" on="1"/>
        <pt x="-109" y="21" on="0"/>
        <pt x="-61" y="39" on="0"/>
        <pt x="10" y="47" on="0"/>
        <pt x="90" y="56" on="0"/>
        <pt x="123" y="73" on="1"/>
        <pt x="133" y="78" on="0"/>
        <pt x="151" y="103" on="0"/>
        <pt x="168" y="135" on="0"/>
        <pt x="182" y="169" on="0"/>
        <pt x="187" y="183" on="1"/>
        <pt x="217" y="266" on="0"/>
        <pt x="290" y="467" on="0"/>
        <pt x="366" y="678" on="0"/>
        <pt x="443" y="886" on="0"/>
        <pt x="509" y="1067" on="0"/>
        <pt x="560" y="1208" on="0"/>
        <pt x="574" y="1247" on="1"/>
        <pt x="579" y="1263" on="0"/>
        <pt x="596" y="1290" on="0"/>
        <pt x="613" y="1315" on="0"/>
        <pt x="625" y="1341" on="0"/>
        <pt x="625" y="1358" on="1"/>
        <pt x="625" y="1369" on="0"/>
        <pt x="615" y="1388" on="0"/>
        <pt x="604" y="1393" on="1"/>
        <pt x="595" y="1395" on="0"/>
        <pt x="552" y="1396" on="0"/>
        <pt x="498" y="1397" on="0"/>
        <pt x="439" y="1401" on="0"/>
        <pt x="391" y="1410" on="0"/>
        <pt x="360" y="1427" on="0"/>
        <pt x="360" y="1441" on="1"/>
        <pt x="360" y="1445" on="0"/>
        <pt x="373" y="1452" on="0"/>
        <pt x="392" y="1456" on="0"/>
        <pt x="414" y="1458" on="0"/>
        <pt x="422" y="1458" on="1"/>
        <pt x="435" y="1458" on="0"/>
        <pt x="479" y="1455" on="0"/>
        <pt x="530" y="1450" on="0"/>
        <pt x="583" y="1445" on="0"/>
        <pt x="604" y="1443" on="1"/>
        <pt x="632" y="1440" on="0"/>
        <pt x="682" y="1432" on="0"/>
        <pt x="731" y="1425" on="0"/>
        <pt x="781" y="1420" on="0"/>
        <pt x="810" y="1420" on="1"/>
        <pt x="829" y="1420" on="0"/>
        <pt x="894" y="1417" on="0"/>
        <pt x="971" y="1408" on="0"/>
        <pt x="1052" y="1391" on="0"/>
        <pt x="1088" y="1377" on="1"/>
        <pt x="1171" y="1345" on="0"/>
        <pt x="1307" y="1228" on="0"/>
        <pt x="1404" y="1073" on="0"/>
        <pt x="1457" y="890" on="0"/>
        <pt x="1457" y="791" on="1"/>
        <pt x="1457" y="713" on="0"/>
        <pt x="1428" y="558" on="0"/>
        <pt x="1398" y="471" on="1"/>
        <pt x="1387" y="437" on="0"/>
        <pt x="1348" y="356" on="0"/>
        <pt x="1288" y="272" on="0"/>
        <pt x="1205" y="188" on="0"/>
        <pt x="1151" y="151" on="1"/>
        <pt x="1092" y="112" on="0"/>
        <pt x="944" y="52" on="0"/>
        <pt x="789" y="11" on="0"/>
        <pt x="637" y="-10" on="0"/>
        <pt x="573" y="-10" on="1"/>
        <pt x="545" y="-10" on="0"/>
        <pt x="484" y="-7" on="0"/>
        <pt x="425" y="-3" on="0"/>
        <pt x="370" y="0" on="0"/>
        <pt x="348" y="0" on="1"/>
        <pt x="294" y="0" on="0"/>
        <pt x="168" y="-8" on="0"/>
        <pt x="50" y="-18" on="0"/>
        <pt x="-45" y="-26" on="0"/>
        <pt x="-67" y="-26" on="1"/>
        <pt x="-72" y="-26" on="0"/>
        <pt x="-87" y="-25" on="0"/>
        <pt x="-100" y="-20" on="0"/>
        <pt x="-109" y="-12" on="0"/>
      </contour>
    </TTGlyph>
    <TTGlyph name="D.swash" xMin="137" yMin="-24" xMax="1753" yMax="1465">
      <contour>
        <pt x="675" y="112" on="1"/>
        <pt x="671" y="102" on="0"/>
        <pt x="658" y="71" on="0"/>
        <pt x="656" y="62" on="1"/>
        <pt x="656" y="53" on="0"/>
        <pt x="690" y="48" on="0"/>
        <pt x="710" y="48" on="1"/>
        <pt x="878" y="48" on="0"/>
        <pt x="1106" y="73" on="0"/>
        <pt x="1165" y="107" on="1"/>
        <pt x="1206" y="131" on="0"/>
        <pt x="1278" y="189" on="0"/>
        <pt x="1345" y="264" on="0"/>
        <pt x="1408" y="359" on="0"/>
        <pt x="1440" y="419" on="1"/>
        <pt x="1490" y="516" on="0"/>
        <pt x="1544" y="736" on="0"/>
        <pt x="1544" y="841" on="1"/>
        <pt x="1544" y="881" on="0"/>
        <pt x="1541" y="957" on="0"/>
        <pt x="1530" y="1032" on="0"/>
        <pt x="1509" y="1107" on="0"/>
        <pt x="1490" y="1145" on="1"/>
        <pt x="1429" y="1269" on="0"/>
        <pt x="1260" y="1382" on="0"/>
        <pt x="1141" y="1382" on="1"/>
        <pt x="1130" y="1368" on="0"/>
        <pt x="1104" y="1317" on="0"/>
        <pt x="1096" y="1294" on="1"/>
      </contour>
      <contour>
        <pt x="137" y="9" on="1"/>
        <pt x="137" y="18" on="0"/>
        <pt x="162" y="30" on="0"/>
        <pt x="182" y="33" on="1"/>
        <pt x="208" y="37" on="0"/>
        <pt x="276" y="43" on="0"/>
        <pt x="340" y="49" on="0"/>
        <pt x="394" y="56" on="0"/>
        <pt x="406" y="62" on="1"/>
        <pt x="416" y="66" on="0"/>
        <pt x="425" y="77" on="0"/>
        <pt x="432" y="88" on="1"/>
        <pt x="442" y="104" on="0"/>
        <pt x="461" y="151" on="0"/>
        <pt x="468" y="171" on="1"/>
        <pt x="876" y="1297" on="1"/>
        <pt x="880" y="1306" on="0"/>
        <pt x="889" y="1330" on="0"/>
        <pt x="896" y="1352" on="0"/>
        <pt x="900" y="1372" on="0"/>
        <pt x="900" y="1377" on="1"/>
        <pt x="900" y="1390" on="0"/>
        <pt x="879" y="1405" on="0"/>
        <pt x="848" y="1413" on="0"/>
        <pt x="813" y="1415" on="0"/>
        <pt x="800" y="1415" on="1"/>
        <pt x="754" y="1415" on="0"/>
        <pt x="627" y="1393" on="0"/>
        <pt x="499" y="1352" on="0"/>
        <pt x="385" y="1292" on="0"/>
        <pt x="352" y="1254" on="1"/>
        <pt x="348" y="1249" on="0"/>
        <pt x="331" y="1224" on="0"/>
        <pt x="331" y="1206" on="1"/>
        <pt x="331" y="1194" on="0"/>
        <pt x="351" y="1184" on="0"/>
        <pt x="377" y="1178" on="0"/>
        <pt x="403" y="1174" on="0"/>
        <pt x="409" y="1168" on="1"/>
        <pt x="438" y="1147" on="0"/>
        <pt x="456" y="1104" on="0"/>
        <pt x="456" y="1083" on="1"/>
        <pt x="456" y="1060" on="0"/>
        <pt x="433" y="1017" on="0"/>
        <pt x="396" y="984" on="0"/>
        <pt x="350" y="965" on="0"/>
        <pt x="328" y="965" on="1"/>
        <pt x="303" y="965" on="0"/>
        <pt x="261" y="992" on="0"/>
        <pt x="230" y="1032" on="0"/>
        <pt x="212" y="1079" on="0"/>
        <pt x="212" y="1100" on="1"/>
        <pt x="212" y="1133" on="0"/>
        <pt x="232" y="1196" on="0"/>
        <pt x="264" y="1252" on="0"/>
        <pt x="303" y="1299" on="0"/>
        <pt x="321" y="1315" on="1"/>
        <pt x="338" y="1331" on="0"/>
        <pt x="388" y="1363" on="0"/>
        <pt x="445" y="1393" on="0"/>
        <pt x="505" y="1417" on="0"/>
        <pt x="532" y="1426" on="1"/>
        <pt x="570" y="1439" on="0"/>
        <pt x="722" y="1465" on="0"/>
        <pt x="838" y="1465" on="1"/>
        <pt x="919" y="1465" on="0"/>
        <pt x="1095" y="1457" on="0"/>
        <pt x="1269" y="1427" on="0"/>
        <pt x="1430" y="1370" on="0"/>
        <pt x="1495" y="1322" on="1"/>
        <pt x="1555" y="1277" on="0"/>
        <pt x="1651" y="1153" on="0"/>
        <pt x="1717" y="1012" on="0"/>
        <pt x="1753" y="860" on="0"/>
        <pt x="1753" y="787" on="1"/>
        <pt x="1753" y="704" on="0"/>
        <pt x="1727" y="545" on="0"/>
        <pt x="1679" y="401" on="0"/>
        <pt x="1611" y="276" on="0"/>
        <pt x="1568" y="227" on="1"/>
        <pt x="1534" y="188" on="0"/>
        <pt x="1459" y="125" on="0"/>
        <pt x="1369" y="72" on="0"/>
        <pt x="1261" y="29" on="0"/>
        <pt x="1194" y="10" on="1"/>
        <pt x="1166" y="3" on="0"/>
        <pt x="1094" y="-10" on="0"/>
        <pt x="989" y="-19" on="0"/>
        <pt x="843" y="-24" on="0"/>
        <pt x="741" y="-24" on="1"/>
        <pt x="684" y="-24" on="0"/>
        <pt x="568" y="-21" on="0"/>
        <pt x="494" y="-21" on="1"/>
        <pt x="200" y="-21" on="1"/>
        <pt x="189" y="-21" on="0"/>
        <pt x="159" y="-19" on="0"/>
        <pt x="150" y="-14" on="1"/>
        <pt x="142" y="-7" on="0"/>
        <pt x="137" y="2" on="0"/>
      </contour>
    </TTGlyph>
    <TTGlyph name="Dcaron" xMin="-109" yMin="-26" xMax="1457" yMax="1866">
      <component glyphName="D" x="0" y="0" flags="0x204"/>
      <component glyphName="Caron" x="330" y="0" flags="0x4"/>
    </TTGlyph>
    <TTGlyph name="Dcaron.swash" xMin="137" yMin="-24" xMax="1753" yMax="1866">
      <component glyphName="D.swash" x="0" y="0" flags="0x204"/>
      <component glyphName="Caron" x="459" y="0" flags="0x4"/>
    </TTGlyph>
    <TTGlyph name="Dcroat" xMin="-105" yMin="-16" xMax="1461" yMax="1470">
      <component glyphName="Eth" x="0" y="0" flags="0x204"/>
    </TTGlyph>
    <TTGlyph name="Dcroat.swash" xMin="137" yMin="-24" xMax="1753" yMax="1465">
      <component glyphName="Eth.swash" x="0" y="0" flags="0x204"/>
    </TTGlyph>
    <TTGlyph name="Dieresis" xMin="604" yMin="1619" xMax="1190" yMax="1834">
      <contour>
        <pt x="604" y="1723" on="1"/>
        <pt x="604" y="1744" on="0"/>
        <pt x="617" y="1784" on="0"/>
        <pt x="642" y="1814" on="0"/>
        <pt x="678" y="1832" on="0"/>
        <pt x="701" y="1832" on="1"/>
        <pt x="720" y="1832" on="0"/>
        <pt x="763" y="1817" on="0"/>
        <pt x="800" y="1789" on="0"/>
        <pt x="824" y="1751" on="0"/>
        <pt x="824" y="1728" on="1"/>
        <pt x="824" y="1710" on="0"/>
        <pt x="803" y="1672" on="0"/>
        <pt x="771" y="1640" on="0"/>
        <pt x="732" y="1619" on="0"/>
        <pt x="713" y="1619" on="1"/>
        <pt x="695" y="1619" on="0"/>
        <pt x="657" y="1636" on="0"/>
        <pt x="625" y="1665" on="0"/>
        <pt x="604" y="1703" on="0"/>
      </contour>
      <contour>
        <pt x="971" y="1725" on="1"/>
        <pt x="971" y="1746" on="0"/>
        <pt x="984" y="1786" on="0"/>
        <pt x="1009" y="1816" on="0"/>
        <pt x="1044" y="1834" on="0"/>
        <pt x="1067" y="1834" on="1"/>
        <pt x="1086" y="1834" on="0"/>
        <pt x="1129" y="1819" on="0"/>
        <pt x="1166" y="1792" on="0"/>
        <pt x="1190" y="1753" on="0"/>
        <pt x="1190" y="1730" on="1"/>
        <pt x="1190" y="1712" on="0"/>
        <pt x="1169" y="1674" on="0"/>
        <pt x="1136" y="1642" on="0"/>
        <pt x="1097" y="1621" on="0"/>
        <pt x="1078" y="1621" on="1"/>
        <pt x="1060" y="1621" on="0"/>
        <pt x="1023" y="1638" on="0"/>
        <pt x="991" y="1667" on="0"/>
        <pt x="971" y="1705" on="0"/>
      </contour>
    </TTGlyph>
    <TTGlyph name="Dotaccent" xMin="793" yMin="1615" xMax="1018" yMax="1835">
      <contour>
        <pt x="793" y="1725" on="1"/>
        <pt x="793" y="1746" on="0"/>
        <pt x="809" y="1786" on="0"/>
        <pt x="837" y="1817" on="0"/>
        <pt x="876" y="1835" on="0"/>
        <pt x="899" y="1835" on="1"/>
        <pt x="921" y="1835" on="0"/>
        <pt x="963" y="1820" on="0"/>
        <pt x="995" y="1792" on="0"/>
        <pt x="1016" y="1753" on="0"/>
        <pt x="1018" y="1730" on="1"/>
        <pt x="1018" y="1722" on="1"/>
        <pt x="1018" y="1697" on="0"/>
        <pt x="998" y="1658" on="0"/>
        <pt x="966" y="1630" on="0"/>
        <pt x="924" y="1615" on="0"/>
        <pt x="902" y="1615" on="1"/>
        <pt x="884" y="1615" on="0"/>
        <pt x="847" y="1631" on="0"/>
        <pt x="816" y="1658" on="0"/>
        <pt x="795" y="1695" on="0"/>
        <pt x="793" y="1716" on="1"/>
      </contour>
    </TTGlyph>
    <TTGlyph name="E" xMin="-99" yMin="-7" xMax="1472" yMax="1432">
      <contour>
        <pt x="-99" y="16" on="1"/>
        <pt x="-99" y="33" on="0"/>
        <pt x="-70" y="45" on="0"/>
        <pt x="-23" y="48" on="0"/>
        <pt x="33" y="49" on="0"/>
        <pt x="86" y="60" on="0"/>
        <pt x="131" y="89" on="0"/>
        <pt x="142" y="118" on="1"/>
        <pt x="195" y="260" on="0"/>
        <pt x="284" y="497" on="0"/>
        <pt x="360" y="700" on="0"/>
        <pt x="427" y="875" on="0"/>
        <pt x="488" y="1038" on="0"/>
        <pt x="547" y="1195" on="0"/>
        <pt x="579" y="1277" on="1"/>
        <pt x="582" y="1283" on="0"/>
        <pt x="593" y="1300" on="0"/>
        <pt x="604" y="1319" on="0"/>
        <pt x="612" y="1338" on="0"/>
        <pt x="612" y="1346" on="1"/>
        <pt x="612" y="1356" on="0"/>
        <pt x="568" y="1371" on="0"/>
        <pt x="511" y="1380" on="0"/>
        <pt x="458" y="1384" on="0"/>
        <pt x="448" y="1384" on="1"/>
        <pt x="442" y="1384" on="0"/>
        <pt x="414" y="1385" on="0"/>
        <pt x="386" y="1389" on="0"/>
        <pt x="365" y="1398" on="0"/>
        <pt x="365" y="1406" on="1"/>
        <pt x="365" y="1414" on="0"/>
        <pt x="379" y="1422" on="0"/>
        <pt x="399" y="1426" on="0"/>
        <pt x="417" y="1427" on="0"/>
        <pt x="422" y="1427" on="1"/>
        <pt x="428" y="1427" on="0"/>
        <pt x="465" y="1426" on="0"/>
        <pt x="516" y="1424" on="0"/>
        <pt x="575" y="1422" on="0"/>
        <pt x="630" y="1420" on="0"/>
        <pt x="675" y="1419" on="0"/>
        <pt x="688" y="1419" on="1"/>
        <pt x="735" y="1419" on="0"/>
        <pt x="833" y="1423" on="0"/>
        <pt x="930" y="1428" on="0"/>
        <pt x="1024" y="1432" on="0"/>
        <pt x="1067" y="1432" on="1"/>
        <pt x="1111" y="1432" on="0"/>
        <pt x="1211" y="1431" on="0"/>
        <pt x="1308" y="1430" on="0"/>
        <pt x="1397" y="1429" on="0"/>
        <pt x="1430" y="1429" on="1"/>
        <pt x="1450" y="1429" on="0"/>
        <pt x="1472" y="1428" on="0"/>
        <pt x="1472" y="1424" on="1"/>
        <pt x="1472" y="1395" on="0"/>
        <pt x="1458" y="1355" on="0"/>
        <pt x="1451" y="1329" on="1"/>
        <pt x="1435" y="1275" on="0"/>
        <pt x="1415" y="1171" on="0"/>
        <pt x="1405" y="1116" on="1"/>
        <pt x="1403" y="1105" on="0"/>
        <pt x="1395" y="1088" on="0"/>
        <pt x="1391" y="1088" on="1"/>
        <pt x="1387" y="1088" on="0"/>
        <pt x="1377" y="1131" on="0"/>
        <pt x="1372" y="1152" on="1"/>
        <pt x="1367" y="1178" on="0"/>
        <pt x="1362" y="1223" on="0"/>
        <pt x="1353" y="1265" on="0"/>
        <pt x="1335" y="1307" on="0"/>
        <pt x="1318" y="1329" on="1"/>
        <pt x="1304" y="1347" on="0"/>
        <pt x="1276" y="1364" on="0"/>
        <pt x="1256" y="1372" on="1"/>
        <pt x="1227" y="1382" on="0"/>
        <pt x="1154" y="1392" on="0"/>
        <pt x="1075" y="1397" on="0"/>
        <pt x="994" y="1398" on="0"/>
        <pt x="958" y="1398" on="1"/>
        <pt x="929" y="1398" on="0"/>
        <pt x="865" y="1396" on="0"/>
        <pt x="842" y="1391" on="1"/>
        <pt x="836" y="1383" on="0"/>
        <pt x="820" y="1360" on="0"/>
        <pt x="805" y="1336" on="0"/>
        <pt x="793" y="1314" on="0"/>
        <pt x="790" y="1308" on="1"/>
        <pt x="746" y="1178" on="0"/>
        <pt x="646" y="927" on="0"/>
        <pt x="600" y="794" on="1"/>
        <pt x="595" y="777" on="0"/>
        <pt x="595" y="766" on="1"/>
        <pt x="595" y="762" on="0"/>
        <pt x="602" y="751" on="0"/>
        <pt x="610" y="751" on="1"/>
        <pt x="613" y="751" on="0"/>
        <pt x="651" y="752" on="0"/>
        <pt x="707" y="753" on="0"/>
        <pt x="778" y="754" on="0"/>
        <pt x="851" y="755" on="0"/>
        <pt x="920" y="756" on="0"/>
        <pt x="948" y="756" on="1"/>
        <pt x="970" y="764" on="0"/>
        <pt x="1005" y="782" on="0"/>
        <pt x="1035" y="805" on="0"/>
        <pt x="1061" y="833" on="0"/>
        <pt x="1074" y="851" on="1"/>
        <pt x="1084" y="867" on="0"/>
        <pt x="1111" y="928" on="0"/>
        <pt x="1139" y="988" on="0"/>
        <pt x="1165" y="1033" on="0"/>
        <pt x="1176" y="1033" on="1"/>
        <pt x="1193" y="1033" on="0"/>
        <pt x="1193" y="1017" on="1"/>
        <pt x="1193" y="1011" on="0"/>
        <pt x="1185" y="983" on="0"/>
        <pt x="1175" y="953" on="0"/>
        <pt x="1164" y="925" on="0"/>
        <pt x="1161" y="919" on="1"/>
        <pt x="1158" y="911" on="0"/>
        <pt x="1147" y="878" on="0"/>
        <pt x="1134" y="839" on="0"/>
        <pt x="1121" y="801" on="0"/>
        <pt x="1117" y="789" on="1"/>
        <pt x="1097" y="728" on="0"/>
        <pt x="1053" y="618" on="0"/>
        <pt x="1033" y="555" on="1"/>
        <pt x="1026" y="534" on="0"/>
        <pt x="1010" y="474" on="0"/>
        <pt x="992" y="419" on="0"/>
        <pt x="974" y="381" on="0"/>
        <pt x="965" y="381" on="1"/>
        <pt x="948" y="381" on="0"/>
        <pt x="948" y="398" on="1"/>
        <pt x="948" y="406" on="0"/>
        <pt x="956" y="448" on="0"/>
        <pt x="967" y="502" on="0"/>
        <pt x="975" y="563" on="0"/>
        <pt x="975" y="590" on="1"/>
        <pt x="975" y="624" on="0"/>
        <pt x="968" y="677" on="0"/>
        <pt x="948" y="682" on="1"/>
        <pt x="922" y="689" on="0"/>
        <pt x="848" y="698" on="0"/>
        <pt x="770" y="702" on="0"/>
        <pt x="697" y="704" on="0"/>
        <pt x="671" y="704" on="1"/>
        <pt x="639" y="704" on="0"/>
        <pt x="592" y="703" on="0"/>
        <pt x="578" y="701" on="1"/>
        <pt x="573" y="699" on="0"/>
        <pt x="556" y="688" on="0"/>
        <pt x="553" y="682" on="1"/>
        <pt x="545" y="665" on="0"/>
        <pt x="530" y="626" on="0"/>
        <pt x="519" y="593" on="1"/>
        <pt x="505" y="555" on="0"/>
        <pt x="474" y="470" on="0"/>
        <pt x="440" y="378" on="0"/>
        <pt x="406" y="284" on="0"/>
        <pt x="389" y="239" on="1"/>
        <pt x="384" y="226" on="0"/>
        <pt x="366" y="191" on="0"/>
        <pt x="348" y="148" on="0"/>
        <pt x="334" y="98" on="0"/>
        <pt x="334" y="71" on="1"/>
        <pt x="334" y="48" on="0"/>
        <pt x="346" y="48" on="1"/>
        <pt x="621" y="48" on="1"/>
        <pt x="630" y="48" on="0"/>
        <pt x="667" y="49" on="0"/>
        <pt x="713" y="50" on="0"/>
        <pt x="765" y="52" on="0"/>
        <pt x="812" y="55" on="0"/>
        <pt x="851" y="59" on="0"/>
        <pt x="861" y="61" on="1"/>
        <pt x="897" y="66" on="0"/>
        <pt x="946" y="78" on="0"/>
        <pt x="982" y="95" on="0"/>
        <pt x="1011" y="118" on="0"/>
        <pt x="1027" y="133" on="1"/>
        <pt x="1073" y="174" on="0"/>
        <pt x="1158" y="282" on="0"/>
        <pt x="1199" y="334" on="1"/>
        <pt x="1213" y="351" on="0"/>
        <pt x="1223" y="351" on="1"/>
        <pt x="1232" y="351" on="0"/>
        <pt x="1232" y="330" on="1"/>
        <pt x="1232" y="321" on="0"/>
        <pt x="1219" y="274" on="0"/>
        <pt x="1201" y="214" on="0"/>
        <pt x="1181" y="150" on="0"/>
        <pt x="1174" y="123" on="1"/>
        <pt x="1170" y="110" on="0"/>
        <pt x="1165" y="71" on="0"/>
        <pt x="1154" y="35" on="0"/>
        <pt x="1134" y="10" on="0"/>
        <pt x="1116" y="10" on="1"/>
        <pt x="1057" y="10" on="0"/>
        <pt x="933" y="7" on="0"/>
        <pt x="815" y="3" on="0"/>
        <pt x="707" y="0" on="0"/>
        <pt x="664" y="0" on="1"/>
        <pt x="652" y="0" on="0"/>
        <pt x="588" y="1" on="0"/>
        <pt x="502" y="2" on="0"/>
        <pt x="404" y="3" on="0"/>
        <pt x="314" y="4" on="0"/>
        <pt x="240" y="5" on="0"/>
        <pt x="221" y="5" on="1"/>
        <pt x="195" y="5" on="0"/>
        <pt x="119" y="1" on="0"/>
        <pt x="37" y="-3" on="0"/>
        <pt x="-43" y="-7" on="0"/>
        <pt x="-73" y="-7" on="1"/>
        <pt x="-84" y="-7" on="0"/>
        <pt x="-99" y="2" on="0"/>
      </contour>
    </TTGlyph>
    <TTGlyph name="Eacute" xMin="-99" yMin="-7" xMax="1533" yMax="1868">
      <component glyphName="E" x="0" y="0" flags="0x204"/>
      <component glyphName="Acute" x="767" y="0" flags="0x4"/>
    </TTGlyph>
    <TTGlyph name="Ecaron" xMin="-99" yMin="-7" xMax="1472" yMax="1866">
      <component glyphName="E" x="0" y="0" flags="0x204"/>
      <component glyphName="Caron" x="335" y="0" flags="0x4"/>
    </TTGlyph>
    <TTGlyph name="Ecircumflex" xMin="-99" yMin="-7" xMax="1472" yMax="1868">
      <component glyphName="E" x="0" y="0" flags="0x204"/>
      <component glyphName="Circumflex" x="264" y="0" flags="0x4"/>
    </TTGlyph>
    <TTGlyph name="Edieresis" xMin="-99" yMin="-7" xMax="1472" yMax="1834">
      <component glyphName="E" x="0" y="0" flags="0x204"/>
      <component glyphName="Dieresis" x="225" y="0" flags="0x4"/>
    </TTGlyph>
    <TTGlyph name="Edotaccent" xMin="-99" yMin="-7" xMax="1472" yMax="1835">
      <component glyphName="E" x="0" y="0" flags="0x204"/>
      <component glyphName="Dotaccent" x="221" y="0" flags="0x4"/>
    </TTGlyph>
    <TTGlyph name="Egrave" xMin="-99" yMin="-7" xMax="1472" yMax="1868">
      <component glyphName="E" x="0" y="0" flags="0x204"/>
      <component glyphName="Grave" x="685" y="0" flags="0x4"/>
    </TTGlyph>
    <TTGlyph name="Emacron" xMin="-99" yMin="-7" xMax="1472" yMax="1747">
      <component glyphName="E" x="0" y="0" flags="0x204"/>
      <component glyphName="Macron" x="284" y="0" flags="0x4"/>
    </TTGlyph>
    <TTGlyph name="Eogonek" xMin="-99" yMin="-523" xMax="1472" yMax="1432">
      <contour>
        <pt x="858" y="-435" on="1"/>
        <pt x="855" y="-446" on="0"/>
        <pt x="824" y="-477" on="0"/>
        <pt x="778" y="-504" on="0"/>
        <pt x="721" y="-523" on="0"/>
        <pt x="692" y="-523" on="1"/>
        <pt x="662" y="-523" on="0"/>
        <pt x="583" y="-515" on="0"/>
        <pt x="511" y="-488" on="0"/>
        <pt x="461" y="-434" on="0"/>
        <pt x="461" y="-388" on="1"/>
        <pt x="461" y="-361" on="0"/>
        <pt x="471" y="-328" on="1"/>
        <pt x="490" y="-267" on="0"/>
        <pt x="564" y="-169" on="0"/>
        <pt x="654" y="-90" on="0"/>
        <pt x="746" y="-31" on="0"/>
        <pt x="783" y="-9" on="1"/>
        <pt x="788" y="-6" on="0"/>
        <pt x="797" y="0" on="0"/>
        <pt x="802" y="2" on="1"/>
        <pt x="764" y="1" on="0"/>
        <pt x="693" y="0" on="0"/>
        <pt x="664" y="0" on="1"/>
        <pt x="652" y="0" on="0"/>
        <pt x="588" y="1" on="0"/>
        <pt x="502" y="2" on="0"/>
        <pt x="404" y="3" on="0"/>
        <pt x="314" y="4" on="0"/>
        <pt x="240" y="5" on="0"/>
        <pt x="221" y="5" on="1"/>
        <pt x="195" y="5" on="0"/>
        <pt x="119" y="1" on="0"/>
        <pt x="37" y="-3" on="0"/>
        <pt x="-43" y="-7" on="0"/>
        <pt x="-73" y="-7" on="1"/>
        <pt x="-84" y="-7" on="0"/>
        <pt x="-99" y="2" on="0"/>
        <pt x="-99" y="16" on="1"/>
        <pt x="-99" y="33" on="0"/>
        <pt x="-70" y="45" on="0"/>
        <pt x="-23" y="48" on="0"/>
        <pt x="33" y="49" on="0"/>
        <pt x="86" y="60" on="0"/>
        <pt x="131" y="89" on="0"/>
        <pt x="142" y="118" on="1"/>
        <pt x="195" y="260" on="0"/>
        <pt x="284" y="497" on="0"/>
        <pt x="360" y="700" on="0"/>
        <pt x="427" y="875" on="0"/>
        <pt x="488" y="1038" on="0"/>
        <pt x="547" y="1195" on="0"/>
        <pt x="579" y="1277" on="1"/>
        <pt x="582" y="1283" on="0"/>
        <pt x="593" y="1300" on="0"/>
        <pt x="604" y="1319" on="0"/>
        <pt x="612" y="1338" on="0"/>
        <pt x="612" y="1346" on="1"/>
        <pt x="612" y="1356" on="0"/>
        <pt x="568" y="1371" on="0"/>
        <pt x="511" y="1380" on="0"/>
        <pt x="458" y="1384" on="0"/>
        <pt x="448" y="1384" on="1"/>
        <pt x="442" y="1384" on="0"/>
        <pt x="414" y="1385" on="0"/>
        <pt x="386" y="1389" on="0"/>
        <pt x="365" y="1398" on="0"/>
        <pt x="365" y="1406" on="1"/>
        <pt x="365" y="1414" on="0"/>
        <pt x="379" y="1422" on="0"/>
        <pt x="399" y="1426" on="0"/>
        <pt x="417" y="1427" on="0"/>
        <pt x="422" y="1427" on="1"/>
        <pt x="428" y="1427" on="0"/>
        <pt x="465" y="1426" on="0"/>
        <pt x="516" y="1424" on="0"/>
        <pt x="575" y="1422" on="0"/>
        <pt x="630" y="1420" on="0"/>
        <pt x="675" y="1419" on="0"/>
        <pt x="688" y="1419" on="1"/>
        <pt x="735" y="1419" on="0"/>
        <pt x="833" y="1423" on="0"/>
        <pt x="930" y="1428" on="0"/>
        <pt x="1024" y="1432" on="0"/>
        <pt x="1067" y="1432" on="1"/>
        <pt x="1111" y="1432" on="0"/>
        <pt x="1211" y="1431" on="0"/>
        <pt x="1308" y="1430" on="0"/>
        <pt x="1397" y="1429" on="0"/>
        <pt x="1430" y="1429" on="1"/>
        <pt x="1450" y="1429" on="0"/>
        <pt x="1472" y="1428" on="0"/>
        <pt x="1472" y="1424" on="1"/>
        <pt x="1472" y="1395" on="0"/>
        <pt x="1458" y="1355" on="0"/>
        <pt x="1451" y="1329" on="1"/>
        <pt x="1435" y="1275" on="0"/>
        <pt x="1415" y="1171" on="0"/>
        <pt x="1405" y="1116" on="1"/>
        <pt x="1403" y="1105" on="0"/>
        <pt x="1395" y="1088" on="0"/>
        <pt x="1391" y="1088" on="1"/>
        <pt x="1387" y="1088" on="0"/>
        <pt x="1377" y="1131" on="0"/>
        <pt x="1372" y="1152" on="1"/>
        <pt x="1367" y="1178" on="0"/>
        <pt x="1362" y="1223" on="0"/>
        <pt x="1353" y="1265" on="0"/>
        <pt x="1335" y="1307" on="0"/>
        <pt x="1318" y="1329" on="1"/>
        <pt x="1304" y="1347" on="0"/>
        <pt x="1276" y="1364" on="0"/>
        <pt x="1256" y="1372" on="1"/>
        <pt x="1227" y="1382" on="0"/>
        <pt x="1154" y="1392" on="0"/>
        <pt x="1075" y="1397" on="0"/>
        <pt x="994" y="1398" on="0"/>
        <pt x="958" y="1398" on="1"/>
        <pt x="929" y="1398" on="0"/>
        <pt x="865" y="1396" on="0"/>
        <pt x="842" y="1391" on="1"/>
        <pt x="836" y="1383" on="0"/>
        <pt x="820" y="1360" on="0"/>
        <pt x="805" y="1336" on="0"/>
        <pt x="793" y="1314" on="0"/>
        <pt x="790" y="1308" on="1"/>
        <pt x="746" y="1178" on="0"/>
        <pt x="646" y="927" on="0"/>
        <pt x="600" y="794" on="1"/>
        <pt x="595" y="777" on="0"/>
        <pt x="595" y="766" on="1"/>
        <pt x="595" y="762" on="0"/>
        <pt x="602" y="751" on="0"/>
        <pt x="610" y="751" on="1"/>
        <pt x="613" y="751" on="0"/>
        <pt x="651" y="752" on="0"/>
        <pt x="707" y="753" on="0"/>
        <pt x="778" y="754" on="0"/>
        <pt x="851" y="755" on="0"/>
        <pt x="920" y="756" on="0"/>
        <pt x="948" y="756" on="1"/>
        <pt x="970" y="764" on="0"/>
        <pt x="1005" y="782" on="0"/>
        <pt x="1035" y="805" on="0"/>
        <pt x="1061" y="833" on="0"/>
        <pt x="1074" y="851" on="1"/>
        <pt x="1084" y="867" on="0"/>
        <pt x="1111" y="928" on="0"/>
        <pt x="1139" y="988" on="0"/>
        <pt x="1165" y="1033" on="0"/>
        <pt x="1176" y="1033" on="1"/>
        <pt x="1193" y="1033" on="0"/>
        <pt x="1193" y="1017" on="1"/>
        <pt x="1193" y="1011" on="0"/>
        <pt x="1185" y="983" on="0"/>
        <pt x="1175" y="953" on="0"/>
        <pt x="1164" y="925" on="0"/>
        <pt x="1161" y="919" on="1"/>
        <pt x="1158" y="911" on="0"/>
        <pt x="1147" y="878" on="0"/>
        <pt x="1134" y="839" on="0"/>
        <pt x="1121" y="801" on="0"/>
        <pt x="1117" y="789" on="1"/>
        <pt x="1097" y="728" on="0"/>
        <pt x="1053" y="618" on="0"/>
        <pt x="1033" y="555" on="1"/>
        <pt x="1026" y="534" on="0"/>
        <pt x="1010" y="474" on="0"/>
        <pt x="992" y="419" on="0"/>
        <pt x="974" y="381" on="0"/>
        <pt x="965" y="381" on="1"/>
        <pt x="948" y="381" on="0"/>
        <pt x="948" y="398" on="1"/>
        <pt x="948" y="406" on="0"/>
        <pt x="956" y="448" on="0"/>
        <pt x="967" y="502" on="0"/>
        <pt x="975" y="563" on="0"/>
        <pt x="975" y="590" on="1"/>
        <pt x="975" y="624" on="0"/>
        <pt x="968" y="677" on="0"/>
        <pt x="948" y="682" on="1"/>
        <pt x="922" y="689" on="0"/>
        <pt x="848" y="698" on="0"/>
        <pt x="770" y="702" on="0"/>
        <pt x="697" y="704" on="0"/>
        <pt x="671" y="704" on="1"/>
        <pt x="639" y="704" on="0"/>
        <pt x="592" y="703" on="0"/>
        <pt x="578" y="701" on="1"/>
        <pt x="573" y="699" on="0"/>
        <pt x="556" y="688" on="0"/>
        <pt x="553" y="682" on="1"/>
        <pt x="545" y="665" on="0"/>
        <pt x="530" y="626" on="0"/>
        <pt x="519" y="593" on="1"/>
        <pt x="505" y="555" on="0"/>
        <pt x="474" y="470" on="0"/>
        <pt x="440" y="378" on="0"/>
        <pt x="406" y="284" on="0"/>
        <pt x="389" y="239" on="1"/>
        <pt x="384" y="226" on="0"/>
        <pt x="366" y="191" on="0"/>
        <pt x="348" y="148" on="0"/>
        <pt x="334" y="98" on="0"/>
        <pt x="334" y="71" on="1"/>
        <pt x="334" y="48" on="0"/>
        <pt x="346" y="48" on="1"/>
        <pt x="621" y="48" on="1"/>
        <pt x="630" y="48" on="0"/>
        <pt x="667" y="49" on="0"/>
        <pt x="713" y="50" on="0"/>
        <pt x="765" y="52" on="0"/>
        <pt x="812" y="55" on="0"/>
        <pt x="851" y="59" on="0"/>
        <pt x="861" y="61" on="1"/>
        <pt x="897" y="66" on="0"/>
        <pt x="946" y="78" on="0"/>
        <pt x="982" y="95" on="0"/>
        <pt x="1011" y="118" on="0"/>
        <pt x="1027" y="133" on="1"/>
        <pt x="1073" y="174" on="0"/>
        <pt x="1158" y="282" on="0"/>
        <pt x="1199" y="334" on="1"/>
        <pt x="1213" y="351" on="0"/>
        <pt x="1223" y="351" on="1"/>
        <pt x="1232" y="351" on="0"/>
        <pt x="1232" y="330" on="1"/>
        <pt x="1232" y="321" on="0"/>
        <pt x="1219" y="274" on="0"/>
        <pt x="1201" y="214" on="0"/>
        <pt x="1181" y="150" on="0"/>
        <pt x="1174" y="123" on="1"/>
        <pt x="1170" y="110" on="0"/>
        <pt x="1165" y="71" on="0"/>
        <pt x="1154" y="35" on="0"/>
        <pt x="1134" y="10" on="0"/>
        <pt x="1116" y="10" on="1"/>
        <pt x="1062" y="10" on="0"/>
        <pt x="951" y="8" on="0"/>
        <pt x="897" y="6" on="1"/>
        <pt x="850" y="-29" on="0"/>
        <pt x="772" y="-91" on="0"/>
        <pt x="711" y="-157" on="0"/>
        <pt x="666" y="-232" on="0"/>
        <pt x="651" y="-279" on="1"/>
        <pt x="646" y="-295" on="0"/>
        <pt x="641" y="-325" on="0"/>
        <pt x="641" y="-339" on="1"/>
        <pt x="641" y="-380" on="0"/>
        <pt x="686" y="-433" on="0"/>
        <pt x="736" y="-433" on="1"/>
        <pt x="757" y="-433" on="0"/>
        <pt x="792" y="-424" on="0"/>
        <pt x="819" y="-412" on="0"/>
        <pt x="840" y="-403" on="0"/>
        <pt x="846" y="-403" on="1"/>
        <pt x="860" y="-403" on="0"/>
        <pt x="860" y="-419" on="1"/>
        <pt x="860" y="-425" on="0"/>
      </contour>
    </TTGlyph>
    <TTGlyph name="Eth" xMin="-105" yMin="-16" xMax="1461" yMax="1470">
      <contour>
        <pt x="1262" y="891" on="1"/>
        <pt x="1262" y="909" on="0"/>
        <pt x="1255" y="971" on="0"/>
        <pt x="1245" y="1039" on="0"/>
        <pt x="1231" y="1103" on="0"/>
        <pt x="1224" y="1123" on="1"/>
        <pt x="1215" y="1148" on="0"/>
        <pt x="1187" y="1202" on="0"/>
        <pt x="1153" y="1252" on="0"/>
        <pt x="1115" y="1296" on="0"/>
        <pt x="1097" y="1310" on="1"/>
        <pt x="1055" y="1342" on="0"/>
        <pt x="943" y="1379" on="0"/>
        <pt x="893" y="1379" on="1"/>
        <pt x="869" y="1379" on="0"/>
        <pt x="839" y="1355" on="0"/>
        <pt x="820" y="1319" on="0"/>
        <pt x="808" y="1277" on="0"/>
        <pt x="802" y="1258" on="1"/>
        <pt x="754" y="1127" on="0"/>
        <pt x="663" y="887" on="0"/>
        <pt x="618" y="766" on="1"/>
        <pt x="631" y="767" on="0"/>
        <pt x="677" y="768" on="0"/>
        <pt x="726" y="769" on="0"/>
        <pt x="772" y="769" on="0"/>
        <pt x="786" y="769" on="1"/>
        <pt x="799" y="769" on="0"/>
        <pt x="842" y="769" on="0"/>
        <pt x="888" y="768" on="0"/>
        <pt x="930" y="767" on="0"/>
        <pt x="944" y="766" on="1"/>
        <pt x="951" y="766" on="0"/>
        <pt x="958" y="751" on="0"/>
        <pt x="958" y="740" on="1"/>
        <pt x="958" y="734" on="0"/>
        <pt x="954" y="723" on="0"/>
        <pt x="953" y="718" on="1"/>
        <pt x="951" y="712" on="0"/>
        <pt x="938" y="693" on="0"/>
        <pt x="923" y="675" on="0"/>
        <pt x="908" y="661" on="0"/>
        <pt x="904" y="661" on="1"/>
        <pt x="891" y="660" on="0"/>
        <pt x="850" y="658" on="0"/>
        <pt x="805" y="657" on="0"/>
        <pt x="764" y="657" on="0"/>
        <pt x="751" y="657" on="1"/>
        <pt x="737" y="657" on="0"/>
        <pt x="690" y="657" on="0"/>
        <pt x="639" y="658" on="0"/>
        <pt x="592" y="660" on="0"/>
        <pt x="578" y="661" on="1"/>
        <pt x="534" y="538" on="0"/>
        <pt x="440" y="289" on="0"/>
        <pt x="390" y="157" on="1"/>
        <pt x="387" y="149" on="0"/>
        <pt x="380" y="129" on="0"/>
        <pt x="374" y="109" on="0"/>
        <pt x="369" y="91" on="0"/>
        <pt x="369" y="86" on="1"/>
        <pt x="369" y="81" on="0"/>
        <pt x="374" y="60" on="0"/>
        <pt x="385" y="55" on="1"/>
        <pt x="389" y="54" on="0"/>
        <pt x="426" y="52" on="0"/>
        <pt x="471" y="51" on="0"/>
        <pt x="512" y="50" on="0"/>
        <pt x="521" y="50" on="1"/>
        <pt x="590" y="50" on="0"/>
        <pt x="726" y="72" on="0"/>
        <pt x="791" y="88" on="1"/>
        <pt x="809" y="92" on="0"/>
        <pt x="851" y="109" on="0"/>
        <pt x="895" y="131" on="0"/>
        <pt x="937" y="160" on="0"/>
        <pt x="954" y="176" on="1"/>
        <pt x="1000" y="219" on="0"/>
        <pt x="1084" y="321" on="0"/>
        <pt x="1154" y="431" on="0"/>
        <pt x="1208" y="546" on="0"/>
        <pt x="1224" y="602" on="1"/>
        <pt x="1244" y="671" on="0"/>
        <pt x="1262" y="813" on="0"/>
      </contour>
      <contour>
        <pt x="156" y="661" on="1"/>
        <pt x="150" y="661" on="0"/>
        <pt x="144" y="680" on="0"/>
        <pt x="144" y="694" on="1"/>
        <pt x="144" y="700" on="0"/>
        <pt x="146" y="711" on="0"/>
        <pt x="148" y="718" on="1"/>
        <pt x="156" y="739" on="0"/>
        <pt x="183" y="767" on="0"/>
        <pt x="191" y="766" on="1"/>
        <pt x="242" y="763" on="0"/>
        <pt x="294" y="763" on="1"/>
        <pt x="344" y="763" on="0"/>
        <pt x="397" y="766" on="1"/>
        <pt x="427" y="847" on="0"/>
        <pt x="483" y="997" on="0"/>
        <pt x="531" y="1126" on="0"/>
        <pt x="567" y="1228" on="0"/>
        <pt x="578" y="1259" on="1"/>
        <pt x="583" y="1275" on="0"/>
        <pt x="600" y="1302" on="0"/>
        <pt x="617" y="1327" on="0"/>
        <pt x="629" y="1353" on="0"/>
        <pt x="629" y="1370" on="1"/>
        <pt x="629" y="1379" on="0"/>
        <pt x="619" y="1399" on="0"/>
        <pt x="608" y="1403" on="1"/>
        <pt x="599" y="1405" on="0"/>
        <pt x="556" y="1406" on="0"/>
        <pt x="502" y="1408" on="0"/>
        <pt x="443" y="1412" on="0"/>
        <pt x="395" y="1421" on="0"/>
        <pt x="364" y="1438" on="0"/>
        <pt x="364" y="1451" on="1"/>
        <pt x="364" y="1456" on="0"/>
        <pt x="377" y="1463" on="0"/>
        <pt x="396" y="1468" on="0"/>
        <pt x="418" y="1470" on="0"/>
        <pt x="426" y="1470" on="1"/>
        <pt x="439" y="1470" on="0"/>
        <pt x="483" y="1466" on="0"/>
        <pt x="534" y="1461" on="0"/>
        <pt x="587" y="1455" on="0"/>
        <pt x="608" y="1453" on="1"/>
        <pt x="636" y="1450" on="0"/>
        <pt x="686" y="1443" on="0"/>
        <pt x="735" y="1436" on="0"/>
        <pt x="785" y="1431" on="0"/>
        <pt x="814" y="1431" on="1"/>
        <pt x="833" y="1431" on="0"/>
        <pt x="898" y="1428" on="0"/>
        <pt x="975" y="1419" on="0"/>
        <pt x="1056" y="1402" on="0"/>
        <pt x="1092" y="1387" on="1"/>
        <pt x="1175" y="1355" on="0"/>
        <pt x="1311" y="1239" on="0"/>
        <pt x="1408" y="1085" on="0"/>
        <pt x="1461" y="900" on="0"/>
        <pt x="1461" y="801" on="1"/>
        <pt x="1461" y="724" on="0"/>
        <pt x="1432" y="571" on="0"/>
        <pt x="1402" y="483" on="1"/>
        <pt x="1391" y="449" on="0"/>
        <pt x="1352" y="368" on="0"/>
        <pt x="1292" y="283" on="0"/>
        <pt x="1209" y="199" on="0"/>
        <pt x="1155" y="163" on="1"/>
        <pt x="1096" y="123" on="0"/>
        <pt x="948" y="62" on="0"/>
        <pt x="793" y="21" on="0"/>
        <pt x="641" y="0" on="0"/>
        <pt x="577" y="0" on="1"/>
        <pt x="549" y="0" on="0"/>
        <pt x="488" y="3" on="0"/>
        <pt x="429" y="7" on="0"/>
        <pt x="374" y="10" on="0"/>
        <pt x="352" y="10" on="1"/>
        <pt x="298" y="10" on="0"/>
        <pt x="172" y="2" on="0"/>
        <pt x="54" y="-8" on="0"/>
        <pt x="-41" y="-16" on="0"/>
        <pt x="-63" y="-16" on="1"/>
        <pt x="-68" y="-16" on="0"/>
        <pt x="-83" y="-15" on="0"/>
        <pt x="-96" y="-10" on="0"/>
        <pt x="-105" y="-2" on="0"/>
        <pt x="-105" y="5" on="1"/>
        <pt x="-105" y="31" on="0"/>
        <pt x="-57" y="50" on="0"/>
        <pt x="14" y="58" on="0"/>
        <pt x="94" y="68" on="0"/>
        <pt x="127" y="85" on="1"/>
        <pt x="136" y="89" on="0"/>
        <pt x="154" y="113" on="0"/>
        <pt x="171" y="144" on="0"/>
        <pt x="185" y="176" on="0"/>
        <pt x="190" y="190" on="1"/>
        <pt x="191" y="191" on="0"/>
        <pt x="191" y="194" on="1"/>
        <pt x="226" y="293" on="0"/>
        <pt x="313" y="536" on="0"/>
        <pt x="359" y="661" on="1"/>
        <pt x="308" y="655" on="0"/>
        <pt x="258" y="655" on="1"/>
        <pt x="208" y="655" on="0"/>
      </contour>
    </TTGlyph>
    <TTGlyph name="Eth.swash" xMin="137" yMin="-24" xMax="1753" yMax="1465">
      <contour>
        <pt x="468" y="642" on="1"/>
        <pt x="453" y="642" on="0"/>
        <pt x="439" y="665" on="0"/>
        <pt x="439" y="675" on="1"/>
        <pt x="439" y="684" on="0"/>
        <pt x="442" y="705" on="0"/>
        <pt x="446" y="716" on="1"/>
        <pt x="449" y="724" on="0"/>
        <pt x="456" y="740" on="0"/>
        <pt x="471" y="754" on="0"/>
        <pt x="495" y="762" on="0"/>
        <pt x="515" y="762" on="1"/>
        <pt x="595" y="758" on="0"/>
        <pt x="680" y="756" on="1"/>
        <pt x="876" y="1297" on="1"/>
        <pt x="880" y="1306" on="0"/>
        <pt x="889" y="1330" on="0"/>
        <pt x="896" y="1352" on="0"/>
        <pt x="900" y="1372" on="0"/>
        <pt x="900" y="1377" on="1"/>
        <pt x="900" y="1390" on="0"/>
        <pt x="879" y="1405" on="0"/>
        <pt x="848" y="1413" on="0"/>
        <pt x="813" y="1415" on="0"/>
        <pt x="800" y="1415" on="1"/>
        <pt x="754" y="1415" on="0"/>
        <pt x="627" y="1393" on="0"/>
        <pt x="499" y="1352" on="0"/>
        <pt x="385" y="1292" on="0"/>
        <pt x="352" y="1254" on="1"/>
        <pt x="348" y="1249" on="0"/>
        <pt x="331" y="1224" on="0"/>
        <pt x="331" y="1206" on="1"/>
        <pt x="331" y="1194" on="0"/>
        <pt x="351" y="1184" on="0"/>
        <pt x="377" y="1178" on="0"/>
        <pt x="403" y="1174" on="0"/>
        <pt x="409" y="1168" on="1"/>
        <pt x="438" y="1147" on="0"/>
        <pt x="456" y="1104" on="0"/>
        <pt x="456" y="1083" on="1"/>
        <pt x="456" y="1060" on="0"/>
        <pt x="433" y="1017" on="0"/>
        <pt x="396" y="984" on="0"/>
        <pt x="350" y="965" on="0"/>
        <pt x="328" y="965" on="1"/>
        <pt x="303" y="965" on="0"/>
        <pt x="261" y="992" on="0"/>
        <pt x="230" y="1032" on="0"/>
        <pt x="212" y="1079" on="0"/>
        <pt x="212" y="1100" on="1"/>
        <pt x="212" y="1133" on="0"/>
        <pt x="232" y="1196" on="0"/>
        <pt x="264" y="1252" on="0"/>
        <pt x="303" y="1299" on="0"/>
        <pt x="321" y="1315" on="1"/>
        <pt x="338" y="1331" on="0"/>
        <pt x="388" y="1363" on="0"/>
        <pt x="445" y="1393" on="0"/>
        <pt x="505" y="1417" on="0"/>
        <pt x="532" y="1426" on="1"/>
        <pt x="570" y="1439" on="0"/>
        <pt x="722" y="1465" on="0"/>
        <pt x="838" y="1465" on="1"/>
        <pt x="919" y="1465" on="0"/>
        <pt x="1095" y="1457" on="0"/>
        <pt x="1269" y="1427" on="0"/>
        <pt x="1430" y="1370" on="0"/>
        <pt x="1495" y="1322" on="1"/>
        <pt x="1555" y="1277" on="0"/>
        <pt x="1651" y="1153" on="0"/>
        <pt x="1717" y="1012" on="0"/>
        <pt x="1753" y="860" on="0"/>
        <pt x="1753" y="787" on="1"/>
        <pt x="1753" y="704" on="0"/>
        <pt x="1727" y="545" on="0"/>
        <pt x="1679" y="401" on="0"/>
        <pt x="1611" y="276" on="0"/>
        <pt x="1568" y="227" on="1"/>
        <pt x="1534" y="188" on="0"/>
        <pt x="1459" y="125" on="0"/>
        <pt x="1369" y="72" on="0"/>
        <pt x="1261" y="29" on="0"/>
        <pt x="1194" y="10" on="1"/>
        <pt x="1166" y="3" on="0"/>
        <pt x="1094" y="-10" on="0"/>
        <pt x="989" y="-19" on="0"/>
        <pt x="843" y="-24" on="0"/>
        <pt x="741" y="-24" on="1"/>
        <pt x="684" y="-24" on="0"/>
        <pt x="568" y="-21" on="0"/>
        <pt x="494" y="-21" on="1"/>
        <pt x="200" y="-21" on="1"/>
        <pt x="189" y="-21" on="0"/>
        <pt x="159" y="-19" on="0"/>
        <pt x="150" y="-14" on="1"/>
        <pt x="142" y="-7" on="0"/>
        <pt x="137" y="2" on="0"/>
        <pt x="137" y="9" on="1"/>
        <pt x="137" y="18" on="0"/>
        <pt x="162" y="30" on="0"/>
        <pt x="182" y="33" on="1"/>
        <pt x="208" y="37" on="0"/>
        <pt x="276" y="43" on="0"/>
        <pt x="340" y="49" on="0"/>
        <pt x="394" y="56" on="0"/>
        <pt x="406" y="62" on="1"/>
        <pt x="416" y="66" on="0"/>
        <pt x="425" y="77" on="0"/>
        <pt x="432" y="88" on="1"/>
        <pt x="442" y="104" on="0"/>
        <pt x="461" y="151" on="0"/>
        <pt x="468" y="171" on="1"/>
        <pt x="641" y="648" on="1"/>
        <pt x="553" y="646" on="0"/>
      </contour>
      <contour>
        <pt x="675" y="112" on="1"/>
        <pt x="671" y="102" on="0"/>
        <pt x="658" y="71" on="0"/>
        <pt x="656" y="62" on="1"/>
        <pt x="656" y="53" on="0"/>
        <pt x="690" y="48" on="0"/>
        <pt x="710" y="48" on="1"/>
        <pt x="878" y="48" on="0"/>
        <pt x="1106" y="73" on="0"/>
        <pt x="1165" y="107" on="1"/>
        <pt x="1206" y="131" on="0"/>
        <pt x="1278" y="189" on="0"/>
        <pt x="1345" y="264" on="0"/>
        <pt x="1408" y="359" on="0"/>
        <pt x="1440" y="419" on="1"/>
        <pt x="1490" y="516" on="0"/>
        <pt x="1544" y="736" on="0"/>
        <pt x="1544" y="841" on="1"/>
        <pt x="1544" y="881" on="0"/>
        <pt x="1541" y="957" on="0"/>
        <pt x="1530" y="1032" on="0"/>
        <pt x="1509" y="1107" on="0"/>
        <pt x="1490" y="1145" on="1"/>
        <pt x="1429" y="1269" on="0"/>
        <pt x="1260" y="1382" on="0"/>
        <pt x="1141" y="1382" on="1"/>
        <pt x="1130" y="1368" on="0"/>
        <pt x="1104" y="1317" on="0"/>
        <pt x="1096" y="1294" on="1"/>
        <pt x="904" y="756" on="1"/>
        <pt x="917" y="756" on="0"/>
        <pt x="966" y="757" on="0"/>
        <pt x="1025" y="758" on="0"/>
        <pt x="1089" y="759" on="0"/>
        <pt x="1149" y="760" on="0"/>
        <pt x="1197" y="761" on="0"/>
        <pt x="1211" y="762" on="1"/>
        <pt x="1227" y="762" on="0"/>
        <pt x="1242" y="735" on="0"/>
        <pt x="1241" y="718" on="1"/>
        <pt x="1237" y="672" on="0"/>
        <pt x="1212" y="642" on="0"/>
        <pt x="1196" y="642" on="1"/>
        <pt x="1173" y="643" on="0"/>
        <pt x="1081" y="645" on="0"/>
        <pt x="981" y="646" on="0"/>
        <pt x="889" y="648" on="0"/>
        <pt x="866" y="648" on="1"/>
      </contour>
    </TTGlyph>
    <TTGlyph name="Euro" xMin="143" yMin="0" xMax="1160" yMax="1450">
      <contour>
        <pt x="460" y="782" on="1"/>
        <pt x="458" y="768" on="0"/>
        <pt x="456" y="742" on="0"/>
        <pt x="456" y="730" on="1"/>
        <pt x="456" y="719" on="0"/>
        <pt x="458" y="702" on="0"/>
        <pt x="458" y="695" on="1"/>
        <pt x="960" y="695" on="1"/>
        <pt x="971" y="695" on="0"/>
        <pt x="991" y="693" on="0"/>
        <pt x="1004" y="690" on="1"/>
        <pt x="1009" y="682" on="0"/>
        <pt x="1011" y="669" on="0"/>
        <pt x="1011" y="663" on="1"/>
        <pt x="1011" y="649" on="0"/>
        <pt x="997" y="630" on="0"/>
        <pt x="980" y="616" on="1"/>
        <pt x="449" y="616" on="1"/>
        <pt x="454" y="548" on="1"/>
        <pt x="459" y="476" on="0"/>
        <pt x="500" y="334" on="0"/>
        <pt x="524" y="282" on="1"/>
        <pt x="537" y="249" on="0"/>
        <pt x="589" y="183" on="0"/>
        <pt x="656" y="129" on="0"/>
        <pt x="734" y="95" on="0"/>
        <pt x="774" y="95" on="1"/>
        <pt x="802" y="95" on="0"/>
        <pt x="841" y="98" on="0"/>
        <pt x="877" y="108" on="0"/>
        <pt x="920" y="129" on="0"/>
        <pt x="953" y="147" on="1"/>
        <pt x="996" y="172" on="0"/>
        <pt x="1056" y="221" on="0"/>
        <pt x="1077" y="251" on="1"/>
        <pt x="1088" y="268" on="0"/>
        <pt x="1108" y="300" on="0"/>
        <pt x="1119" y="317" on="1"/>
        <pt x="1121" y="322" on="0"/>
        <pt x="1135" y="327" on="0"/>
        <pt x="1141" y="327" on="1"/>
        <pt x="1149" y="327" on="0"/>
        <pt x="1156" y="316" on="0"/>
        <pt x="1159" y="306" on="1"/>
        <pt x="1159" y="305" on="0"/>
        <pt x="1160" y="304" on="0"/>
        <pt x="1160" y="303" on="1"/>
        <pt x="1158" y="286" on="0"/>
        <pt x="1144" y="260" on="0"/>
        <pt x="1138" y="246" on="1"/>
        <pt x="1135" y="239" on="0"/>
        <pt x="1106" y="191" on="0"/>
        <pt x="1062" y="132" on="0"/>
        <pt x="1007" y="76" on="0"/>
        <pt x="979" y="61" on="1"/>
        <pt x="961" y="49" on="0"/>
        <pt x="908" y="27" on="0"/>
        <pt x="849" y="10" on="0"/>
        <pt x="792" y="0" on="0"/>
        <pt x="771" y="0" on="1"/>
        <pt x="753" y="0" on="0"/>
        <pt x="701" y="7" on="0"/>
        <pt x="640" y="22" on="0"/>
        <pt x="575" y="46" on="0"/>
        <pt x="544" y="64" on="1"/>
        <pt x="512" y="82" on="0"/>
        <pt x="457" y="128" on="0"/>
        <pt x="412" y="175" on="0"/>
        <pt x="380" y="219" on="0"/>
        <pt x="371" y="235" on="1"/>
        <pt x="349" y="277" on="0"/>
        <pt x="317" y="371" on="0"/>
        <pt x="300" y="434" on="1"/>
        <pt x="286" y="485" on="0"/>
        <pt x="274" y="580" on="0"/>
        <pt x="270" y="614" on="1"/>
        <pt x="270" y="616" on="0"/>
        <pt x="269" y="621" on="0"/>
        <pt x="269" y="623" on="1"/>
        <pt x="159" y="623" on="1"/>
        <pt x="151" y="631" on="0"/>
        <pt x="145" y="642" on="0"/>
        <pt x="145" y="650" on="1"/>
        <pt x="145" y="661" on="0"/>
        <pt x="157" y="682" on="0"/>
        <pt x="174" y="695" on="1"/>
        <pt x="274" y="695" on="1"/>
        <pt x="274" y="711" on="1"/>
        <pt x="274" y="727" on="0"/>
        <pt x="274" y="764" on="0"/>
        <pt x="276" y="784" on="1"/>
        <pt x="153" y="784" on="1"/>
        <pt x="149" y="789" on="0"/>
        <pt x="143" y="801" on="0"/>
        <pt x="143" y="808" on="1"/>
        <pt x="143" y="822" on="0"/>
        <pt x="163" y="851" on="0"/>
        <pt x="174" y="851" on="1"/>
        <pt x="235" y="851" on="1"/>
        <pt x="283" y="851" on="1"/>
        <pt x="285" y="899" on="0"/>
        <pt x="295" y="979" on="0"/>
        <pt x="302" y="1002" on="1"/>
        <pt x="311" y="1036" on="0"/>
        <pt x="333" y="1107" on="0"/>
        <pt x="344" y="1131" on="1"/>
        <pt x="358" y="1167" on="0"/>
        <pt x="409" y="1246" on="0"/>
        <pt x="473" y="1317" on="0"/>
        <pt x="544" y="1375" on="0"/>
        <pt x="579" y="1391" on="1"/>
        <pt x="607" y="1405" on="0"/>
        <pt x="675" y="1427" on="0"/>
        <pt x="740" y="1442" on="0"/>
        <pt x="791" y="1450" on="0"/>
        <pt x="802" y="1450" on="1"/>
        <pt x="840" y="1450" on="0"/>
        <pt x="912" y="1436" on="0"/>
        <pt x="980" y="1415" on="0"/>
        <pt x="1047" y="1388" on="0"/>
        <pt x="1081" y="1375" on="1"/>
        <pt x="1098" y="1370" on="0"/>
        <pt x="1131" y="1351" on="0"/>
        <pt x="1145" y="1344" on="1"/>
        <pt x="1151" y="1314" on="0"/>
        <pt x="1158" y="1262" on="0"/>
        <pt x="1160" y="1227" on="1"/>
        <pt x="1160" y="1209" on="0"/>
        <pt x="1158" y="1183" on="0"/>
        <pt x="1156" y="1160" on="0"/>
        <pt x="1153" y="1136" on="0"/>
        <pt x="1152" y="1119" on="1"/>
        <pt x="1150" y="1101" on="0"/>
        <pt x="1145" y="1063" on="0"/>
        <pt x="1141" y="1045" on="1"/>
        <pt x="1136" y="1036" on="0"/>
        <pt x="1126" y="1036" on="1"/>
        <pt x="1117" y="1036" on="0"/>
        <pt x="1107" y="1041" on="1"/>
        <pt x="1109" y="1049" on="0"/>
        <pt x="1098" y="1096" on="0"/>
        <pt x="1081" y="1145" on="0"/>
        <pt x="1066" y="1185" on="0"/>
        <pt x="1065" y="1185" on="1"/>
        <pt x="1056" y="1199" on="0"/>
        <pt x="1041" y="1241" on="0"/>
        <pt x="1032" y="1254" on="1"/>
        <pt x="1035" y="1248" on="0"/>
        <pt x="1019" y="1268" on="0"/>
        <pt x="992" y="1300" on="0"/>
        <pt x="959" y="1332" on="0"/>
        <pt x="947" y="1337" on="1"/>
        <pt x="916" y="1351" on="0"/>
        <pt x="845" y="1368" on="0"/>
        <pt x="802" y="1368" on="1"/>
        <pt x="781" y="1368" on="0"/>
        <pt x="724" y="1352" on="0"/>
        <pt x="667" y="1326" on="0"/>
        <pt x="616" y="1293" on="0"/>
        <pt x="601" y="1275" on="1"/>
        <pt x="553" y="1220" on="0"/>
        <pt x="493" y="1107" on="0"/>
        <pt x="477" y="1041" on="1"/>
        <pt x="475" y="1032" on="0"/>
        <pt x="470" y="1002" on="0"/>
        <pt x="467" y="969" on="0"/>
        <pt x="465" y="935" on="0"/>
        <pt x="465" y="922" on="1"/>
        <pt x="465" y="917" on="0"/>
        <pt x="464" y="898" on="0"/>
        <pt x="464" y="877" on="0"/>
        <pt x="463" y="857" on="0"/>
        <pt x="463" y="851" on="1"/>
        <pt x="1051" y="851" on="1"/>
        <pt x="1060" y="841" on="0"/>
        <pt x="1060" y="823" on="1"/>
        <pt x="1060" y="815" on="0"/>
        <pt x="1047" y="796" on="0"/>
        <pt x="1029" y="782" on="1"/>
      </contour>
    </TTGlyph>
    <TTGlyph name="F" xMin="-57" yMin="-26" xMax="1462" yMax="1477">
      <contour>
        <pt x="-57" y="-3" on="1"/>
        <pt x="-57" y="9" on="0"/>
        <pt x="-22" y="20" on="0"/>
        <pt x="26" y="26" on="0"/>
        <pt x="74" y="34" on="0"/>
        <pt x="88" y="43" on="1"/>
        <pt x="95" y="48" on="0"/>
        <pt x="109" y="70" on="0"/>
        <pt x="114" y="83" on="1"/>
        <pt x="560" y="1308" on="1"/>
        <pt x="565" y="1324" on="0"/>
        <pt x="572" y="1345" on="0"/>
        <pt x="572" y="1349" on="1"/>
        <pt x="572" y="1361" on="0"/>
        <pt x="552" y="1365" on="0"/>
        <pt x="543" y="1365" on="1"/>
        <pt x="506" y="1365" on="0"/>
        <pt x="428" y="1353" on="0"/>
        <pt x="394" y="1353" on="1"/>
        <pt x="387" y="1353" on="0"/>
        <pt x="370" y="1370" on="0"/>
        <pt x="370" y="1377" on="1"/>
        <pt x="370" y="1388" on="0"/>
        <pt x="428" y="1402" on="0"/>
        <pt x="519" y="1410" on="0"/>
        <pt x="627" y="1415" on="0"/>
        <pt x="728" y="1422" on="0"/>
        <pt x="806" y="1432" on="0"/>
        <pt x="821" y="1441" on="1"/>
        <pt x="885" y="1451" on="0"/>
        <pt x="1020" y="1461" on="0"/>
        <pt x="1155" y="1466" on="0"/>
        <pt x="1287" y="1467" on="0"/>
        <pt x="1349" y="1467" on="1"/>
        <pt x="1375" y="1474" on="0"/>
        <pt x="1410" y="1477" on="0"/>
        <pt x="1432" y="1477" on="1"/>
        <pt x="1446" y="1477" on="0"/>
        <pt x="1462" y="1465" on="0"/>
        <pt x="1462" y="1450" on="1"/>
        <pt x="1462" y="1439" on="0"/>
        <pt x="1450" y="1409" on="0"/>
        <pt x="1435" y="1375" on="0"/>
        <pt x="1420" y="1341" on="0"/>
        <pt x="1417" y="1327" on="1"/>
        <pt x="1416" y="1324" on="0"/>
        <pt x="1413" y="1303" on="0"/>
        <pt x="1408" y="1278" on="0"/>
        <pt x="1404" y="1253" on="0"/>
        <pt x="1403" y="1246" on="1"/>
        <pt x="1401" y="1237" on="0"/>
        <pt x="1394" y="1205" on="0"/>
        <pt x="1383" y="1174" on="0"/>
        <pt x="1370" y="1150" on="0"/>
        <pt x="1363" y="1150" on="1"/>
        <pt x="1350" y="1150" on="0"/>
        <pt x="1345" y="1187" on="0"/>
        <pt x="1343" y="1242" on="0"/>
        <pt x="1336" y="1308" on="0"/>
        <pt x="1308" y="1365" on="0"/>
        <pt x="1250" y="1405" on="0"/>
        <pt x="1197" y="1408" on="1"/>
        <pt x="1142" y="1411" on="0"/>
        <pt x="1049" y="1415" on="0"/>
        <pt x="994" y="1415" on="1"/>
        <pt x="903" y="1415" on="1"/>
        <pt x="889" y="1415" on="0"/>
        <pt x="855" y="1412" on="0"/>
        <pt x="822" y="1404" on="0"/>
        <pt x="793" y="1389" on="0"/>
        <pt x="783" y="1377" on="1"/>
        <pt x="778" y="1372" on="0"/>
        <pt x="769" y="1355" on="0"/>
        <pt x="764" y="1344" on="1"/>
        <pt x="565" y="775" on="1"/>
        <pt x="563" y="766" on="0"/>
        <pt x="558" y="745" on="0"/>
        <pt x="558" y="734" on="1"/>
        <pt x="558" y="731" on="0"/>
        <pt x="562" y="725" on="0"/>
        <pt x="564" y="725" on="1"/>
        <pt x="567" y="725" on="0"/>
        <pt x="582" y="725" on="0"/>
        <pt x="601" y="725" on="0"/>
        <pt x="620" y="726" on="0"/>
        <pt x="626" y="727" on="1"/>
        <pt x="692" y="731" on="0"/>
        <pt x="826" y="754" on="0"/>
        <pt x="887" y="758" on="1"/>
        <pt x="934" y="763" on="0"/>
        <pt x="1009" y="786" on="0"/>
        <pt x="1034" y="803" on="1"/>
        <pt x="1062" y="828" on="0"/>
        <pt x="1098" y="883" on="0"/>
        <pt x="1122" y="931" on="0"/>
        <pt x="1138" y="969" on="0"/>
        <pt x="1147" y="977" on="1"/>
        <pt x="1155" y="984" on="0"/>
        <pt x="1166" y="998" on="0"/>
        <pt x="1173" y="998" on="1"/>
        <pt x="1175" y="998" on="0"/>
        <pt x="1183" y="995" on="0"/>
        <pt x="1183" y="990" on="1"/>
        <pt x="1183" y="963" on="0"/>
        <pt x="1163" y="898" on="0"/>
        <pt x="1134" y="827" on="0"/>
        <pt x="1103" y="751" on="0"/>
        <pt x="1091" y="714" on="1"/>
        <pt x="1085" y="695" on="0"/>
        <pt x="1072" y="640" on="0"/>
        <pt x="1058" y="579" on="0"/>
        <pt x="1042" y="520" on="0"/>
        <pt x="1023" y="472" on="0"/>
        <pt x="1001" y="443" on="0"/>
        <pt x="989" y="443" on="1"/>
        <pt x="975" y="443" on="0"/>
        <pt x="968" y="464" on="0"/>
        <pt x="968" y="477" on="1"/>
        <pt x="968" y="496" on="0"/>
        <pt x="976" y="525" on="0"/>
        <pt x="986" y="555" on="0"/>
        <pt x="994" y="591" on="0"/>
        <pt x="994" y="618" on="1"/>
        <pt x="994" y="644" on="0"/>
        <pt x="977" y="671" on="0"/>
        <pt x="963" y="680" on="1"/>
        <pt x="937" y="689" on="0"/>
        <pt x="888" y="694" on="0"/>
        <pt x="863" y="694" on="1"/>
        <pt x="861" y="694" on="0"/>
        <pt x="811" y="693" on="0"/>
        <pt x="737" y="690" on="0"/>
        <pt x="652" y="686" on="0"/>
        <pt x="578" y="680" on="0"/>
        <pt x="528" y="674" on="0"/>
        <pt x="527" y="670" on="1"/>
        <pt x="328" y="121" on="1"/>
        <pt x="324" y="108" on="0"/>
        <pt x="315" y="81" on="0"/>
        <pt x="315" y="67" on="1"/>
        <pt x="315" y="65" on="0"/>
        <pt x="319" y="55" on="0"/>
        <pt x="323" y="55" on="1"/>
        <pt x="533" y="55" on="1"/>
        <pt x="550" y="55" on="0"/>
        <pt x="560" y="44" on="0"/>
        <pt x="560" y="33" on="1"/>
        <pt x="560" y="20" on="0"/>
        <pt x="546" y="4" on="0"/>
        <pt x="526" y="-4" on="0"/>
        <pt x="501" y="-7" on="0"/>
        <pt x="491" y="-7" on="1"/>
        <pt x="444" y="-7" on="0"/>
        <pt x="348" y="0" on="0"/>
        <pt x="306" y="0" on="1"/>
        <pt x="301" y="0" on="0"/>
        <pt x="283" y="-1" on="0"/>
        <pt x="266" y="-1" on="0"/>
        <pt x="252" y="-2" on="0"/>
        <pt x="251" y="-2" on="1"/>
        <pt x="239" y="-2" on="0"/>
        <pt x="176" y="-7" on="0"/>
        <pt x="106" y="-13" on="0"/>
        <pt x="44" y="-20" on="0"/>
        <pt x="31" y="-21" on="1"/>
        <pt x="19" y="-23" on="0"/>
        <pt x="-5" y="-26" on="0"/>
        <pt x="-19" y="-26" on="1"/>
        <pt x="-31" y="-26" on="0"/>
        <pt x="-57" y="-20" on="0"/>
      </contour>
    </TTGlyph>
    <TTGlyph name="G" xMin="126" yMin="-31" xMax="1643" yMax="1453">
      <contour>
        <pt x="126" y="498" on="1"/>
        <pt x="126" y="541" on="0"/>
        <pt x="133" y="612" on="0"/>
        <pt x="140" y="652" on="1"/>
        <pt x="149" y="699" on="0"/>
        <pt x="187" y="805" on="0"/>
        <pt x="237" y="908" on="0"/>
        <pt x="297" y="1002" on="0"/>
        <pt x="328" y="1038" on="1"/>
        <pt x="383" y="1102" on="0"/>
        <pt x="504" y="1221" on="0"/>
        <pt x="645" y="1323" on="0"/>
        <pt x="808" y="1403" on="0"/>
        <pt x="904" y="1427" on="1"/>
        <pt x="920" y="1431" on="0"/>
        <pt x="975" y="1441" on="0"/>
        <pt x="1036" y="1448" on="0"/>
        <pt x="1092" y="1453" on="0"/>
        <pt x="1108" y="1453" on="1"/>
        <pt x="1204" y="1453" on="0"/>
        <pt x="1366" y="1414" on="0"/>
        <pt x="1449" y="1372" on="1"/>
        <pt x="1459" y="1367" on="0"/>
        <pt x="1481" y="1351" on="0"/>
        <pt x="1505" y="1334" on="0"/>
        <pt x="1529" y="1322" on="0"/>
        <pt x="1541" y="1322" on="1"/>
        <pt x="1549" y="1322" on="0"/>
        <pt x="1562" y="1338" on="0"/>
        <pt x="1578" y="1356" on="0"/>
        <pt x="1600" y="1372" on="0"/>
        <pt x="1617" y="1372" on="1"/>
        <pt x="1643" y="1372" on="0"/>
        <pt x="1643" y="1344" on="1"/>
        <pt x="1643" y="1330" on="0"/>
        <pt x="1630" y="1296" on="0"/>
        <pt x="1612" y="1259" on="0"/>
        <pt x="1592" y="1221" on="0"/>
        <pt x="1586" y="1204" on="1"/>
        <pt x="1580" y="1187" on="0"/>
        <pt x="1562" y="1133" on="0"/>
        <pt x="1541" y="1069" on="0"/>
        <pt x="1518" y="1004" on="0"/>
        <pt x="1497" y="950" on="0"/>
        <pt x="1479" y="915" on="0"/>
        <pt x="1473" y="913" on="1"/>
        <pt x="1465" y="918" on="0"/>
        <pt x="1458" y="945" on="0"/>
        <pt x="1458" y="950" on="1"/>
        <pt x="1458" y="1071" on="1"/>
        <pt x="1458" y="1128" on="0"/>
        <pt x="1444" y="1224" on="0"/>
        <pt x="1423" y="1278" on="1"/>
        <pt x="1402" y="1305" on="0"/>
        <pt x="1339" y="1350" on="0"/>
        <pt x="1268" y="1384" on="0"/>
        <pt x="1193" y="1403" on="0"/>
        <pt x="1160" y="1403" on="1"/>
        <pt x="1112" y="1403" on="0"/>
        <pt x="1033" y="1390" on="0"/>
        <pt x="965" y="1366" on="0"/>
        <pt x="906" y="1335" on="0"/>
        <pt x="878" y="1317" on="1"/>
        <pt x="854" y="1301" on="0"/>
        <pt x="793" y="1254" on="0"/>
        <pt x="733" y="1205" on="0"/>
        <pt x="684" y="1160" on="0"/>
        <pt x="672" y="1147" on="1"/>
        <pt x="609" y="1079" on="0"/>
        <pt x="491" y="918" on="0"/>
        <pt x="446" y="834" on="1"/>
        <pt x="417" y="780" on="0"/>
        <pt x="366" y="673" on="0"/>
        <pt x="328" y="561" on="0"/>
        <pt x="307" y="439" on="0"/>
        <pt x="307" y="370" on="1"/>
        <pt x="307" y="323" on="0"/>
        <pt x="339" y="226" on="0"/>
        <pt x="396" y="140" on="0"/>
        <pt x="474" y="74" on="0"/>
        <pt x="520" y="57" on="1"/>
        <pt x="538" y="50" on="0"/>
        <pt x="586" y="36" on="0"/>
        <pt x="634" y="26" on="0"/>
        <pt x="680" y="19" on="0"/>
        <pt x="697" y="19" on="1"/>
        <pt x="723" y="19" on="0"/>
        <pt x="766" y="25" on="0"/>
        <pt x="797" y="33" on="1"/>
        <pt x="819" y="42" on="0"/>
        <pt x="857" y="79" on="0"/>
        <pt x="891" y="127" on="0"/>
        <pt x="922" y="184" on="0"/>
        <pt x="937" y="213" on="1"/>
        <pt x="953" y="245" on="0"/>
        <pt x="988" y="316" on="0"/>
        <pt x="1022" y="388" on="0"/>
        <pt x="1055" y="460" on="0"/>
        <pt x="1070" y="493" on="1"/>
        <pt x="1073" y="500" on="0"/>
        <pt x="1079" y="511" on="0"/>
        <pt x="1079" y="516" on="1"/>
        <pt x="1079" y="521" on="0"/>
        <pt x="1053" y="527" on="0"/>
        <pt x="1019" y="531" on="0"/>
        <pt x="986" y="533" on="0"/>
        <pt x="979" y="533" on="1"/>
        <pt x="885" y="533" on="1"/>
        <pt x="876" y="535" on="0"/>
        <pt x="859" y="549" on="0"/>
        <pt x="859" y="557" on="1"/>
        <pt x="859" y="564" on="0"/>
        <pt x="870" y="576" on="0"/>
        <pt x="886" y="585" on="0"/>
        <pt x="903" y="590" on="0"/>
        <pt x="909" y="590" on="1"/>
        <pt x="927" y="590" on="0"/>
        <pt x="980" y="586" on="0"/>
        <pt x="1045" y="580" on="0"/>
        <pt x="1117" y="576" on="0"/>
        <pt x="1153" y="576" on="1"/>
        <pt x="1161" y="576" on="0"/>
        <pt x="1189" y="580" on="0"/>
        <pt x="1246" y="586" on="0"/>
        <pt x="1342" y="590" on="0"/>
        <pt x="1418" y="590" on="1"/>
        <pt x="1421" y="590" on="0"/>
        <pt x="1435" y="588" on="0"/>
        <pt x="1452" y="585" on="0"/>
        <pt x="1468" y="580" on="0"/>
        <pt x="1473" y="576" on="1"/>
        <pt x="1479" y="571" on="0"/>
        <pt x="1479" y="562" on="1"/>
        <pt x="1479" y="558" on="0"/>
        <pt x="1476" y="549" on="0"/>
        <pt x="1473" y="547" on="1"/>
        <pt x="1471" y="544" on="0"/>
        <pt x="1434" y="539" on="0"/>
        <pt x="1383" y="535" on="0"/>
        <pt x="1329" y="532" on="0"/>
        <pt x="1311" y="529" on="1"/>
        <pt x="1306" y="528" on="0"/>
        <pt x="1293" y="507" on="0"/>
        <pt x="1287" y="491" on="1"/>
        <pt x="1133" y="140" on="1"/>
        <pt x="1131" y="138" on="0"/>
        <pt x="1131" y="133" on="1"/>
        <pt x="1131" y="120" on="0"/>
        <pt x="1141" y="118" on="1"/>
        <pt x="1148" y="116" on="0"/>
        <pt x="1162" y="114" on="0"/>
        <pt x="1167" y="114" on="1"/>
        <pt x="1186" y="114" on="0"/>
        <pt x="1222" y="126" on="0"/>
        <pt x="1253" y="140" on="0"/>
        <pt x="1280" y="152" on="0"/>
        <pt x="1292" y="152" on="1"/>
        <pt x="1297" y="152" on="0"/>
        <pt x="1318" y="149" on="0"/>
        <pt x="1318" y="140" on="1"/>
        <pt x="1318" y="136" on="0"/>
        <pt x="1310" y="129" on="0"/>
        <pt x="1307" y="126" on="1"/>
        <pt x="1273" y="102" on="0"/>
        <pt x="1180" y="60" on="0"/>
        <pt x="1073" y="25" on="0"/>
        <pt x="961" y="-2" on="0"/>
        <pt x="855" y="-21" on="0"/>
        <pt x="763" y="-31" on="0"/>
        <pt x="731" y="-31" on="1"/>
        <pt x="614" y="-30" on="0"/>
        <pt x="395" y="30" on="0"/>
        <pt x="227" y="157" on="0"/>
        <pt x="126" y="357" on="0"/>
      </contour>
    </TTGlyph>
    <TTGlyph name="Gbreve" xMin="126" yMin="-31" xMax="1656" yMax="1868">
      <component glyphName="G" x="0" y="0" flags="0x204"/>
      <component glyphName="Breve" x="562" y="0" flags="0x4"/>
    </TTGlyph>
    <TTGlyph name="Gcommaaccent" xMin="126" yMin="-521" xMax="1643" yMax="1453">
      <component glyphName="G" x="0" y="0" flags="0x204"/>
      <component glyphName="commaaccent" x="517" y="0" flags="0x4"/>
    </TTGlyph>
    <TTGlyph name="Grave" xMin="41" yMin="1519" xMax="484" yMax="1868">
      <contour>
        <pt x="45" y="1781" on="1"/>
        <pt x="43" y="1788" on="0"/>
        <pt x="41" y="1801" on="0"/>
        <pt x="41" y="1807" on="1"/>
        <pt x="41" y="1842" on="0"/>
        <pt x="75" y="1858" on="1"/>
        <pt x="80" y="1860" on="0"/>
        <pt x="89" y="1864" on="0"/>
        <pt x="96" y="1865" on="1"/>
        <pt x="111" y="1868" on="0"/>
        <pt x="125" y="1868" on="1"/>
        <pt x="147" y="1868" on="0"/>
        <pt x="187" y="1854" on="0"/>
        <pt x="201" y="1838" on="1"/>
        <pt x="251" y="1784" on="0"/>
        <pt x="339" y="1698" on="0"/>
        <pt x="409" y="1629" on="0"/>
        <pt x="462" y="1576" on="0"/>
        <pt x="477" y="1556" on="1"/>
        <pt x="477" y="1556" on="0"/>
        <pt x="480" y="1553" on="1"/>
        <pt x="481" y="1551" on="0"/>
        <pt x="481" y="1547" on="0"/>
        <pt x="482" y="1546" on="1"/>
        <pt x="484" y="1538" on="0"/>
        <pt x="471" y="1524" on="0"/>
        <pt x="463" y="1521" on="1"/>
        <pt x="458" y="1519" on="0"/>
        <pt x="453" y="1519" on="0"/>
        <pt x="451" y="1519" on="1"/>
        <pt x="447" y="1519" on="0"/>
        <pt x="444" y="1520" on="1"/>
        <pt x="423" y="1531" on="1"/>
        <pt x="389" y="1550" on="0"/>
        <pt x="309" y="1594" on="0"/>
        <pt x="229" y="1638" on="0"/>
        <pt x="156" y="1680" on="0"/>
        <pt x="129" y="1696" on="1"/>
        <pt x="102" y="1712" on="0"/>
        <pt x="57" y="1752" on="0"/>
        <pt x="49" y="1771" on="1"/>
        <pt x="47" y="1775" on="0"/>
      </contour>
    </TTGlyph>
    <TTGlyph name="H" xMin="-65" yMin="-16" xMax="1846" yMax="1462">
      <contour>
        <pt x="-65" y="2" on="1"/>
        <pt x="-65" y="10" on="0"/>
        <pt x="-62" y="20" on="0"/>
        <pt x="-51" y="22" on="1"/>
        <pt x="-47" y="23" on="0"/>
        <pt x="-22" y="26" on="0"/>
        <pt x="6" y="28" on="0"/>
        <pt x="32" y="30" on="0"/>
        <pt x="37" y="31" on="1"/>
        <pt x="57" y="33" on="0"/>
        <pt x="72" y="53" on="0"/>
        <pt x="78" y="73" on="1"/>
        <pt x="592" y="1353" on="1"/>
        <pt x="597" y="1364" on="0"/>
        <pt x="601" y="1378" on="0"/>
        <pt x="601" y="1382" on="1"/>
        <pt x="601" y="1398" on="0"/>
        <pt x="573" y="1403" on="0"/>
        <pt x="559" y="1403" on="1"/>
        <pt x="551" y="1403" on="0"/>
        <pt x="512" y="1405" on="0"/>
        <pt x="471" y="1406" on="0"/>
        <pt x="437" y="1408" on="0"/>
        <pt x="433" y="1408" on="1"/>
        <pt x="422" y="1408" on="0"/>
        <pt x="418" y="1423" on="0"/>
        <pt x="418" y="1427" on="1"/>
        <pt x="418" y="1434" on="0"/>
        <pt x="419" y="1439" on="0"/>
        <pt x="424" y="1441" on="1"/>
        <pt x="436" y="1443" on="0"/>
        <pt x="455" y="1445" on="0"/>
        <pt x="472" y="1446" on="0"/>
        <pt x="490" y="1446" on="0"/>
        <pt x="502" y="1446" on="1"/>
        <pt x="540" y="1446" on="0"/>
        <pt x="624" y="1439" on="0"/>
        <pt x="656" y="1439" on="1"/>
        <pt x="738" y="1439" on="0"/>
        <pt x="902" y="1460" on="0"/>
        <pt x="983" y="1462" on="1"/>
        <pt x="987" y="1462" on="0"/>
        <pt x="998" y="1459" on="0"/>
        <pt x="1001" y="1455" on="1"/>
        <pt x="1002" y="1451" on="0"/>
        <pt x="1004" y="1444" on="0"/>
        <pt x="1004" y="1439" on="1"/>
        <pt x="1004" y="1430" on="0"/>
        <pt x="995" y="1426" on="1"/>
        <pt x="989" y="1423" on="0"/>
        <pt x="960" y="1419" on="0"/>
        <pt x="928" y="1415" on="0"/>
        <pt x="901" y="1412" on="0"/>
        <pt x="897" y="1412" on="1"/>
        <pt x="892" y="1412" on="0"/>
        <pt x="869" y="1411" on="0"/>
        <pt x="842" y="1410" on="0"/>
        <pt x="817" y="1407" on="0"/>
        <pt x="812" y="1405" on="1"/>
        <pt x="808" y="1403" on="0"/>
        <pt x="793" y="1388" on="0"/>
        <pt x="786" y="1368" on="1"/>
        <pt x="580" y="839" on="1"/>
        <pt x="578" y="831" on="0"/>
        <pt x="573" y="813" on="0"/>
        <pt x="573" y="806" on="1"/>
        <pt x="573" y="795" on="0"/>
        <pt x="584" y="775" on="0"/>
        <pt x="592" y="775" on="1"/>
        <pt x="1184" y="775" on="1"/>
        <pt x="1204" y="775" on="0"/>
        <pt x="1223" y="787" on="0"/>
        <pt x="1231" y="804" on="1"/>
        <pt x="1445" y="1351" on="1"/>
        <pt x="1452" y="1370" on="0"/>
        <pt x="1452" y="1387" on="1"/>
        <pt x="1452" y="1396" on="0"/>
        <pt x="1440" y="1408" on="0"/>
        <pt x="1424" y="1415" on="0"/>
        <pt x="1404" y="1417" on="0"/>
        <pt x="1397" y="1417" on="1"/>
        <pt x="1378" y="1417" on="0"/>
        <pt x="1338" y="1412" on="0"/>
        <pt x="1324" y="1412" on="1"/>
        <pt x="1316" y="1412" on="0"/>
        <pt x="1300" y="1412" on="0"/>
        <pt x="1293" y="1413" on="1"/>
        <pt x="1283" y="1416" on="0"/>
        <pt x="1283" y="1429" on="1"/>
        <pt x="1283" y="1444" on="0"/>
        <pt x="1293" y="1450" on="1"/>
        <pt x="1302" y="1455" on="0"/>
        <pt x="1323" y="1457" on="0"/>
        <pt x="1331" y="1457" on="1"/>
        <pt x="1388" y="1457" on="0"/>
        <pt x="1493" y="1455" on="0"/>
        <pt x="1532" y="1455" on="1"/>
        <pt x="1567" y="1455" on="0"/>
        <pt x="1638" y="1457" on="0"/>
        <pt x="1706" y="1460" on="0"/>
        <pt x="1766" y="1462" on="0"/>
        <pt x="1789" y="1462" on="1"/>
        <pt x="1794" y="1462" on="0"/>
        <pt x="1822" y="1460" on="0"/>
        <pt x="1827" y="1458" on="1"/>
        <pt x="1832" y="1457" on="0"/>
        <pt x="1846" y="1453" on="0"/>
        <pt x="1846" y="1446" on="1"/>
        <pt x="1846" y="1437" on="0"/>
        <pt x="1821" y="1412" on="0"/>
        <pt x="1805" y="1412" on="1"/>
        <pt x="1799" y="1412" on="0"/>
        <pt x="1771" y="1414" on="0"/>
        <pt x="1740" y="1415" on="0"/>
        <pt x="1713" y="1417" on="0"/>
        <pt x="1708" y="1417" on="1"/>
        <pt x="1685" y="1417" on="0"/>
        <pt x="1662" y="1386" on="0"/>
        <pt x="1648" y="1348" on="1"/>
        <pt x="1174" y="161" on="1"/>
        <pt x="1163" y="131" on="0"/>
        <pt x="1139" y="103" on="0"/>
        <pt x="1139" y="92" on="1"/>
        <pt x="1139" y="83" on="0"/>
        <pt x="1145" y="66" on="0"/>
        <pt x="1149" y="62" on="1"/>
        <pt x="1154" y="58" on="0"/>
        <pt x="1181" y="55" on="0"/>
        <pt x="1194" y="55" on="1"/>
        <pt x="1314" y="55" on="1"/>
        <pt x="1325" y="55" on="0"/>
        <pt x="1345" y="37" on="0"/>
        <pt x="1345" y="17" on="1"/>
        <pt x="1345" y="12" on="0"/>
        <pt x="1330" y="3" on="0"/>
        <pt x="1321" y="3" on="1"/>
        <pt x="1283" y="3" on="1"/>
        <pt x="1249" y="3" on="0"/>
        <pt x="1164" y="12" on="0"/>
        <pt x="1125" y="12" on="1"/>
        <pt x="1079" y="12" on="0"/>
        <pt x="966" y="6" on="0"/>
        <pt x="861" y="-1" on="0"/>
        <pt x="776" y="-7" on="0"/>
        <pt x="757" y="-7" on="1"/>
        <pt x="746" y="-7" on="0"/>
        <pt x="724" y="1" on="0"/>
        <pt x="724" y="14" on="1"/>
        <pt x="724" y="22" on="0"/>
        <pt x="730" y="42" on="0"/>
        <pt x="739" y="43" on="1"/>
        <pt x="753" y="46" on="0"/>
        <pt x="782" y="50" on="0"/>
        <pt x="823" y="53" on="0"/>
        <pt x="878" y="55" on="0"/>
        <pt x="917" y="55" on="1"/>
        <pt x="931" y="55" on="0"/>
        <pt x="953" y="94" on="0"/>
        <pt x="961" y="118" on="1"/>
        <pt x="1172" y="656" on="1"/>
        <pt x="1176" y="667" on="0"/>
        <pt x="1184" y="689" on="0"/>
        <pt x="1184" y="695" on="1"/>
        <pt x="1184" y="700" on="0"/>
        <pt x="1170" y="713" on="0"/>
        <pt x="1163" y="713" on="1"/>
        <pt x="589" y="713" on="1"/>
        <pt x="575" y="713" on="0"/>
        <pt x="541" y="721" on="0"/>
        <pt x="530" y="721" on="1"/>
        <pt x="523" y="721" on="0"/>
        <pt x="511" y="699" on="0"/>
        <pt x="502" y="671" on="1"/>
        <pt x="295" y="128" on="1"/>
        <pt x="288" y="112" on="0"/>
        <pt x="272" y="89" on="0"/>
        <pt x="272" y="69" on="1"/>
        <pt x="272" y="60" on="0"/>
        <pt x="284" y="43" on="0"/>
        <pt x="293" y="43" on="1"/>
        <pt x="306" y="45" on="0"/>
        <pt x="326" y="47" on="0"/>
        <pt x="344" y="48" on="0"/>
        <pt x="362" y="48" on="0"/>
        <pt x="373" y="48" on="1"/>
        <pt x="388" y="48" on="0"/>
        <pt x="420" y="48" on="0"/>
        <pt x="450" y="46" on="0"/>
        <pt x="475" y="44" on="0"/>
        <pt x="482" y="43" on="1"/>
        <pt x="494" y="41" on="0"/>
        <pt x="494" y="31" on="1"/>
        <pt x="494" y="18" on="0"/>
        <pt x="467" y="-4" on="0"/>
        <pt x="456" y="-7" on="1"/>
        <pt x="97" y="-7" on="1"/>
        <pt x="66" y="-7" on="0"/>
        <pt x="-7" y="-16" on="0"/>
        <pt x="-32" y="-16" on="1"/>
        <pt x="-46" y="-16" on="0"/>
        <pt x="-65" y="-10" on="0"/>
      </contour>
    </TTGlyph>
    <TTGlyph name="Hungarumlaut" xMin="504" yMin="1554" xMax="1320" yMax="1868">
      <contour>
        <pt x="965" y="1772" on="1"/>
        <pt x="957" y="1752" on="0"/>
        <pt x="909" y="1711" on="0"/>
        <pt x="871" y="1697" on="1"/>
        <pt x="832" y="1682" on="0"/>
        <pt x="750" y="1648" on="0"/>
        <pt x="669" y="1612" on="0"/>
        <pt x="594" y="1577" on="0"/>
        <pt x="563" y="1562" on="1"/>
        <pt x="556" y="1559" on="0"/>
        <pt x="541" y="1554" on="0"/>
        <pt x="535" y="1554" on="1"/>
        <pt x="531" y="1554" on="1"/>
        <pt x="523" y="1555" on="0"/>
        <pt x="504" y="1573" on="0"/>
        <pt x="506" y="1583" on="1"/>
        <pt x="507" y="1585" on="0"/>
        <pt x="509" y="1592" on="0"/>
        <pt x="511" y="1594" on="1"/>
        <pt x="545" y="1628" on="0"/>
        <pt x="696" y="1748" on="0"/>
        <pt x="815" y="1844" on="1"/>
        <pt x="843" y="1868" on="0"/>
        <pt x="883" y="1868" on="1"/>
        <pt x="888" y="1868" on="0"/>
        <pt x="898" y="1867" on="0"/>
        <pt x="903" y="1866" on="1"/>
        <pt x="912" y="1865" on="0"/>
        <pt x="923" y="1861" on="1"/>
        <pt x="949" y="1852" on="0"/>
        <pt x="971" y="1824" on="0"/>
        <pt x="971" y="1806" on="1"/>
        <pt x="971" y="1798" on="0"/>
        <pt x="970" y="1793" on="1"/>
        <pt x="969" y="1788" on="0"/>
        <pt x="967" y="1777" on="0"/>
      </contour>
      <contour>
        <pt x="1314" y="1772" on="1"/>
        <pt x="1306" y="1752" on="0"/>
        <pt x="1258" y="1711" on="0"/>
        <pt x="1220" y="1697" on="1"/>
        <pt x="1181" y="1682" on="0"/>
        <pt x="1099" y="1648" on="0"/>
        <pt x="1018" y="1612" on="0"/>
        <pt x="943" y="1577" on="0"/>
        <pt x="912" y="1562" on="1"/>
        <pt x="905" y="1559" on="0"/>
        <pt x="890" y="1554" on="0"/>
        <pt x="884" y="1554" on="1"/>
        <pt x="880" y="1554" on="1"/>
        <pt x="872" y="1555" on="0"/>
        <pt x="853" y="1573" on="0"/>
        <pt x="855" y="1583" on="1"/>
        <pt x="856" y="1585" on="0"/>
        <pt x="858" y="1592" on="0"/>
        <pt x="860" y="1594" on="1"/>
        <pt x="894" y="1628" on="0"/>
        <pt x="1045" y="1748" on="0"/>
        <pt x="1164" y="1844" on="1"/>
        <pt x="1192" y="1868" on="0"/>
        <pt x="1232" y="1868" on="1"/>
        <pt x="1237" y="1868" on="0"/>
        <pt x="1247" y="1867" on="0"/>
        <pt x="1252" y="1866" on="1"/>
        <pt x="1261" y="1865" on="0"/>
        <pt x="1272" y="1861" on="1"/>
        <pt x="1298" y="1852" on="0"/>
        <pt x="1320" y="1824" on="0"/>
        <pt x="1320" y="1806" on="1"/>
        <pt x="1320" y="1798" on="0"/>
        <pt x="1319" y="1793" on="1"/>
        <pt x="1318" y="1788" on="0"/>
        <pt x="1316" y="1777" on="0"/>
      </contour>
    </TTGlyph>
    <TTGlyph name="I" xMin="-51" yMin="-43" xMax="1002" yMax="1458">
      <contour>
        <pt x="-51" y="-2" on="1"/>
        <pt x="-51" y="1" on="0"/>
        <pt x="-50" y="18" on="0"/>
        <pt x="-48" y="21" on="1"/>
        <pt x="-41" y="31" on="0"/>
        <pt x="-31" y="31" on="1"/>
        <pt x="-27" y="31" on="0"/>
        <pt x="-3" y="28" on="0"/>
        <pt x="4" y="28" on="1"/>
        <pt x="34" y="28" on="0"/>
        <pt x="81" y="30" on="0"/>
        <pt x="115" y="38" on="1"/>
        <pt x="122" y="39" on="0"/>
        <pt x="139" y="64" on="0"/>
        <pt x="155" y="97" on="0"/>
        <pt x="169" y="131" on="0"/>
        <pt x="172" y="142" on="1"/>
        <pt x="279" y="457" on="0"/>
        <pt x="485" y="1047" on="0"/>
        <pt x="582" y="1308" on="1"/>
        <pt x="587" y="1324" on="0"/>
        <pt x="597" y="1355" on="0"/>
        <pt x="597" y="1372" on="1"/>
        <pt x="597" y="1381" on="0"/>
        <pt x="581" y="1394" on="0"/>
        <pt x="568" y="1394" on="1"/>
        <pt x="558" y="1394" on="0"/>
        <pt x="521" y="1393" on="0"/>
        <pt x="475" y="1392" on="0"/>
        <pt x="424" y="1391" on="0"/>
        <pt x="400" y="1391" on="1"/>
        <pt x="396" y="1391" on="0"/>
        <pt x="380" y="1394" on="0"/>
        <pt x="363" y="1400" on="0"/>
        <pt x="350" y="1407" on="0"/>
        <pt x="350" y="1412" on="1"/>
        <pt x="350" y="1423" on="0"/>
        <pt x="367" y="1439" on="0"/>
        <pt x="376" y="1441" on="1"/>
        <pt x="382" y="1442" on="0"/>
        <pt x="402" y="1444" on="0"/>
        <pt x="423" y="1445" on="0"/>
        <pt x="440" y="1445" on="0"/>
        <pt x="443" y="1445" on="1"/>
        <pt x="453" y="1445" on="0"/>
        <pt x="480" y="1444" on="0"/>
        <pt x="527" y="1444" on="0"/>
        <pt x="598" y="1443" on="0"/>
        <pt x="654" y="1443" on="1"/>
        <pt x="695" y="1443" on="0"/>
        <pt x="770" y="1444" on="0"/>
        <pt x="817" y="1448" on="1"/>
        <pt x="834" y="1449" on="0"/>
        <pt x="878" y="1453" on="0"/>
        <pt x="923" y="1456" on="0"/>
        <pt x="964" y="1458" on="0"/>
        <pt x="976" y="1458" on="1"/>
        <pt x="1002" y="1451" on="0"/>
        <pt x="1002" y="1431" on="1"/>
        <pt x="1002" y="1417" on="0"/>
        <pt x="968" y="1408" on="0"/>
        <pt x="943" y="1408" on="1"/>
        <pt x="879" y="1408" on="1"/>
        <pt x="859" y="1408" on="0"/>
        <pt x="843" y="1406" on="0"/>
        <pt x="834" y="1400" on="1"/>
        <pt x="825" y="1395" on="0"/>
        <pt x="809" y="1364" on="0"/>
        <pt x="801" y="1341" on="1"/>
        <pt x="381" y="138" on="1"/>
        <pt x="374" y="120" on="0"/>
        <pt x="360" y="85" on="0"/>
        <pt x="360" y="74" on="1"/>
        <pt x="360" y="66" on="0"/>
        <pt x="367" y="52" on="0"/>
        <pt x="376" y="52" on="1"/>
        <pt x="415" y="52" on="0"/>
        <pt x="487" y="64" on="0"/>
        <pt x="530" y="64" on="1"/>
        <pt x="535" y="64" on="0"/>
        <pt x="563" y="60" on="0"/>
        <pt x="575" y="54" on="1"/>
        <pt x="585" y="48" on="0"/>
        <pt x="585" y="29" on="1"/>
        <pt x="585" y="19" on="0"/>
        <pt x="580" y="4" on="0"/>
        <pt x="575" y="2" on="1"/>
        <pt x="567" y="-1" on="0"/>
        <pt x="553" y="-5" on="0"/>
        <pt x="542" y="-5" on="1"/>
        <pt x="538" y="-5" on="0"/>
        <pt x="522" y="-3" on="0"/>
        <pt x="503" y="-2" on="0"/>
        <pt x="485" y="0" on="0"/>
        <pt x="480" y="0" on="1"/>
        <pt x="395" y="0" on="0"/>
        <pt x="216" y="-8" on="0"/>
        <pt x="132" y="-17" on="1"/>
        <pt x="114" y="-19" on="0"/>
        <pt x="71" y="-27" on="0"/>
        <pt x="28" y="-36" on="0"/>
        <pt x="-15" y="-43" on="0"/>
        <pt x="-34" y="-43" on="1"/>
        <pt x="-40" y="-43" on="0"/>
        <pt x="-47" y="-32" on="0"/>
        <pt x="-50" y="-19" on="0"/>
        <pt x="-51" y="-5" on="0"/>
      </contour>
    </TTGlyph>
    <TTGlyph name="Iacute" xMin="-51" yMin="-43" xMax="1153" yMax="1868">
      <component glyphName="I" x="0" y="0" flags="0x204"/>
      <component glyphName="Acute" x="387" y="0" flags="0x4"/>
    </TTGlyph>
    <TTGlyph name="Icircumflex" xMin="-51" yMin="-43" xMax="1002" yMax="1864">
      <component glyphName="I" x="0" y="0" flags="0x204"/>
      <component glyphName="Circumflex" x="-30" y="-4" flags="0x4"/>
    </TTGlyph>
    <TTGlyph name="Idieresis" xMin="-51" yMin="-43" xMax="1080" yMax="1834">
      <component glyphName="I" x="0" y="0" flags="0x204"/>
      <component glyphName="Dieresis" x="-110" y="0" flags="0x4"/>
    </TTGlyph>
    <TTGlyph name="Idotaccent" xMin="-51" yMin="-43" xMax="1002" yMax="1835">
      <component glyphName="I" x="0" y="0" flags="0x204"/>
      <component glyphName="Dotaccent" x="-119" y="0" flags="0x4"/>
    </TTGlyph>
    <TTGlyph name="Igrave" xMin="-51" yMin="-43" xMax="1002" yMax="1868">
      <component glyphName="I" x="0" y="0" flags="0x204"/>
      <component glyphName="Grave" x="298" y="0" flags="0x4"/>
    </TTGlyph>
    <TTGlyph name="Imacron" xMin="-51" yMin="-43" xMax="1035" yMax="1747">
      <component glyphName="I" x="0" y="0" flags="0x204"/>
      <component glyphName="Macron" x="-71" y="0" flags="0x4"/>
    </TTGlyph>
    <TTGlyph name="Iogonek" xMin="-75" yMin="-529" xMax="1002" yMax="1458">
      <contour>
        <pt x="322" y="-441" on="1"/>
        <pt x="319" y="-452" on="0"/>
        <pt x="288" y="-483" on="0"/>
        <pt x="242" y="-510" on="0"/>
        <pt x="185" y="-529" on="0"/>
        <pt x="156" y="-529" on="1"/>
        <pt x="126" y="-529" on="0"/>
        <pt x="47" y="-521" on="0"/>
        <pt x="-25" y="-494" on="0"/>
        <pt x="-75" y="-440" on="0"/>
        <pt x="-75" y="-394" on="1"/>
        <pt x="-75" y="-367" on="0"/>
        <pt x="-65" y="-334" on="1"/>
        <pt x="-46" y="-273" on="0"/>
        <pt x="28" y="-175" on="0"/>
        <pt x="118" y="-96" on="0"/>
        <pt x="210" y="-37" on="0"/>
        <pt x="247" y="-15" on="1"/>
        <pt x="250" y="-13" on="0"/>
        <pt x="257" y="-8" on="0"/>
        <pt x="260" y="-6" on="1"/>
        <pt x="227" y="-8" on="0"/>
        <pt x="163" y="-13" on="0"/>
        <pt x="132" y="-17" on="1"/>
        <pt x="114" y="-19" on="0"/>
        <pt x="71" y="-27" on="0"/>
        <pt x="28" y="-36" on="0"/>
        <pt x="-15" y="-43" on="0"/>
        <pt x="-34" y="-43" on="1"/>
        <pt x="-40" y="-43" on="0"/>
        <pt x="-47" y="-32" on="0"/>
        <pt x="-50" y="-19" on="0"/>
        <pt x="-51" y="-5" on="0"/>
        <pt x="-51" y="-2" on="1"/>
        <pt x="-51" y="1" on="0"/>
        <pt x="-50" y="18" on="0"/>
        <pt x="-48" y="21" on="1"/>
        <pt x="-41" y="31" on="0"/>
        <pt x="-31" y="31" on="1"/>
        <pt x="-27" y="31" on="0"/>
        <pt x="-3" y="28" on="0"/>
        <pt x="4" y="28" on="1"/>
        <pt x="34" y="28" on="0"/>
        <pt x="81" y="30" on="0"/>
        <pt x="115" y="38" on="1"/>
        <pt x="122" y="39" on="0"/>
        <pt x="139" y="64" on="0"/>
        <pt x="155" y="97" on="0"/>
        <pt x="169" y="131" on="0"/>
        <pt x="172" y="142" on="1"/>
        <pt x="279" y="457" on="0"/>
        <pt x="485" y="1047" on="0"/>
        <pt x="582" y="1308" on="1"/>
        <pt x="587" y="1324" on="0"/>
        <pt x="597" y="1355" on="0"/>
        <pt x="597" y="1372" on="1"/>
        <pt x="597" y="1381" on="0"/>
        <pt x="581" y="1394" on="0"/>
        <pt x="568" y="1394" on="1"/>
        <pt x="558" y="1394" on="0"/>
        <pt x="521" y="1393" on="0"/>
        <pt x="475" y="1392" on="0"/>
        <pt x="424" y="1391" on="0"/>
        <pt x="400" y="1391" on="1"/>
        <pt x="396" y="1391" on="0"/>
        <pt x="380" y="1394" on="0"/>
        <pt x="363" y="1400" on="0"/>
        <pt x="350" y="1407" on="0"/>
        <pt x="350" y="1412" on="1"/>
        <pt x="350" y="1423" on="0"/>
        <pt x="367" y="1439" on="0"/>
        <pt x="376" y="1441" on="1"/>
        <pt x="382" y="1442" on="0"/>
        <pt x="402" y="1444" on="0"/>
        <pt x="423" y="1445" on="0"/>
        <pt x="440" y="1445" on="0"/>
        <pt x="443" y="1445" on="1"/>
        <pt x="453" y="1445" on="0"/>
        <pt x="480" y="1444" on="0"/>
        <pt x="527" y="1444" on="0"/>
        <pt x="598" y="1443" on="0"/>
        <pt x="654" y="1443" on="1"/>
        <pt x="695" y="1443" on="0"/>
        <pt x="770" y="1444" on="0"/>
        <pt x="817" y="1448" on="1"/>
        <pt x="834" y="1449" on="0"/>
        <pt x="878" y="1453" on="0"/>
        <pt x="923" y="1456" on="0"/>
        <pt x="964" y="1458" on="0"/>
        <pt x="976" y="1458" on="1"/>
        <pt x="1002" y="1451" on="0"/>
        <pt x="1002" y="1431" on="1"/>
        <pt x="1002" y="1417" on="0"/>
        <pt x="968" y="1408" on="0"/>
        <pt x="943" y="1408" on="1"/>
        <pt x="879" y="1408" on="1"/>
        <pt x="859" y="1408" on="0"/>
        <pt x="843" y="1406" on="0"/>
        <pt x="834" y="1400" on="1"/>
        <pt x="825" y="1395" on="0"/>
        <pt x="809" y="1364" on="0"/>
        <pt x="801" y="1341" on="1"/>
        <pt x="381" y="138" on="1"/>
        <pt x="374" y="120" on="0"/>
        <pt x="360" y="85" on="0"/>
        <pt x="360" y="74" on="1"/>
        <pt x="360" y="66" on="0"/>
        <pt x="367" y="52" on="0"/>
        <pt x="376" y="52" on="1"/>
        <pt x="415" y="52" on="0"/>
        <pt x="487" y="64" on="0"/>
        <pt x="530" y="64" on="1"/>
        <pt x="535" y="64" on="0"/>
        <pt x="563" y="60" on="0"/>
        <pt x="575" y="54" on="1"/>
        <pt x="585" y="48" on="0"/>
        <pt x="585" y="29" on="1"/>
        <pt x="585" y="19" on="0"/>
        <pt x="580" y="4" on="0"/>
        <pt x="575" y="2" on="1"/>
        <pt x="567" y="-1" on="0"/>
        <pt x="553" y="-5" on="0"/>
        <pt x="542" y="-5" on="1"/>
        <pt x="538" y="-5" on="0"/>
        <pt x="522" y="-3" on="0"/>
        <pt x="503" y="-2" on="0"/>
        <pt x="485" y="0" on="0"/>
        <pt x="480" y="0" on="1"/>
        <pt x="450" y="0" on="0"/>
        <pt x="389" y="0" on="0"/>
        <pt x="358" y="-1" on="1"/>
        <pt x="311" y="-35" on="0"/>
        <pt x="235" y="-97" on="0"/>
        <pt x="174" y="-163" on="0"/>
        <pt x="130" y="-238" on="0"/>
        <pt x="115" y="-285" on="1"/>
        <pt x="110" y="-301" on="0"/>
        <pt x="105" y="-331" on="0"/>
        <pt x="105" y="-345" on="1"/>
        <pt x="105" y="-386" on="0"/>
        <pt x="150" y="-439" on="0"/>
        <pt x="200" y="-439" on="1"/>
        <pt x="221" y="-439" on="0"/>
        <pt x="256" y="-430" on="0"/>
        <pt x="283" y="-418" on="0"/>
        <pt x="304" y="-409" on="0"/>
        <pt x="310" y="-409" on="1"/>
        <pt x="324" y="-409" on="0"/>
        <pt x="324" y="-425" on="1"/>
        <pt x="324" y="-431" on="0"/>
      </contour>
    </TTGlyph>
    <TTGlyph name="J" xMin="110" yMin="-407" xMax="1514" yMax="1432">
      <contour>
        <pt x="110" y="-242" on="1"/>
        <pt x="110" y="-216" on="0"/>
        <pt x="123" y="-144" on="0"/>
        <pt x="153" y="-112" on="1"/>
        <pt x="172" y="-88" on="0"/>
        <pt x="212" y="-88" on="1"/>
        <pt x="259" y="-88" on="0"/>
        <pt x="305" y="-141" on="0"/>
        <pt x="305" y="-187" on="1"/>
        <pt x="305" y="-206" on="0"/>
        <pt x="295" y="-237" on="0"/>
        <pt x="282" y="-265" on="0"/>
        <pt x="272" y="-289" on="0"/>
        <pt x="272" y="-301" on="1"/>
        <pt x="272" y="-315" on="0"/>
        <pt x="307" y="-335" on="0"/>
        <pt x="353" y="-349" on="0"/>
        <pt x="397" y="-356" on="0"/>
        <pt x="405" y="-356" on="1"/>
        <pt x="428" y="-356" on="0"/>
        <pt x="477" y="-346" on="0"/>
        <pt x="504" y="-332" on="1"/>
        <pt x="543" y="-311" on="0"/>
        <pt x="591" y="-256" on="0"/>
        <pt x="610" y="-227" on="1"/>
        <pt x="622" y="-206" on="0"/>
        <pt x="639" y="-166" on="0"/>
        <pt x="654" y="-127" on="0"/>
        <pt x="669" y="-86" on="0"/>
        <pt x="679" y="-64" on="1"/>
        <pt x="689" y="-41" on="0"/>
        <pt x="719" y="30" on="0"/>
        <pt x="754" y="112" on="0"/>
        <pt x="791" y="199" on="0"/>
        <pt x="808" y="237" on="1"/>
        <pt x="827" y="280" on="0"/>
        <pt x="861" y="354" on="0"/>
        <pt x="895" y="424" on="0"/>
        <pt x="929" y="496" on="0"/>
        <pt x="949" y="538" on="1"/>
        <pt x="952" y="544" on="0"/>
        <pt x="962" y="563" on="0"/>
        <pt x="972" y="584" on="0"/>
        <pt x="980" y="604" on="0"/>
        <pt x="980" y="611" on="1"/>
        <pt x="980" y="621" on="0"/>
        <pt x="971" y="621" on="1"/>
        <pt x="949" y="621" on="0"/>
        <pt x="896" y="614" on="0"/>
        <pt x="843" y="606" on="0"/>
        <pt x="796" y="599" on="0"/>
        <pt x="779" y="599" on="1"/>
        <pt x="757" y="599" on="0"/>
        <pt x="731" y="619" on="0"/>
        <pt x="731" y="640" on="1"/>
        <pt x="731" y="656" on="0"/>
        <pt x="739" y="685" on="0"/>
        <pt x="762" y="687" on="1"/>
        <pt x="785" y="689" on="0"/>
        <pt x="837" y="692" on="0"/>
        <pt x="862" y="692" on="1"/>
        <pt x="913" y="692" on="0"/>
        <pt x="993" y="687" on="0"/>
        <pt x="1004" y="687" on="1"/>
        <pt x="1008" y="688" on="0"/>
        <pt x="1018" y="701" on="0"/>
        <pt x="1029" y="716" on="0"/>
        <pt x="1036" y="730" on="0"/>
        <pt x="1037" y="732" on="1"/>
        <pt x="1137" y="1014" on="1"/>
        <pt x="1140" y="1022" on="0"/>
        <pt x="1153" y="1040" on="0"/>
        <pt x="1153" y="1045" on="1"/>
        <pt x="1153" y="1052" on="0"/>
        <pt x="1148" y="1071" on="0"/>
        <pt x="1139" y="1071" on="1"/>
        <pt x="1132" y="1071" on="0"/>
        <pt x="1102" y="1072" on="0"/>
        <pt x="1068" y="1074" on="0"/>
        <pt x="1033" y="1076" on="0"/>
        <pt x="1021" y="1078" on="1"/>
        <pt x="999" y="1080" on="0"/>
        <pt x="945" y="1087" on="0"/>
        <pt x="917" y="1093" on="1"/>
        <pt x="902" y="1096" on="0"/>
        <pt x="872" y="1106" on="0"/>
        <pt x="859" y="1114" on="1"/>
        <pt x="806" y="1141" on="0"/>
        <pt x="704" y="1221" on="0"/>
        <pt x="602" y="1294" on="0"/>
        <pt x="499" y="1346" on="0"/>
        <pt x="447" y="1346" on="1"/>
        <pt x="422" y="1346" on="0"/>
        <pt x="357" y="1326" on="0"/>
        <pt x="298" y="1290" on="0"/>
        <pt x="258" y="1240" on="0"/>
        <pt x="258" y="1211" on="1"/>
        <pt x="258" y="1203" on="0"/>
        <pt x="271" y="1190" on="0"/>
        <pt x="277" y="1190" on="1"/>
        <pt x="288" y="1190" on="0"/>
        <pt x="308" y="1195" on="0"/>
        <pt x="317" y="1195" on="1"/>
        <pt x="337" y="1195" on="0"/>
        <pt x="378" y="1176" on="0"/>
        <pt x="410" y="1145" on="0"/>
        <pt x="430" y="1104" on="0"/>
        <pt x="430" y="1083" on="1"/>
        <pt x="430" y="1064" on="0"/>
        <pt x="417" y="1025" on="0"/>
        <pt x="393" y="992" on="0"/>
        <pt x="359" y="971" on="0"/>
        <pt x="338" y="971" on="1"/>
        <pt x="305" y="971" on="0"/>
        <pt x="256" y="998" on="0"/>
        <pt x="223" y="1041" on="0"/>
        <pt x="206" y="1098" on="0"/>
        <pt x="206" y="1128" on="1"/>
        <pt x="206" y="1141" on="0"/>
        <pt x="211" y="1172" on="0"/>
        <pt x="217" y="1201" on="0"/>
        <pt x="223" y="1223" on="0"/>
        <pt x="225" y="1228" on="1"/>
        <pt x="243" y="1263" on="0"/>
        <pt x="275" y="1315" on="0"/>
        <pt x="315" y="1357" on="0"/>
        <pt x="371" y="1392" on="0"/>
        <pt x="414" y="1410" on="1"/>
        <pt x="439" y="1422" on="0"/>
        <pt x="506" y="1432" on="0"/>
        <pt x="532" y="1432" on="1"/>
        <pt x="644" y="1432" on="0"/>
        <pt x="741" y="1379" on="1"/>
        <pt x="764" y="1367" on="0"/>
        <pt x="815" y="1327" on="0"/>
        <pt x="866" y="1283" on="0"/>
        <pt x="915" y="1238" on="0"/>
        <pt x="935" y="1220" on="1"/>
        <pt x="950" y="1208" on="0"/>
        <pt x="1006" y="1165" on="0"/>
        <pt x="1068" y="1125" on="0"/>
        <pt x="1127" y="1095" on="0"/>
        <pt x="1146" y="1095" on="1"/>
        <pt x="1161" y="1095" on="0"/>
        <pt x="1177" y="1110" on="0"/>
        <pt x="1186" y="1131" on="0"/>
        <pt x="1190" y="1155" on="0"/>
        <pt x="1193" y="1164" on="1"/>
        <pt x="1198" y="1180" on="0"/>
        <pt x="1212" y="1218" on="0"/>
        <pt x="1226" y="1254" on="0"/>
        <pt x="1239" y="1283" on="0"/>
        <pt x="1244" y="1289" on="1"/>
        <pt x="1254" y="1306" on="0"/>
        <pt x="1279" y="1339" on="0"/>
        <pt x="1309" y="1366" on="0"/>
        <pt x="1346" y="1382" on="0"/>
        <pt x="1369" y="1382" on="1"/>
        <pt x="1437" y="1382" on="0"/>
        <pt x="1514" y="1308" on="0"/>
        <pt x="1514" y="1242" on="1"/>
        <pt x="1514" y="1190" on="0"/>
        <pt x="1439" y="1122" on="0"/>
        <pt x="1379" y="1102" on="1"/>
        <pt x="1370" y="1100" on="0"/>
        <pt x="1352" y="1097" on="0"/>
        <pt x="1343" y="1090" on="1"/>
        <pt x="1335" y="1085" on="0"/>
        <pt x="1324" y="1062" on="0"/>
        <pt x="1319" y="1048" on="1"/>
        <pt x="1251" y="870" on="1"/>
        <pt x="1244" y="851" on="0"/>
        <pt x="1232" y="818" on="0"/>
        <pt x="1221" y="783" on="0"/>
        <pt x="1209" y="745" on="0"/>
        <pt x="1201" y="721" on="1"/>
        <pt x="1230" y="720" on="0"/>
        <pt x="1304" y="716" on="0"/>
        <pt x="1329" y="714" on="1"/>
        <pt x="1336" y="713" on="0"/>
        <pt x="1359" y="702" on="0"/>
        <pt x="1381" y="688" on="0"/>
        <pt x="1398" y="674" on="0"/>
        <pt x="1398" y="670" on="1"/>
        <pt x="1398" y="658" on="0"/>
        <pt x="1370" y="644" on="0"/>
        <pt x="1334" y="637" on="0"/>
        <pt x="1301" y="635" on="0"/>
        <pt x="1296" y="635" on="1"/>
        <pt x="1285" y="635" on="0"/>
        <pt x="1240" y="638" on="0"/>
        <pt x="1222" y="638" on="1"/>
        <pt x="1180" y="638" on="1"/>
        <pt x="1167" y="638" on="0"/>
        <pt x="1141" y="624" on="0"/>
        <pt x="1130" y="607" on="1"/>
        <pt x="1106" y="543" on="0"/>
        <pt x="1050" y="407" on="0"/>
        <pt x="990" y="269" on="0"/>
        <pt x="928" y="133" on="0"/>
        <pt x="898" y="69" on="1"/>
        <pt x="862" y="-9" on="0"/>
        <pt x="804" y="-117" on="0"/>
        <pt x="742" y="-201" on="0"/>
        <pt x="667" y="-274" on="0"/>
        <pt x="615" y="-317" on="1"/>
        <pt x="585" y="-340" on="0"/>
        <pt x="511" y="-373" on="0"/>
        <pt x="433" y="-396" on="0"/>
        <pt x="355" y="-407" on="0"/>
        <pt x="321" y="-407" on="1"/>
        <pt x="284" y="-407" on="0"/>
        <pt x="209" y="-389" on="0"/>
        <pt x="148" y="-349" on="0"/>
        <pt x="110" y="-286" on="0"/>
      </contour>
    </TTGlyph>
    <TTGlyph name="K" xMin="-123" yMin="-29" xMax="1777" yMax="1384">
      <contour>
        <pt x="107" y="73" on="1"/>
        <pt x="232" y="386" on="0"/>
        <pt x="493" y="980" on="0"/>
        <pt x="630" y="1273" on="1"/>
        <pt x="632" y="1278" on="0"/>
        <pt x="644" y="1302" on="0"/>
        <pt x="644" y="1304" on="1"/>
        <pt x="644" y="1321" on="0"/>
        <pt x="616" y="1329" on="0"/>
        <pt x="599" y="1329" on="1"/>
        <pt x="597" y="1329" on="0"/>
        <pt x="587" y="1329" on="0"/>
        <pt x="559" y="1330" on="0"/>
        <pt x="508" y="1332" on="0"/>
        <pt x="466" y="1334" on="1"/>
        <pt x="456" y="1334" on="0"/>
        <pt x="434" y="1346" on="0"/>
        <pt x="434" y="1351" on="1"/>
        <pt x="434" y="1355" on="0"/>
        <pt x="455" y="1360" on="0"/>
        <pt x="483" y="1362" on="0"/>
        <pt x="510" y="1363" on="0"/>
        <pt x="516" y="1363" on="1"/>
        <pt x="538" y="1363" on="0"/>
        <pt x="606" y="1351" on="0"/>
        <pt x="635" y="1351" on="1"/>
        <pt x="659" y="1351" on="0"/>
        <pt x="720" y="1355" on="0"/>
        <pt x="782" y="1360" on="0"/>
        <pt x="839" y="1366" on="0"/>
        <pt x="860" y="1368" on="1"/>
        <pt x="870" y="1369" on="0"/>
        <pt x="903" y="1373" on="0"/>
        <pt x="943" y="1377" on="0"/>
        <pt x="985" y="1379" on="0"/>
        <pt x="1005" y="1379" on="1"/>
        <pt x="1013" y="1379" on="0"/>
        <pt x="1038" y="1373" on="0"/>
        <pt x="1038" y="1365" on="1"/>
        <pt x="1038" y="1355" on="0"/>
        <pt x="1028" y="1349" on="1"/>
        <pt x="1020" y="1344" on="0"/>
        <pt x="995" y="1341" on="0"/>
        <pt x="985" y="1341" on="1"/>
        <pt x="981" y="1341" on="0"/>
        <pt x="959" y="1343" on="0"/>
        <pt x="933" y="1344" on="0"/>
        <pt x="909" y="1346" on="0"/>
        <pt x="903" y="1346" on="1"/>
        <pt x="886" y="1346" on="0"/>
        <pt x="845" y="1317" on="0"/>
        <pt x="836" y="1301" on="1"/>
        <pt x="804" y="1238" on="0"/>
        <pt x="751" y="1131" on="0"/>
        <pt x="699" y="1021" on="0"/>
        <pt x="640" y="900" on="0"/>
        <pt x="602" y="822" on="1"/>
        <pt x="594" y="804" on="0"/>
        <pt x="583" y="766" on="0"/>
        <pt x="583" y="746" on="1"/>
        <pt x="583" y="741" on="0"/>
        <pt x="590" y="739" on="0"/>
        <pt x="597" y="739" on="1"/>
        <pt x="649" y="757" on="0"/>
        <pt x="734" y="803" on="0"/>
        <pt x="811" y="855" on="0"/>
        <pt x="886" y="911" on="0"/>
        <pt x="929" y="939" on="1"/>
        <pt x="998" y="984" on="0"/>
        <pt x="1143" y="1065" on="0"/>
        <pt x="1211" y="1107" on="1"/>
        <pt x="1231" y="1119" on="0"/>
        <pt x="1292" y="1154" on="0"/>
        <pt x="1349" y="1196" on="0"/>
        <pt x="1389" y="1243" on="0"/>
        <pt x="1389" y="1268" on="1"/>
        <pt x="1389" y="1289" on="0"/>
        <pt x="1375" y="1309" on="0"/>
        <pt x="1352" y="1318" on="0"/>
        <pt x="1322" y="1320" on="0"/>
        <pt x="1305" y="1322" on="1"/>
        <pt x="1281" y="1324" on="0"/>
        <pt x="1219" y="1331" on="0"/>
        <pt x="1199" y="1339" on="1"/>
        <pt x="1194" y="1341" on="0"/>
        <pt x="1192" y="1347" on="0"/>
        <pt x="1192" y="1351" on="1"/>
        <pt x="1192" y="1364" on="0"/>
        <pt x="1208" y="1379" on="0"/>
        <pt x="1222" y="1379" on="1"/>
        <pt x="1226" y="1379" on="0"/>
        <pt x="1240" y="1376" on="0"/>
        <pt x="1276" y="1373" on="0"/>
        <pt x="1344" y="1370" on="0"/>
        <pt x="1401" y="1370" on="1"/>
        <pt x="1443" y="1370" on="0"/>
        <pt x="1509" y="1370" on="0"/>
        <pt x="1570" y="1371" on="0"/>
        <pt x="1635" y="1373" on="0"/>
        <pt x="1675" y="1375" on="1"/>
        <pt x="1676" y="1375" on="0"/>
        <pt x="1687" y="1378" on="0"/>
        <pt x="1702" y="1381" on="0"/>
        <pt x="1719" y="1384" on="0"/>
        <pt x="1725" y="1384" on="1"/>
        <pt x="1741" y="1384" on="0"/>
        <pt x="1777" y="1376" on="0"/>
        <pt x="1777" y="1367" on="1"/>
        <pt x="1777" y="1360" on="0"/>
        <pt x="1767" y="1339" on="0"/>
        <pt x="1756" y="1339" on="1"/>
        <pt x="1745" y="1339" on="0"/>
        <pt x="1717" y="1334" on="0"/>
        <pt x="1688" y="1327" on="0"/>
        <pt x="1661" y="1319" on="0"/>
        <pt x="1651" y="1315" on="1"/>
        <pt x="1574" y="1280" on="0"/>
        <pt x="1434" y="1187" on="0"/>
        <pt x="1362" y="1142" on="1"/>
        <pt x="1249" y="1076" on="1"/>
        <pt x="1206" y="1050" on="0"/>
        <pt x="1124" y="1000" on="0"/>
        <pt x="1078" y="972" on="1"/>
        <pt x="1071" y="968" on="0"/>
        <pt x="1012" y="936" on="0"/>
        <pt x="938" y="896" on="0"/>
        <pt x="862" y="853" on="0"/>
        <pt x="838" y="839" on="1"/>
        <pt x="819" y="828" on="0"/>
        <pt x="808" y="814" on="0"/>
        <pt x="808" y="803" on="1"/>
        <pt x="808" y="800" on="0"/>
        <pt x="810" y="789" on="0"/>
        <pt x="812" y="787" on="1"/>
        <pt x="885" y="629" on="0"/>
        <pt x="1018" y="309" on="0"/>
        <pt x="1092" y="149" on="1"/>
        <pt x="1102" y="128" on="0"/>
        <pt x="1123" y="97" on="0"/>
        <pt x="1146" y="73" on="0"/>
        <pt x="1172" y="53" on="0"/>
        <pt x="1187" y="42" on="1"/>
        <pt x="1206" y="39" on="0"/>
        <pt x="1247" y="32" on="0"/>
        <pt x="1286" y="23" on="0"/>
        <pt x="1321" y="12" on="0"/>
        <pt x="1334" y="5" on="1"/>
        <pt x="1350" y="-6" on="0"/>
        <pt x="1350" y="-14" on="1"/>
        <pt x="1350" y="-19" on="0"/>
        <pt x="1329" y="-29" on="0"/>
        <pt x="1320" y="-29" on="1"/>
        <pt x="1302" y="-29" on="0"/>
        <pt x="1244" y="-21" on="0"/>
        <pt x="1218" y="-19" on="1"/>
        <pt x="1193" y="-17" on="0"/>
        <pt x="1142" y="-11" on="0"/>
        <pt x="1113" y="-9" on="1"/>
        <pt x="1108" y="-8" on="0"/>
        <pt x="1090" y="-7" on="0"/>
        <pt x="1070" y="-7" on="0"/>
        <pt x="1051" y="-7" on="0"/>
        <pt x="1045" y="-7" on="1"/>
        <pt x="989" y="-7" on="0"/>
        <pt x="871" y="-14" on="0"/>
        <pt x="820" y="-14" on="1"/>
        <pt x="742" y="-14" on="1"/>
        <pt x="722" y="-12" on="0"/>
        <pt x="703" y="-6" on="0"/>
        <pt x="703" y="14" on="1"/>
        <pt x="703" y="16" on="0"/>
        <pt x="704" y="22" on="0"/>
        <pt x="709" y="26" on="1"/>
        <pt x="714" y="30" on="0"/>
        <pt x="726" y="31" on="0"/>
        <pt x="735" y="31" on="1"/>
        <pt x="891" y="31" on="1"/>
        <pt x="907" y="31" on="0"/>
        <pt x="924" y="52" on="0"/>
        <pt x="924" y="64" on="1"/>
        <pt x="924" y="76" on="0"/>
        <pt x="897" y="111" on="0"/>
        <pt x="886" y="137" on="1"/>
        <pt x="833" y="272" on="0"/>
        <pt x="716" y="526" on="0"/>
        <pt x="647" y="657" on="1"/>
        <pt x="634" y="681" on="0"/>
        <pt x="604" y="717" on="0"/>
        <pt x="595" y="727" on="1"/>
        <pt x="592" y="730" on="0"/>
        <pt x="580" y="730" on="1"/>
        <pt x="575" y="723" on="0"/>
        <pt x="561" y="710" on="0"/>
        <pt x="557" y="699" on="1"/>
        <pt x="489" y="541" on="0"/>
        <pt x="365" y="246" on="0"/>
        <pt x="303" y="92" on="1"/>
        <pt x="300" y="85" on="0"/>
        <pt x="291" y="73" on="0"/>
        <pt x="291" y="64" on="1"/>
        <pt x="291" y="56" on="0"/>
        <pt x="313" y="50" on="0"/>
        <pt x="317" y="50" on="1"/>
        <pt x="334" y="47" on="0"/>
        <pt x="381" y="43" on="0"/>
        <pt x="432" y="38" on="0"/>
        <pt x="483" y="30" on="0"/>
        <pt x="504" y="24" on="1"/>
        <pt x="506" y="22" on="0"/>
        <pt x="516" y="14" on="0"/>
        <pt x="516" y="9" on="1"/>
        <pt x="516" y="1" on="0"/>
        <pt x="503" y="-9" on="0"/>
        <pt x="498" y="-9" on="1"/>
        <pt x="434" y="-9" on="1"/>
        <pt x="387" y="-9" on="0"/>
        <pt x="279" y="5" on="0"/>
        <pt x="227" y="5" on="1"/>
        <pt x="150" y="5" on="0"/>
        <pt x="-9" y="-5" on="0"/>
        <pt x="-79" y="-5" on="1"/>
        <pt x="-102" y="-5" on="0"/>
        <pt x="-123" y="5" on="0"/>
        <pt x="-123" y="31" on="1"/>
        <pt x="-123" y="35" on="0"/>
        <pt x="-116" y="43" on="0"/>
        <pt x="-112" y="45" on="1"/>
        <pt x="-95" y="45" on="0"/>
        <pt x="7" y="44" on="0"/>
        <pt x="75" y="42" on="1"/>
        <pt x="86" y="42" on="0"/>
        <pt x="103" y="64" on="0"/>
      </contour>
    </TTGlyph>
    <TTGlyph name="Kcommaaccent" xMin="-123" yMin="-521" xMax="1777" yMax="1384">
      <component glyphName="K" x="0" y="0" flags="0x204"/>
      <component glyphName="commaaccent" x="462" y="0" flags="0x4"/>
    </TTGlyph>
    <TTGlyph name="L" xMin="-121" yMin="-10" xMax="1214" yMax="1448">
      <contour>
        <pt x="-121" y="21" on="1"/>
        <pt x="-121" y="32" on="0"/>
        <pt x="-109" y="49" on="0"/>
        <pt x="-100" y="55" on="1"/>
        <pt x="-66" y="53" on="0"/>
        <pt x="-14" y="50" on="0"/>
        <pt x="17" y="50" on="1"/>
        <pt x="20" y="50" on="0"/>
        <pt x="39" y="50" on="0"/>
        <pt x="61" y="50" on="0"/>
        <pt x="81" y="51" on="0"/>
        <pt x="86" y="52" on="1"/>
        <pt x="106" y="56" on="0"/>
        <pt x="123" y="80" on="0"/>
        <pt x="130" y="93" on="1"/>
        <pt x="191" y="242" on="0"/>
        <pt x="312" y="549" on="0"/>
        <pt x="437" y="861" on="0"/>
        <pt x="570" y="1174" on="0"/>
        <pt x="645" y="1330" on="1"/>
        <pt x="650" y="1342" on="0"/>
        <pt x="656" y="1361" on="0"/>
        <pt x="656" y="1372" on="1"/>
        <pt x="656" y="1376" on="0"/>
        <pt x="648" y="1398" on="0"/>
        <pt x="637" y="1398" on="1"/>
        <pt x="422" y="1398" on="1"/>
        <pt x="414" y="1398" on="0"/>
        <pt x="403" y="1407" on="0"/>
        <pt x="403" y="1415" on="1"/>
        <pt x="403" y="1421" on="0"/>
        <pt x="419" y="1428" on="0"/>
        <pt x="440" y="1431" on="0"/>
        <pt x="463" y="1432" on="0"/>
        <pt x="471" y="1432" on="1"/>
        <pt x="519" y="1432" on="0"/>
        <pt x="617" y="1431" on="0"/>
        <pt x="668" y="1426" on="1"/>
        <pt x="759" y="1426" on="1"/>
        <pt x="786" y="1430" on="0"/>
        <pt x="864" y="1438" on="0"/>
        <pt x="948" y="1444" on="0"/>
        <pt x="1027" y="1448" on="0"/>
        <pt x="1055" y="1448" on="1"/>
        <pt x="1058" y="1448" on="0"/>
        <pt x="1075" y="1448" on="0"/>
        <pt x="1093" y="1448" on="0"/>
        <pt x="1109" y="1447" on="0"/>
        <pt x="1112" y="1446" on="1"/>
        <pt x="1117" y="1445" on="0"/>
        <pt x="1119" y="1437" on="0"/>
        <pt x="1119" y="1432" on="1"/>
        <pt x="1119" y="1423" on="0"/>
        <pt x="1099" y="1412" on="0"/>
        <pt x="1090" y="1412" on="1"/>
        <pt x="920" y="1412" on="1"/>
        <pt x="905" y="1412" on="0"/>
        <pt x="880" y="1390" on="0"/>
        <pt x="874" y="1382" on="1"/>
        <pt x="863" y="1368" on="0"/>
        <pt x="831" y="1308" on="0"/>
        <pt x="813" y="1263" on="1"/>
        <pt x="704" y="994" on="0"/>
        <pt x="487" y="456" on="0"/>
        <pt x="381" y="187" on="1"/>
        <pt x="376" y="175" on="0"/>
        <pt x="364" y="141" on="0"/>
        <pt x="354" y="108" on="0"/>
        <pt x="345" y="79" on="0"/>
        <pt x="343" y="71" on="1"/>
        <pt x="345" y="65" on="0"/>
        <pt x="361" y="58" on="0"/>
        <pt x="380" y="55" on="0"/>
        <pt x="398" y="55" on="0"/>
        <pt x="403" y="55" on="1"/>
        <pt x="450" y="55" on="0"/>
        <pt x="560" y="61" on="0"/>
        <pt x="671" y="68" on="0"/>
        <pt x="778" y="74" on="0"/>
        <pt x="823" y="74" on="1"/>
        <pt x="856" y="74" on="0"/>
        <pt x="924" y="104" on="0"/>
        <pt x="988" y="147" on="0"/>
        <pt x="1046" y="195" on="0"/>
        <pt x="1069" y="213" on="1"/>
        <pt x="1079" y="221" on="0"/>
        <pt x="1108" y="250" on="0"/>
        <pt x="1140" y="284" on="0"/>
        <pt x="1172" y="318" on="0"/>
        <pt x="1185" y="332" on="1"/>
        <pt x="1193" y="346" on="0"/>
        <pt x="1204" y="346" on="1"/>
        <pt x="1211" y="346" on="0"/>
        <pt x="1214" y="321" on="0"/>
        <pt x="1214" y="317" on="1"/>
        <pt x="1214" y="296" on="0"/>
        <pt x="1190" y="257" on="0"/>
        <pt x="1182" y="237" on="1"/>
        <pt x="1178" y="229" on="0"/>
        <pt x="1163" y="189" on="0"/>
        <pt x="1147" y="143" on="0"/>
        <pt x="1133" y="102" on="0"/>
        <pt x="1130" y="93" on="1"/>
        <pt x="1126" y="81" on="0"/>
        <pt x="1119" y="49" on="0"/>
        <pt x="1107" y="20" on="0"/>
        <pt x="1087" y="0" on="0"/>
        <pt x="1069" y="0" on="1"/>
        <pt x="1063" y="0" on="0"/>
        <pt x="1040" y="2" on="0"/>
        <pt x="1016" y="5" on="0"/>
        <pt x="992" y="7" on="0"/>
        <pt x="984" y="7" on="1"/>
        <pt x="973" y="7" on="0"/>
        <pt x="921" y="5" on="0"/>
        <pt x="861" y="2" on="0"/>
        <pt x="803" y="0" on="0"/>
        <pt x="785" y="0" on="1"/>
        <pt x="99" y="0" on="1"/>
        <pt x="62" y="-7" on="0"/>
        <pt x="-28" y="-10" on="0"/>
        <pt x="-62" y="-10" on="1"/>
        <pt x="-72" y="-10" on="0"/>
        <pt x="-93" y="-9" on="0"/>
        <pt x="-110" y="-3" on="0"/>
        <pt x="-121" y="10" on="0"/>
      </contour>
    </TTGlyph>
    <TTGlyph name="Lacute" xMin="-121" yMin="-10" xMax="1269" yMax="1868">
      <component glyphName="L" x="0" y="0" flags="0x204"/>
      <component glyphName="Acute" x="503" y="0" flags="0x4"/>
    </TTGlyph>
    <TTGlyph name="Lcaron" xMin="-121" yMin="-10" xMax="1487" yMax="1470">
      <component glyphName="L" x="0" y="0" flags="0x204"/>
      <component glyphName="quoteright" x="900" y="0" flags="0x4"/>
    </TTGlyph>
    <TTGlyph name="Lcommaaccent" xMin="-121" yMin="-521" xMax="1214" yMax="1448">
      <component glyphName="L" x="0" y="0" flags="0x204"/>
      <component glyphName="commaaccent" x="407" y="0" flags="0x4"/>
    </TTGlyph>
</ttFont>
